<?xml version="1.0" encoding="UTF-8" standalone="no"?>
<!DOCTYPE svg PUBLIC "-//W3C//DTD SVG 1.1//EN"
 "http://www.w3.org/Graphics/SVG/1.1/DTD/svg11.dtd">
<!-- Generated by graphviz version 14.0.1 (20251006.0113)
 -->
<!-- Title: Activity Pages: 1 -->
<svg width="2831pt" height="402pt"
 viewBox="0.00 0.00 2831.00 402.00" xmlns="http://www.w3.org/2000/svg" xmlns:xlink="http://www.w3.org/1999/xlink">
<g id="graph0" class="graph" transform="scale(1 1) rotate(0) translate(4 397.55)">
<title>Activity</title>
<polygon fill="white" stroke="none" points="-4,4 -4,-397.55 2827.2,-397.55 2827.2,4 -4,4"/>
<text xml:space="preserve" text-anchor="middle" x="1411.6" y="-378.15" font-family="Helvetica,sans-Serif" font-size="12.00">Call Analytics Activity Flow</text>
<!-- Start -->
<g id="node1" class="node">
<title>Start</title>
<ellipse fill="#2b6cb0" stroke="black" cx="100.8" cy="-100.8" rx="100.8" ry="100.8"/>
<text xml:space="preserve" text-anchor="middle" x="100.8" y="-95" font-family="Helvetica,sans-Serif" font-size="14.00" fill="white">start</text>
</g>
<!-- CaptureUpload -->
<g id="node2" class="node">
<title>CaptureUpload</title>
<polygon fill="#ddeafb" stroke="black" points="439.2,-119.8 237.6,-119.8 237.6,-81.8 439.2,-81.8 439.2,-119.8"/>
<text xml:space="preserve" text-anchor="middle" x="338.4" y="-102.5" font-family="Helvetica,sans-Serif" font-size="14.00">Capture upload</text>
<text xml:space="preserve" text-anchor="middle" x="338.4" y="-87.5" font-family="Helvetica,sans-Serif" font-size="14.00">&amp; metadata</text>
</g>
<!-- Start&#45;&gt;CaptureUpload -->
<g id="edge1" class="edge">
<title>Start&#45;&gt;CaptureUpload</title>
<path fill="none" stroke="#2b6cb0" stroke-width="1.4" d="M202.06,-100.8C210.43,-100.8 218.92,-100.8 227.36,-100.8"/>
<polygon fill="#2b6cb0" stroke="#2b6cb0" stroke-width="1.4" points="227.11,-103.6 235.11,-100.8 227.11,-98 227.11,-103.6"/>
</g>
<!-- CleanCSV -->
<g id="node3" class="node">
<title>CleanCSV</title>
<polygon fill="#e6fffa" stroke="black" points="914.4,-148.8 712.8,-148.8 712.8,-110.8 914.4,-110.8 914.4,-148.8"/>
<text xml:space="preserve" text-anchor="middle" x="813.6" y="-131.5" font-family="Helvetica,sans-Serif" font-size="14.00">Clean CSV</text>
<text xml:space="preserve" text-anchor="middle" x="813.6" y="-116.5" font-family="Helvetica,sans-Serif" font-size="14.00">via CSVProcessor</text>
</g>
<!-- CaptureUpload&#45;&gt;CleanCSV -->
<g id="edge2" class="edge">
<title>CaptureUpload&#45;&gt;CleanCSV</title>
<path fill="none" stroke="#2b6cb0" stroke-width="1.4" d="M439.46,-106.93C516.58,-111.66 623.13,-118.19 702.63,-123.06"/>
<polygon fill="#2b6cb0" stroke="#2b6cb0" stroke-width="1.4" points="702.4,-125.85 710.56,-123.55 702.75,-120.26 702.4,-125.85"/>
</g>
<!-- PrepAudio -->
<g id="node4" class="node">
<title>PrepAudio</title>
<polygon fill="#e6fffa" stroke="black" points="676.8,-96.8 475.2,-96.8 475.2,-58.8 676.8,-58.8 676.8,-96.8"/>
<text xml:space="preserve" text-anchor="middle" x="576" y="-79.5" font-family="Helvetica,sans-Serif" font-size="14.00">Prep audio</text>
<text xml:space="preserve" text-anchor="middle" x="576" y="-64.5" font-family="Helvetica,sans-Serif" font-size="14.00">via AudioProcessor</text>
</g>
<!-- CaptureUpload&#45;&gt;PrepAudio -->
<g id="edge3" class="edge">
<title>CaptureUpload&#45;&gt;PrepAudio</title>
<path fill="none" stroke="#2b6cb0" stroke-width="1.4" d="M439.66,-91.01C448.03,-90.2 456.52,-89.37 464.96,-88.54"/>
<polygon fill="#2b6cb0" stroke="#2b6cb0" stroke-width="1.4" points="465.03,-91.35 472.72,-87.78 464.49,-85.78 465.03,-91.35"/>
</g>
<!-- LabelCall -->
<g id="node6" class="node">
<title>LabelCall</title>
<polygon fill="#fff5f7" stroke="black" points="1152,-120.8 950.4,-120.8 950.4,-82.8 1152,-82.8 1152,-120.8"/>
<text xml:space="preserve" text-anchor="middle" x="1051.2" y="-103.5" font-family="Helvetica,sans-Serif" font-size="14.00">Apply LabelingEngine</text>
<text xml:space="preserve" text-anchor="middle" x="1051.2" y="-88.5" font-family="Helvetica,sans-Serif" font-size="14.00">rules</text>
</g>
<!-- CleanCSV&#45;&gt;LabelCall -->
<g id="edge4" class="edge">
<title>CleanCSV&#45;&gt;LabelCall</title>
<path fill="none" stroke="#2b6cb0" stroke-width="1.4" d="M914.86,-117.88C923.23,-116.89 931.72,-115.88 940.16,-114.88"/>
<polygon fill="#2b6cb0" stroke="#2b6cb0" stroke-width="1.4" points="940.32,-117.68 947.93,-113.95 939.65,-112.12 940.32,-117.68"/>
</g>
<!-- Whisper -->
<g id="node5" class="node">
<title>Whisper</title>
<polygon fill="#fff5f7" stroke="black" points="914.4,-92.8 712.8,-92.8 712.8,-54.8 914.4,-54.8 914.4,-92.8"/>
<text xml:space="preserve" text-anchor="middle" x="813.6" y="-75.5" font-family="Helvetica,sans-Serif" font-size="14.00">Transcribe with</text>
<text xml:space="preserve" text-anchor="middle" x="813.6" y="-60.5" font-family="Helvetica,sans-Serif" font-size="14.00">Whisper STT</text>
</g>
<!-- PrepAudio&#45;&gt;Whisper -->
<g id="edge5" class="edge">
<title>PrepAudio&#45;&gt;Whisper</title>
<path fill="none" stroke="#2b6cb0" stroke-width="1.4" d="M677.26,-76.1C685.63,-75.96 694.12,-75.81 702.56,-75.67"/>
<polygon fill="#2b6cb0" stroke="#2b6cb0" stroke-width="1.4" points="702.36,-78.47 710.31,-75.54 702.27,-72.87 702.36,-78.47"/>
</g>
<!-- Whisper&#45;&gt;LabelCall -->
<g id="edge6" class="edge">
<title>Whisper&#45;&gt;LabelCall</title>
<path fill="none" stroke="#2b6cb0" stroke-width="1.4" d="M914.86,-85.72C923.23,-86.71 931.72,-87.72 940.16,-88.72"/>
<polygon fill="#2b6cb0" stroke="#2b6cb0" stroke-width="1.4" points="939.65,-91.48 947.93,-89.65 940.32,-85.92 939.65,-91.48"/>
</g>
<!-- Persist -->
<g id="node7" class="node">
<title>Persist</title>
<polygon fill="#e9d8fd" stroke="black" points="1389.6,-153.8 1188,-153.8 1188,-115.8 1389.6,-115.8 1389.6,-153.8"/>
<text xml:space="preserve" text-anchor="middle" x="1288.8" y="-136.5" font-family="Helvetica,sans-Serif" font-size="14.00">Persist CallRecord</text>
<text xml:space="preserve" text-anchor="middle" x="1288.8" y="-121.5" font-family="Helvetica,sans-Serif" font-size="14.00">(StorageManager)</text>
</g>
<!-- LabelCall&#45;&gt;Persist -->
<g id="edge7" class="edge">
<title>LabelCall&#45;&gt;Persist</title>
<path fill="none" stroke="#2b6cb0" stroke-width="1.4" d="M1152.46,-115.84C1160.83,-117.02 1169.32,-118.2 1177.76,-119.39"/>
<polygon fill="#2b6cb0" stroke="#2b6cb0" stroke-width="1.4" points="1177.22,-122.14 1185.53,-120.48 1178,-116.59 1177.22,-122.14"/>
</g>
<!-- Embed -->
<g id="node8" class="node">
<title>Embed</title>
<polygon fill="#e9d8fd" stroke="black" points="1627.2,-163.8 1425.6,-163.8 1425.6,-125.8 1627.2,-125.8 1627.2,-163.8"/>
<text xml:space="preserve" text-anchor="middle" x="1526.4" y="-146.5" font-family="Helvetica,sans-Serif" font-size="14.00">Publish embeddings</text>
<text xml:space="preserve" text-anchor="middle" x="1526.4" y="-131.5" font-family="Helvetica,sans-Serif" font-size="14.00">(DocumentIndexer)</text>
</g>
<!-- Persist&#45;&gt;Embed -->
<g id="edge8" class="edge">
<title>Persist&#45;&gt;Embed</title>
<path fill="none" stroke="#2b6cb0" stroke-width="1.4" d="M1390.06,-139.06C1398.43,-139.41 1406.92,-139.77 1415.36,-140.13"/>
<polygon fill="#2b6cb0" stroke="#2b6cb0" stroke-width="1.4" points="1415,-142.92 1423.12,-140.46 1415.24,-137.32 1415,-142.92"/>
</g>
<!-- Search -->
<g id="node9" class="node">
<title>Search</title>
<polygon fill="#feebc8" stroke="black" points="1864.8,-183.8 1663.2,-183.8 1663.2,-145.8 1864.8,-145.8 1864.8,-183.8"/>
<text xml:space="preserve" text-anchor="middle" x="1764" y="-166.5" font-family="Helvetica,sans-Serif" font-size="14.00">SemanticSearchEngine</text>
<text xml:space="preserve" text-anchor="middle" x="1764" y="-151.5" font-family="Helvetica,sans-Serif" font-size="14.00">retrieval</text>
</g>
<!-- Embed&#45;&gt;Search -->
<g id="edge9" class="edge">
<title>Embed&#45;&gt;Search</title>
<path fill="none" stroke="#2b6cb0" stroke-width="1.4" d="M1627.66,-153.31C1636.03,-154.02 1644.52,-154.74 1652.96,-155.46"/>
<polygon fill="#2b6cb0" stroke="#2b6cb0" stroke-width="1.4" points="1652.51,-158.23 1660.72,-156.12 1652.99,-152.65 1652.51,-158.23"/>
</g>
<!-- LLMHub -->
<g id="node10" class="node">
<title>LLMHub</title>
<polygon fill="#feebc8" stroke="black" points="2102.4,-230.8 1900.8,-230.8 1900.8,-192.8 2102.4,-192.8 2102.4,-230.8"/>
<text xml:space="preserve" text-anchor="middle" x="2001.6" y="-213.5" font-family="Helvetica,sans-Serif" font-size="14.00">LLM Gateway</text>
<text xml:space="preserve" text-anchor="middle" x="2001.6" y="-198.5" font-family="Helvetica,sans-Serif" font-size="14.00">prompts</text>
</g>
<!-- Search&#45;&gt;LLMHub -->
<g id="edge11" class="edge">
<title>Search&#45;&gt;LLMHub</title>
<path fill="none" stroke="#2b6cb0" stroke-width="1.4" d="M1862.53,-184.26C1872.7,-186.28 1883.07,-188.35 1893.34,-190.4"/>
<polygon fill="#2b6cb0" stroke="#2b6cb0" stroke-width="1.4" points="1892.67,-193.12 1901.07,-191.94 1893.77,-187.63 1892.67,-193.12"/>
</g>
<!-- InsightView -->
<g id="node11" class="node">
<title>InsightView</title>
<polygon fill="#ddeafb" stroke="black" points="2340,-230.8 2138.4,-230.8 2138.4,-192.8 2340,-192.8 2340,-230.8"/>
<text xml:space="preserve" text-anchor="middle" x="2239.2" y="-213.5" font-family="Helvetica,sans-Serif" font-size="14.00">Analysis page</text>
<text xml:space="preserve" text-anchor="middle" x="2239.2" y="-198.5" font-family="Helvetica,sans-Serif" font-size="14.00">visualises</text>
</g>
<!-- Search&#45;&gt;InsightView -->
<g id="edge10" class="edge">
<title>Search&#45;&gt;InsightView</title>
<path fill="none" stroke="#2b6cb0" stroke-width="1.4" d="M1865.01,-166.58C1932.34,-168.72 2022.99,-173.43 2102.4,-183.8 2115.75,-185.54 2129.75,-187.86 2143.47,-190.42"/>
<polygon fill="#2b6cb0" stroke="#2b6cb0" stroke-width="1.4" points="2142.94,-193.17 2151.33,-191.92 2143.99,-187.67 2142.94,-193.17"/>
</g>
<!-- LLMHub&#45;&gt;InsightView -->
<g id="edge12" class="edge">
<title>LLMHub&#45;&gt;InsightView</title>
<path fill="none" stroke="#2b6cb0" stroke-width="1.4" d="M2102.86,-211.8C2111.23,-211.8 2119.72,-211.8 2128.16,-211.8"/>
<polygon fill="#2b6cb0" stroke="#2b6cb0" stroke-width="1.4" points="2127.91,-214.6 2135.91,-211.8 2127.91,-209 2127.91,-214.6"/>
</g>
<!-- AnalystFeedback -->
<g id="node12" class="node">
<title>AnalystFeedback</title>
<polygon fill="#e6fffa" stroke="black" points="2581.6,-372.8 2380,-372.8 2380,-334.8 2581.6,-334.8 2581.6,-372.8"/>
<text xml:space="preserve" text-anchor="middle" x="2480.8" y="-355.5" font-family="Helvetica,sans-Serif" font-size="14.00">Collect analyst</text>
<text xml:space="preserve" text-anchor="middle" x="2480.8" y="-340.5" font-family="Helvetica,sans-Serif" font-size="14.00">feedback &amp; tags</text>
</g>
<!-- InsightView&#45;&gt;AnalystFeedback -->
<g id="edge13" class="edge">
<title>InsightView&#45;&gt;AnalystFeedback</title>
<path fill="none" stroke="#2b6cb0" stroke-width="1.4" d="M2257.62,-230.9C2281.79,-256.25 2327.97,-300.74 2376,-325.8 2379.25,-327.5 2382.62,-329.1 2386.06,-330.61"/>
<polygon fill="#2b6cb0" stroke="#2b6cb0" stroke-width="1.4" points="2384.89,-333.16 2393.36,-333.6 2387.02,-327.98 2384.89,-333.16"/>
</g>
<!-- End -->
<g id="node14" class="node">
<title>End</title>
<ellipse fill="#2b6cb0" stroke="black" cx="2480.8" cy="-211.8" rx="100.8" ry="100.8"/>
<ellipse fill="none" stroke="black" cx="2480.8" cy="-211.8" rx="104.8" ry="104.8"/>
<text xml:space="preserve" text-anchor="middle" x="2480.8" y="-206" font-family="Helvetica,sans-Serif" font-size="14.00" fill="white">insights</text>
</g>
<!-- InsightView&#45;&gt;End -->
<g id="edge16" class="edge">
<title>InsightView&#45;&gt;End</title>
<path fill="none" stroke="#2b6cb0" stroke-width="1.4" d="M2340.42,-211.8C2348.81,-211.8 2357.33,-211.8 2365.81,-211.8"/>
<polygon fill="#2b6cb0" stroke="#2b6cb0" stroke-width="1.4" points="2365.62,-214.6 2373.62,-211.8 2365.62,-209 2365.62,-214.6"/>
</g>
<!-- TuneRules -->
<g id="node13" class="node">
<title>TuneRules</title>
<polygon fill="#fff5f7" stroke="black" points="2823.2,-234.8 2621.6,-234.8 2621.6,-196.8 2823.2,-196.8 2823.2,-234.8"/>
<text xml:space="preserve" text-anchor="middle" x="2722.4" y="-217.5" font-family="Helvetica,sans-Serif" font-size="14.00">Tune rules/metrics</text>
<text xml:space="preserve" text-anchor="middle" x="2722.4" y="-202.5" font-family="Helvetica,sans-Serif" font-size="14.00">for next run</text>
</g>
<!-- AnalystFeedback&#45;&gt;TuneRules -->
<g id="edge14" class="edge">
<title>AnalystFeedback&#45;&gt;TuneRules</title>
<path fill="none" stroke="#2b6cb0" stroke-width="1.4" d="M2565.95,-334.38C2572.73,-331.83 2579.37,-328.98 2585.6,-325.8 2628.39,-303.95 2670.21,-267.04 2695.88,-242.06"/>
<polygon fill="#2b6cb0" stroke="#2b6cb0" stroke-width="1.4" points="2697.76,-244.14 2701.49,-236.53 2693.83,-240.15 2697.76,-244.14"/>
</g>
<!-- TuneRules&#45;&gt;LabelCall -->
<g id="edge15" class="edge">
<title>TuneRules&#45;&gt;LabelCall</title>
<path fill="none" stroke="#2b6cb0" stroke-width="1.4" d="M2706.38,-196.36C2683.67,-168.68 2637.7,-118.92 2585.6,-97.8 2443.12,-40.04 2393.94,-78.8 2240.2,-78.8 1525.4,-78.8 1525.4,-78.8 1525.4,-78.8 1400.88,-78.8 1258.15,-86.84 1162.29,-93.42"/>
<polygon fill="#2b6cb0" stroke="#2b6cb0" stroke-width="1.4" points="1162.19,-90.62 1154.4,-93.96 1162.58,-96.2 1162.19,-90.62"/>
</g>
</g>
</svg>
