<svg xmlns="http://www.w3.org/2000/svg" xmlns:xlink="http://www.w3.org/1999/xlink" contentStyleType="text/css" data-diagram-type="ACTIVITY" height="2242.7083px" preserveAspectRatio="none" style="width:3706px;height:2242px;background:#FFFFFF;" version="1.1" viewBox="0 0 3706 2242" width="3706.25px" zoomAndPan="magnify"><title>**Call Analytics System: Audio Processing Activity Diagram**</title><defs><linearGradient id="gwh3w8pnp56ra0" x1="50%" x2="50%" y1="0%" y2="100%"><stop offset="0%" stop-color="#EDF0F2"/><stop offset="100%" stop-color="#E9ECEF"/></linearGradient></defs><g><g class="title" data-source-line="4"><rect fill="none" height="47.168" rx="4.1667" ry="4.1667" style="stroke:#BABDBF;stroke-width:1.0417;" width="697.3857" x="1503.1695" y="20.8333"/><text fill="#2FA4E7" font-family="'Verdana'" font-size="20.8333" font-weight="bold" lengthAdjust="spacing" textLength="674.469" x="1514.6278" y="51.6296">Call Analytics System: Audio Processing Activity Diagram</text></g><rect fill="url(#gwh3w8pnp56ra0)" height="24.9674" style="stroke:url(#gwh3w8pnp56ra0);stroke-width:1.0417;" width="3672.4747" x="15.625" y="80.5013"/><rect fill="#F0F8FF" height="2037.6485" style="stroke:#F0F8FF;stroke-width:1.0417;" width="1068.5893" x="15.625" y="80.5013"/><ellipse cx="576.4641" cy="121.0938" fill="#033C73" rx="10.4167" ry="10.4167" style="stroke:#2683B9;stroke-width:1.0417;"/><rect fill="#ADD8E6" height="37.4674" rx="4.1667" ry="4.1667" style="stroke:#1E90FF;stroke-width:1.0417;" width="177.8422" x="487.543" y="152.3438"/><text fill="#000000" font-family="'Verdana'" font-size="12.5" lengthAdjust="spacing" textLength="154.9255" x="499.0013" y="175.4049">Uploads Audio File via UI</text><rect fill="#F0F8FF" height="516.2598" rx="4.1667" ry="4.1667" style="stroke:#4682B4;stroke-width:1.0417;" width="584.7148" x="200.9104" y="837.6953"/><path d="M317.6819,837.6953 L317.6819,857.7962 L307.2652,868.2129 L200.9104,868.2129" fill="none" style="stroke:#4682B4;stroke-width:1.0417;"/><text fill="#000080" font-family="'Verdana'" font-size="14.5833" lengthAdjust="spacing" textLength="95.9381" x="209.2438" y="857.4819">Transcription</text><rect fill="#ADD8E6" height="37.4674" rx="4.1667" ry="4.1667" style="stroke:#1E90FF;stroke-width:1.0417;" width="260.7768" x="421.2006" y="1303.9876"/><text fill="#000000" font-family="'Verdana'" font-size="12.5" lengthAdjust="spacing" textLength="237.8601" x="432.6589" y="1327.0487">Receives Processing Error Notification</text><rect fill="#F0F8FF" height="630.5501" rx="4.1667" ry="4.1667" style="stroke:#4682B4;stroke-width:1.0417;" width="818.8944" x="21.875" y="1364.3717"/><path d="M210.2102,1364.3717 L210.2102,1384.4727 L199.7935,1394.8893 L21.875,1394.8893" fill="none" style="stroke:#4682B4;stroke-width:1.0417;"/><text fill="#000080" font-family="'Verdana'" font-size="14.5833" lengthAdjust="spacing" textLength="167.5018" x="30.2083" y="1384.1583">Enrichment &amp; Indexing</text><rect fill="#ADD8E6" height="49.5931" rx="4.1667" ry="4.1667" style="stroke:#1E90FF;stroke-width:1.0417;" width="149.9491" x="356.3477" y="1412.5977"/><text fill="#000000" font-family="'Verdana'" font-size="12.5" lengthAdjust="spacing" textLength="127.0325" x="367.806" y="1435.6588">Updates Call Record</text><text fill="#000000" font-family="'Verdana'" font-size="10.4167" lengthAdjust="spacing" textLength="101.3082" x="367.806" y="1448.2758">(status: 'enriching')</text><rect fill="#73A839" height="6.25" rx="2.6042" ry="2.6042" style="stroke:#73A839;stroke-width:1.0417;" width="798.0611" x="32.2917" y="1483.0241"/><rect fill="#ADD8E6" height="37.4674" rx="4.1667" ry="4.1667" style="stroke:#1E90FF;stroke-width:1.0417;" width="202.0549" x="44.7917" y="1510.1074"/><text fill="#000000" font-family="'Verdana'" font-size="12.5" lengthAdjust="spacing" textLength="179.1382" x="56.25" y="1533.1685">Applies Categorization Rules</text><rect fill="#ADD8E6" height="37.4674" rx="4.1667" ry="4.1667" style="stroke:#1E90FF;stroke-width:1.0417;" width="203.2206" x="276.0132" y="1510.1074"/><text fill="#000000" font-family="'Verdana'" font-size="12.5" lengthAdjust="spacing" textLength="180.304" x="287.4715" y="1533.1685">Performs Sentiment Analysis</text><rect fill="#ADD8E6" height="37.4674" rx="4.1667" ry="4.1667" style="stroke:#1E90FF;stroke-width:1.0417;" width="309.4523" x="508.4005" y="1510.1074"/><text fill="#000000" font-family="'Verdana'" font-size="12.5" lengthAdjust="spacing" textLength="286.5356" x="519.8588" y="1533.1685">Masks Personally Identifiable Information (PII)</text><rect fill="#73A839" height="6.25" rx="2.6042" ry="2.6042" style="stroke:#73A839;stroke-width:1.0417;" width="798.0611" x="32.2917" y="1568.4082"/><rect fill="#ADD8E6" height="37.4674" rx="4.1667" ry="4.1667" style="stroke:#1E90FF;stroke-width:1.0417;" width="239.0544" x="311.795" y="1595.4915"/><text fill="#000000" font-family="'Verdana'" font-size="12.5" lengthAdjust="spacing" textLength="216.1377" x="323.2534" y="1618.5527">Generates Text Embedding Vector</text><polygon fill="#ADD8E6" points="331.6193,1653.7923,531.0252,1653.7923,543.5252,1666.2923,531.0252,1678.7923,331.6193,1678.7923,319.1193,1666.2923,331.6193,1653.7923" style="stroke:#1E90FF;stroke-width:1.0417;"/><text fill="#000000" font-family="'Verdana'" font-size="12.5" lengthAdjust="spacing" textLength="188.9893" x="336.8276" y="1670.6197">Embedding Service Available?</text><text fill="#343A40" font-family="'Verdana'" font-size="12.5" lengthAdjust="spacing" textLength="21.6003" x="292.3106" y="1658.136">yes</text><text fill="#343A40" font-family="'Verdana'" font-size="12.5" lengthAdjust="spacing" textLength="15.5701" x="548.7335" y="1658.136">no</text><rect fill="#ADD8E6" height="37.4674" rx="4.1667" ry="4.1667" style="stroke:#1E90FF;stroke-width:1.0417;" width="301.5544" x="127.2186" y="1886.6536"/><text fill="#000000" font-family="'Verdana'" font-size="12.5" lengthAdjust="spacing" textLength="278.6377" x="138.677" y="1909.7148">Receives "Processing Complete" Notification</text><rect fill="#ADD8E6" height="37.4674" rx="4.1667" ry="4.1667" style="stroke:#1E90FF;stroke-width:1.0417;" width="310.8622" x="122.5647" y="1944.9544"/><text fill="#000000" font-family="'Verdana'" font-size="12.5" lengthAdjust="spacing" textLength="287.9456" x="134.023" y="1968.0155">Views Processed Call and Updated Dashboard</text><rect fill="#F08080" height="37.4674" rx="4.1667" ry="4.1667" style="stroke:#1E90FF;stroke-width:1.0417;" width="211.9548" x="478.6713" y="1699.6257"/><text fill="#000000" font-family="'Verdana'" font-size="12.5" lengthAdjust="spacing" textLength="189.0381" x="490.1296" y="1722.6868">Logs Embedding Service Error</text><rect fill="#ADD8E6" height="37.4674" rx="4.1667" ry="4.1667" style="stroke:#1E90FF;stroke-width:1.0417;" width="260.7768" x="454.2603" y="1828.3529"/><text fill="#000000" font-family="'Verdana'" font-size="12.5" lengthAdjust="spacing" textLength="237.8601" x="465.7186" y="1851.414">Receives Processing Error Notification</text><rect fill="#ADD8E6" height="37.4674" rx="4.1667" ry="4.1667" style="stroke:#1E90FF;stroke-width:1.0417;" width="228.8615" x="851.1861" y="590.2832"/><text fill="#000000" font-family="'Verdana'" font-size="12.5" lengthAdjust="spacing" textLength="205.9448" x="862.6444" y="613.3443">Receives "Invalid File" Error in UI</text><ellipse cx="576.4641" cy="2106.6915" fill="none" rx="11.4583" ry="11.4583" style="stroke:#2683B9;stroke-width:1.0417;"/><ellipse cx="576.4641" cy="2106.6915" fill="none" rx="6.25" ry="6.25" style="stroke:#2683B9;stroke-width:1.0417;"/><line style="stroke:#033C73;stroke-width:2.0833;" x1="15.625" x2="15.625" y1="80.5013" y2="2118.1498"/><rect fill="#E6E6FA" height="2037.6485" style="stroke:#E6E6FA;stroke-width:1.0417;" width="438.6759" x="1084.2143" y="80.5013"/><rect fill="#ADD8E6" height="37.4674" rx="4.1667" ry="4.1667" style="stroke:#1E90FF;stroke-width:1.0417;" width="104.7282" x="1140.151" y="210.6445"/><text fill="#000000" font-family="'Verdana'" font-size="12.5" lengthAdjust="spacing" textLength="81.8115" x="1151.6093" y="233.7056">Receives File</text><rect fill="#ADD8E6" height="37.4674" rx="4.1667" ry="4.1667" style="stroke:#1E90FF;stroke-width:1.0417;" width="180.4667" x="1102.2817" y="268.9453"/><text fill="#000000" font-family="'Verdana'" font-size="12.5" lengthAdjust="spacing" textLength="157.55" x="1113.74" y="292.0064">Generates Unique Call ID</text><rect fill="#ADD8E6" height="49.5931" rx="4.1667" ry="4.1667" style="stroke:#1E90FF;stroke-width:1.0417;" width="174.9858" x="1105.0222" y="327.2461"/><text fill="#000000" font-family="'Verdana'" font-size="12.5" lengthAdjust="spacing" textLength="83.6548" x="1116.4805" y="350.3072">Validates File</text><text fill="#000000" font-family="'Verdana'" font-size="10.4167" lengthAdjust="spacing" textLength="152.0691" x="1116.4805" y="362.9242">(Format, Duration, Channels)</text><polygon fill="#ADD8E6" points="1128.7313,397.6725,1256.2988,397.6725,1268.7988,410.1725,1256.2988,422.6725,1128.7313,422.6725,1116.2313,410.1725,1128.7313,397.6725" style="stroke:#1E90FF;stroke-width:1.0417;"/><text fill="#000000" font-family="'Verdana'" font-size="12.5" lengthAdjust="spacing" textLength="117.1509" x="1133.9396" y="414.4999">Validation Passed?</text><text fill="#343A40" font-family="'Verdana'" font-size="12.5" lengthAdjust="spacing" textLength="21.6003" x="1089.4226" y="402.0162">yes</text><text fill="#343A40" font-family="'Verdana'" font-size="12.5" lengthAdjust="spacing" textLength="15.5701" x="1274.0072" y="402.0162">no</text><rect fill="#F08080" height="37.4674" rx="4.1667" ry="4.1667" style="stroke:#1E90FF;stroke-width:1.0417;" width="165.1652" x="1326.7761" y="443.5059"/><text fill="#000000" font-family="'Verdana'" font-size="12.5" lengthAdjust="spacing" textLength="142.2485" x="1338.2345" y="466.567">Logs Validation Failure</text><rect fill="#F08080" height="37.4674" rx="4.1667" ry="4.1667" style="stroke:#1E90FF;stroke-width:1.0417;" width="218.7297" x="1299.9939" y="516.3574"/><text fill="#000000" font-family="'Verdana'" font-size="12.5" lengthAdjust="spacing" textLength="195.813" x="1311.4522" y="539.4185">Rejects File with Error Message</text><polygon fill="#ADD8E6" points="1192.5151,2049.3998,1205.0151,2061.8998,1192.5151,2074.3998,1180.0151,2061.8998,1192.5151,2049.3998" style="stroke:#1E90FF;stroke-width:1.0417;"/><line style="stroke:#033C73;stroke-width:2.0833;" x1="1084.2143" x2="1084.2143" y1="80.5013" y2="2118.1498"/><rect fill="#FFF0F5" height="2037.6485" style="stroke:#FFF0F5;stroke-width:1.0417;" width="410.054" x="1522.8902" y="80.5013"/><rect fill="#DDA0DD" height="37.4674" rx="4.1667" ry="4.1667" style="stroke:#1E90FF;stroke-width:1.0417;" width="256.4372" x="1541.6402" y="616.9596"/><text fill="#000000" font-family="'Verdana'" font-size="12.5" lengthAdjust="spacing" textLength="233.5205" x="1553.0986" y="640.0208">Publishes `CallAudioUploaded` Event</text><rect fill="#F0F8FF" height="630.5501" rx="4.1667" ry="4.1667" style="stroke:#4682B4;stroke-width:1.0417;" width="399.6373" x="1529.1402" y="1364.3717"/><path d="M1717.4754,1364.3717 L1717.4754,1384.4727 L1707.0587,1394.8893 L1529.1402,1394.8893" fill="none" style="stroke:#4682B4;stroke-width:1.0417;"/><text fill="#000080" font-family="'Verdana'" font-size="14.5833" lengthAdjust="spacing" textLength="167.5018" x="1537.4736" y="1384.1583">Enrichment &amp; Indexing</text><rect fill="#DDA0DD" height="37.4674" rx="4.1667" ry="4.1667" style="stroke:#1E90FF;stroke-width:1.0417;" width="265.6352" x="1650.6424" y="1828.3529"/><text fill="#000000" font-family="'Verdana'" font-size="12.5" lengthAdjust="spacing" textLength="242.7185" x="1662.1007" y="1851.414">Publishes `ProcessingComplete` Event</text><line style="stroke:#033C73;stroke-width:2.0833;" x1="1522.8902" x2="1522.8902" y1="80.5013" y2="2118.1498"/><rect fill="#F5F5DC" height="2037.6485" style="stroke:#F5F5DC;stroke-width:1.0417;" width="923.2986" x="1932.9442" y="80.5013"/><rect fill="#ADD8E6" height="37.4674" rx="4.1667" ry="4.1667" style="stroke:#1E90FF;stroke-width:1.0417;" width="262.5712" x="2099.56" y="675.2604"/><text fill="#000000" font-family="'Verdana'" font-size="12.5" lengthAdjust="spacing" textLength="239.6545" x="2111.0184" y="698.3215">Consumes `CallAudioUploaded` Event</text><rect fill="#ADD8E6" height="37.4674" rx="4.1667" ry="4.1667" style="stroke:#1E90FF;stroke-width:1.0417;" width="206.9865" x="2127.3524" y="733.5612"/><text fill="#000000" font-family="'Verdana'" font-size="12.5" lengthAdjust="spacing" textLength="184.0698" x="2138.8107" y="756.6223">Checks for Cached Transcript</text><polygon fill="#ADD8E6" points="2192.01,791.862,2269.6813,791.862,2282.1813,804.362,2269.6813,816.862,2192.01,816.862,2179.51,804.362,2192.01,791.862" style="stroke:#1E90FF;stroke-width:1.0417;"/><text fill="#000000" font-family="'Verdana'" font-size="12.5" lengthAdjust="spacing" textLength="67.2546" x="2197.2183" y="808.6894">Cache Hit?</text><text fill="#343A40" font-family="'Verdana'" font-size="12.5" lengthAdjust="spacing" textLength="21.6003" x="2152.7013" y="796.2056">yes</text><text fill="#343A40" font-family="'Verdana'" font-size="12.5" lengthAdjust="spacing" textLength="15.5701" x="2287.3896" y="796.2056">no</text><rect fill="#ADD8E6" height="49.5931" rx="4.1667" ry="4.1667" style="stroke:#1E90FF;stroke-width:1.0417;" width="149.9491" x="1939.1942" y="911.6211"/><text fill="#000000" font-family="'Verdana'" font-size="12.5" lengthAdjust="spacing" textLength="127.0325" x="1950.6526" y="934.6822">Updates Call Record</text><text fill="#000000" font-family="'Verdana'" font-size="10.4167" lengthAdjust="spacing" textLength="111.9995" x="1950.6526" y="947.2992">(status: 'transcribed')</text><rect fill="#F0F8FF" height="516.2598" rx="4.1667" ry="4.1667" style="stroke:#4682B4;stroke-width:1.0417;" width="584.7148" x="2267.3615" y="837.6953"/><path d="M2384.1329,837.6953 L2384.1329,857.7962 L2373.7162,868.2129 L2267.3615,868.2129" fill="none" style="stroke:#4682B4;stroke-width:1.0417;"/><text fill="#000080" font-family="'Verdana'" font-size="14.5833" lengthAdjust="spacing" textLength="95.9381" x="2275.6948" y="857.4819">Transcription</text><rect fill="#ADD8E6" height="49.5931" rx="4.1667" ry="4.1667" style="stroke:#1E90FF;stroke-width:1.0417;" width="149.9491" x="2422.7987" y="885.9212"/><text fill="#000000" font-family="'Verdana'" font-size="12.5" lengthAdjust="spacing" textLength="127.0325" x="2434.257" y="908.9823">Updates Call Record</text><text fill="#000000" font-family="'Verdana'" font-size="10.4167" lengthAdjust="spacing" textLength="115.0869" x="2434.257" y="921.5993">(status: 'transcribing')</text><rect fill="#ADD8E6" height="49.5931" rx="4.1667" ry="4.1667" style="stroke:#1E90FF;stroke-width:1.0417;" width="173.8007" x="2410.8729" y="971.9727"/><text fill="#000000" font-family="'Verdana'" font-size="12.5" lengthAdjust="spacing" textLength="126.8921" x="2422.3312" y="995.0338">Pre-processes Audio</text><text fill="#000000" font-family="'Verdana'" font-size="10.4167" lengthAdjust="spacing" textLength="150.884" x="2422.3312" y="1007.6508">(resample, mono, normalize)</text><path d="M2657.6284,1031.9824 L2657.6284,1060.0586 L2636.795,1064.2253 L2657.6284,1068.3919 L2657.6284,1096.4681 A0,0 0 0 0 2657.6284,1096.4681 L2841.6595,1096.4681 A0,0 0 0 0 2841.6595,1096.4681 L2841.6595,1042.3991 L2831.2429,1031.9824 L2657.6284,1031.9824 A0,0 0 0 0 2657.6284,1031.9824" fill="#FFFFE0" style="stroke:#BDB76B;stroke-width:1.0417;"/><path d="M2831.2429,1031.9824 L2831.2429,1042.3991 L2841.6595,1042.3991 L2831.2429,1031.9824" fill="#FFFFE0" style="stroke:#BDB76B;stroke-width:1.0417;"/><text fill="#033C73" font-family="'Verdana'" font-size="12.5" lengthAdjust="spacing" textLength="118.335" x="2669.0867" y="1054.0019">- VAD filter applied</text><text fill="#033C73" font-family="'Verdana'" font-size="12.5" lengthAdjust="spacing" textLength="151.7395" x="2669.0867" y="1068.5527">- Beam search decoding</text><text fill="#033C73" font-family="'Verdana'" font-size="12.5" lengthAdjust="spacing" textLength="128.241" x="2669.0867" y="1083.1034">- Confidence scoring</text><rect fill="#ADD8E6" height="37.4674" rx="4.1667" ry="4.1667" style="stroke:#1E90FF;stroke-width:1.0417;" width="278.0436" x="2358.7514" y="1045.4915"/><text fill="#000000" font-family="'Verdana'" font-size="12.5" lengthAdjust="spacing" textLength="255.127" x="2370.2098" y="1068.5527">Performs Transcription with Whisper STT</text><polygon fill="#ADD8E6" points="2413.088,1117.3014,2582.4585,1117.3014,2594.9585,1129.8014,2582.4585,1142.3014,2413.088,1142.3014,2400.588,1129.8014,2413.088,1117.3014" style="stroke:#1E90FF;stroke-width:1.0417;"/><text fill="#000000" font-family="'Verdana'" font-size="12.5" lengthAdjust="spacing" textLength="158.9539" x="2418.2963" y="1134.1288">Transcription Successful?</text><text fill="#343A40" font-family="'Verdana'" font-size="12.5" lengthAdjust="spacing" textLength="21.6003" x="2373.7793" y="1121.6451">yes</text><text fill="#343A40" font-family="'Verdana'" font-size="12.5" lengthAdjust="spacing" textLength="15.5701" x="2600.1668" y="1121.6451">no</text><rect fill="#ADD8E6" height="49.5931" rx="4.1667" ry="4.1667" style="stroke:#1E90FF;stroke-width:1.0417;" width="149.9491" x="2302.5319" y="1291.862"/><text fill="#000000" font-family="'Verdana'" font-size="12.5" lengthAdjust="spacing" textLength="127.0325" x="2313.9903" y="1314.9231">Updates Call Record</text><text fill="#000000" font-family="'Verdana'" font-size="10.4167" lengthAdjust="spacing" textLength="111.9995" x="2313.9903" y="1327.5401">(status: 'transcribed')</text><rect fill="#F08080" height="37.4674" rx="4.1667" ry="4.1667" style="stroke:#1E90FF;stroke-width:1.0417;" width="173.1181" x="2531.4809" y="1163.1348"/><text fill="#000000" font-family="'Verdana'" font-size="12.5" lengthAdjust="spacing" textLength="150.2014" x="2542.9392" y="1186.1959">Logs Transcription Error</text><polygon fill="#ADD8E6" points="2230.8456,2013.9832,2243.3456,2026.4832,2230.8456,2038.9832,2218.3456,2026.4832,2230.8456,2013.9832" style="stroke:#1E90FF;stroke-width:1.0417;"/><text fill="#343A40" font-family="'Verdana'" font-size="12.5" lengthAdjust="spacing" textLength="71.9177" x="2141.2196" y="2018.3268">Enrichment</text><line style="stroke:#033C73;stroke-width:2.0833;" x1="1932.9442" x2="1932.9442" y1="80.5013" y2="2118.1498"/><rect fill="#FAFAD2" height="2037.6485" style="stroke:#FAFAD2;stroke-width:1.0417;" width="825.7034" x="2856.2429" y="80.5013"/><rect fill="#90EE90" height="52.0182" rx="4.1667" ry="4.1667" style="stroke:#1E90FF;stroke-width:1.0417;" width="146.6777" x="3107.5785" y="443.5059"/><text fill="#000000" font-family="'Verdana'" font-size="12.5" lengthAdjust="spacing" textLength="123.761" x="3119.0369" y="466.567">Saves Raw Audio to</text><text fill="#000000" font-family="'Verdana'" font-size="12.5" lengthAdjust="spacing" textLength="74.707" x="3119.0369" y="481.1178">File Storage</text><rect fill="#90EE90" height="49.5931" rx="4.1667" ry="4.1667" style="stroke:#1E90FF;stroke-width:1.0417;" width="185.0505" x="3088.3921" y="530.9082"/><text fill="#000000" font-family="'Verdana'" font-size="12.5" lengthAdjust="spacing" textLength="162.1338" x="3099.8505" y="553.9693">Creates Initial Call Record</text><text fill="#000000" font-family="'Verdana'" font-size="10.4167" lengthAdjust="spacing" textLength="91.9291" x="3099.8505" y="566.5863">(status: 'queued')</text><rect fill="#ADD8E6" height="37.4674" rx="4.1667" ry="4.1667" style="stroke:#1E90FF;stroke-width:1.0417;" width="202.9826" x="2862.4929" y="837.6953"/><text fill="#000000" font-family="'Verdana'" font-size="12.5" lengthAdjust="spacing" textLength="180.0659" x="2873.9512" y="860.7564">Loads Transcript from Cache</text><rect fill="#F0F8FF" height="516.2598" rx="4.1667" ry="4.1667" style="stroke:#4682B4;stroke-width:1.0417;" width="447.8465" x="3217.4332" y="837.6953"/><path d="M3334.2046,837.6953 L3334.2046,857.7962 L3323.7879,868.2129 L3217.4332,868.2129" fill="none" style="stroke:#4682B4;stroke-width:1.0417;"/><text fill="#000080" font-family="'Verdana'" font-size="14.5833" lengthAdjust="spacing" textLength="95.9381" x="3225.7665" y="857.4819">Transcription</text><rect fill="#90EE90" height="37.4674" rx="4.1667" ry="4.1667" style="stroke:#1E90FF;stroke-width:1.0417;" width="153.0741" x="3251.0412" y="1163.1348"/><text fill="#000000" font-family="'Verdana'" font-size="12.5" lengthAdjust="spacing" textLength="130.1575" x="3262.4995" y="1186.1959">Saves Transcript File</text><rect fill="#90EE90" height="37.4674" rx="4.1667" ry="4.1667" style="stroke:#1E90FF;stroke-width:1.0417;" width="178.6235" x="3238.2665" y="1221.4355"/><text fill="#000000" font-family="'Verdana'" font-size="12.5" lengthAdjust="spacing" textLength="155.7068" x="3249.7248" y="1244.4967">Caches Transcript Result</text><rect fill="#F08080" height="49.5931" rx="4.1667" ry="4.1667" style="stroke:#1E90FF;stroke-width:1.0417;" width="175.9165" x="3447.0484" y="1221.4355"/><text fill="#000000" font-family="'Verdana'" font-size="12.5" lengthAdjust="spacing" textLength="127.0325" x="3458.5068" y="1244.4967">Updates Call Record</text><text fill="#000000" font-family="'Verdana'" font-size="10.4167" lengthAdjust="spacing" textLength="152.9999" x="3458.5068" y="1257.1136">(status: 'failed_transcription')</text><rect fill="#F0F8FF" height="630.5501" rx="4.1667" ry="4.1667" style="stroke:#4682B4;stroke-width:1.0417;" width="601.8875" x="3075.8921" y="1364.3717"/><path d="M3264.2273,1364.3717 L3264.2273,1384.4727 L3253.8106,1394.8893 L3075.8921,1394.8893" fill="none" style="stroke:#4682B4;stroke-width:1.0417;"/><text fill="#000080" font-family="'Verdana'" font-size="14.5833" lengthAdjust="spacing" textLength="167.5018" x="3084.2255" y="1384.1583">Enrichment &amp; Indexing</text><rect fill="#ADD8E6" height="37.4674" rx="4.1667" ry="4.1667" style="stroke:#1E90FF;stroke-width:1.0417;" width="284.2265" x="3152.4053" y="1699.6257"/><text fill="#000000" font-family="'Verdana'" font-size="12.5" lengthAdjust="spacing" textLength="261.3098" x="3163.8636" y="1722.6868">Indexes Transcript &amp; Vector in ChromaDB</text><rect fill="#ADD8E6" height="49.5931" rx="4.1667" ry="4.1667" style="stroke:#1E90FF;stroke-width:1.0417;" width="282.3161" x="3153.3605" y="1757.9264"/><text fill="#000000" font-family="'Verdana'" font-size="12.5" lengthAdjust="spacing" textLength="259.3994" x="3164.8188" y="1780.9875">Updates Call Record with All Enrichments</text><text fill="#000000" font-family="'Verdana'" font-size="10.4167" lengthAdjust="spacing" textLength="107.9508" x="3164.8188" y="1793.6045">(status: 'completed')</text><rect fill="#F08080" height="49.5931" rx="4.1667" ry="4.1667" style="stroke:#1E90FF;stroke-width:1.0417;" width="169.4265" x="3483.3532" y="1757.9264"/><text fill="#000000" font-family="'Verdana'" font-size="12.5" lengthAdjust="spacing" textLength="127.0325" x="3494.8115" y="1780.9875">Updates Call Record</text><text fill="#000000" font-family="'Verdana'" font-size="10.4167" lengthAdjust="spacing" textLength="146.5098" x="3494.8115" y="1793.6045">(status: 'failed_enrichment')</text><line style="stroke:#033C73;stroke-width:2.0833;" x1="2856.2429" x2="2856.2429" y1="80.5013" y2="2118.1498"/><line style="stroke:#033C73;stroke-width:2.0833;" x1="3681.9463" x2="3681.9463" y1="80.5013" y2="2118.1498"/><line style="stroke:#00008B;stroke-width:1.5625;" x1="576.4641" x2="576.4641" y1="131.5104" y2="152.3438"/><polygon fill="#00008B" points="572.2974,141.9271,576.4641,152.3438,580.6307,141.9271,576.4641,146.0938" style="stroke:#00008B;stroke-width:1.0417;"/><line style="stroke:#00008B;stroke-width:1.5625;" x1="145.8191" x2="145.8191" y1="1489.2741" y2="1510.1074"/><polygon fill="#00008B" points="141.6524,1499.6908,145.8191,1510.1074,149.9858,1499.6908,145.8191,1503.8574" style="stroke:#00008B;stroke-width:1.0417;"/><line style="stroke:#00008B;stroke-width:1.5625;" x1="377.6235" x2="377.6235" y1="1489.2741" y2="1510.1074"/><polygon fill="#00008B" points="373.4568,1499.6908,377.6235,1510.1074,381.7902,1499.6908,377.6235,1503.8574" style="stroke:#00008B;stroke-width:1.0417;"/><line style="stroke:#00008B;stroke-width:1.5625;" x1="663.1266" x2="663.1266" y1="1489.2741" y2="1510.1074"/><polygon fill="#00008B" points="658.96,1499.6908,663.1266,1510.1074,667.2933,1499.6908,663.1266,1503.8574" style="stroke:#00008B;stroke-width:1.0417;"/><line style="stroke:#00008B;stroke-width:1.5625;" x1="145.8191" x2="145.8191" y1="1547.5749" y2="1568.4082"/><polygon fill="#00008B" points="141.6524,1557.9915,145.8191,1568.4082,149.9858,1557.9915,145.8191,1562.1582" style="stroke:#00008B;stroke-width:1.0417;"/><line style="stroke:#00008B;stroke-width:1.5625;" x1="377.6235" x2="377.6235" y1="1547.5749" y2="1568.4082"/><polygon fill="#00008B" points="373.4568,1557.9915,377.6235,1568.4082,381.7902,1557.9915,377.6235,1562.1582" style="stroke:#00008B;stroke-width:1.0417;"/><line style="stroke:#00008B;stroke-width:1.5625;" x1="663.1266" x2="663.1266" y1="1547.5749" y2="1568.4082"/><polygon fill="#00008B" points="658.96,1557.9915,663.1266,1568.4082,667.2933,1557.9915,663.1266,1562.1582" style="stroke:#00008B;stroke-width:1.0417;"/><line style="stroke:#00008B;stroke-width:1.5625;" x1="431.3222" x2="431.3222" y1="1462.1908" y2="1483.0241"/><polygon fill="#00008B" points="427.1556,1472.6074,431.3222,1483.0241,435.4889,1472.6074,431.3222,1476.7741" style="stroke:#00008B;stroke-width:1.0417;"/><line style="stroke:#00008B;stroke-width:1.5625;" x1="431.3222" x2="431.3222" y1="1574.6582" y2="1595.4915"/><polygon fill="#00008B" points="427.1556,1585.0749,431.3222,1595.4915,435.4889,1585.0749,431.3222,1589.2415" style="stroke:#00008B;stroke-width:1.0417;"/><line style="stroke:#00008B;stroke-width:1.5625;" x1="277.9958" x2="277.9958" y1="1924.1211" y2="1944.9544"/><polygon fill="#00008B" points="273.8291,1934.5378,277.9958,1944.9544,282.1625,1934.5378,277.9958,1938.7044" style="stroke:#00008B;stroke-width:1.0417;"/><line style="stroke:#00008B;stroke-width:1.5625;" x1="543.5252" x2="584.6486" y1="1666.2923" y2="1666.2923"/><line style="stroke:#00008B;stroke-width:1.5625;" x1="584.6486" x2="584.6486" y1="1666.2923" y2="1699.6257"/><polygon fill="#00008B" points="580.482,1689.209,584.6486,1699.6257,588.8153,1689.209,584.6486,1693.3757" style="stroke:#00008B;stroke-width:1.0417;"/><line style="stroke:#00008B;stroke-width:1.5625;" x1="277.9958" x2="277.9958" y1="1982.4219" y2="2007.7332"/><line style="stroke:#00008B;stroke-width:1.5625;" x1="277.9958" x2="2262.0956" y1="2007.7332" y2="2007.7332"/><line style="stroke:#00008B;stroke-width:1.5625;" x1="2262.0956" x2="2262.0956" y1="2007.7332" y2="2026.4832"/><line style="stroke:#00008B;stroke-width:1.5625;" x1="2262.0956" x2="2243.3456" y1="2026.4832" y2="2026.4832"/><polygon fill="#00008B" points="2253.7623,2022.3165,2243.3456,2026.4832,2253.7623,2030.6498,2249.5956,2026.4832" style="stroke:#00008B;stroke-width:1.0417;"/><line style="stroke:#00008B;stroke-width:1.5625;" x1="431.3222" x2="431.3222" y1="1632.959" y2="1653.7923"/><polygon fill="#00008B" points="427.1556,1643.3757,431.3222,1653.7923,435.4889,1643.3757,431.3222,1647.5423" style="stroke:#00008B;stroke-width:1.0417;"/><line style="stroke:#00008B;stroke-width:1.5625;" x1="2497.7732" x2="2497.7732" y1="1346.6634" y2="1359.1634"/><line style="stroke:#00008B;stroke-width:1.5625;" x1="2497.7732" x2="431.3222" y1="1359.1634" y2="1359.1634"/><line style="stroke:#00008B;stroke-width:1.5625;" x1="431.3222" x2="431.3222" y1="1359.1634" y2="1412.5977"/><polygon fill="#00008B" points="427.1556,1402.181,431.3222,1412.5977,435.4889,1402.181,431.3222,1406.3477" style="stroke:#00008B;stroke-width:1.0417;"/><line style="stroke:#00008B;stroke-width:1.5625;" x1="1192.5151" x2="1192.5151" y1="248.112" y2="268.9453"/><polygon fill="#00008B" points="1188.3484,258.5286,1192.5151,268.9453,1196.6817,258.5286,1192.5151,262.6953" style="stroke:#00008B;stroke-width:1.0417;"/><line style="stroke:#00008B;stroke-width:1.5625;" x1="1192.5151" x2="1192.5151" y1="306.4128" y2="327.2461"/><polygon fill="#00008B" points="1188.3484,316.8294,1192.5151,327.2461,1196.6817,316.8294,1192.5151,320.9961" style="stroke:#00008B;stroke-width:1.0417;"/><line style="stroke:#00008B;stroke-width:1.5625;" x1="1409.3587" x2="1409.3587" y1="480.9733" y2="516.3574"/><polygon fill="#00008B" points="1405.1921,505.9408,1409.3587,516.3574,1413.5254,505.9408,1409.3587,510.1074" style="stroke:#00008B;stroke-width:1.0417;"/><line style="stroke:#00008B;stroke-width:1.5625;" x1="1268.7988" x2="1409.3587" y1="410.1725" y2="410.1725"/><line style="stroke:#00008B;stroke-width:1.5625;" x1="1409.3587" x2="1409.3587" y1="410.1725" y2="443.5059"/><polygon fill="#00008B" points="1405.1921,433.0892,1409.3587,443.5059,1413.5254,433.0892,1409.3587,437.2559" style="stroke:#00008B;stroke-width:1.0417;"/><line style="stroke:#00008B;stroke-width:1.5625;" x1="1192.5151" x2="1192.5151" y1="376.8392" y2="397.6725"/><polygon fill="#00008B" points="1188.3484,387.2559,1192.5151,397.6725,1196.6817,387.2559,1192.5151,391.4225" style="stroke:#00008B;stroke-width:1.0417;"/><line style="stroke:#00008B;stroke-width:1.5625;" x1="2230.8456" x2="2230.8456" y1="712.7279" y2="733.5612"/><polygon fill="#00008B" points="2226.679,723.1445,2230.8456,733.5612,2235.0123,723.1445,2230.8456,727.3112" style="stroke:#00008B;stroke-width:1.0417;"/><line style="stroke:#00008B;stroke-width:1.5625;" x1="2497.7732" x2="2497.7732" y1="935.5143" y2="971.9727"/><polygon fill="#00008B" points="2493.6066,961.556,2497.7732,971.9727,2501.9399,961.556,2497.7732,965.7227" style="stroke:#00008B;stroke-width:1.0417;"/><line style="stroke:#00008B;stroke-width:1.5625;" x1="2497.7732" x2="2497.7732" y1="1021.5658" y2="1045.4915"/><polygon fill="#00008B" points="2493.6066,1035.0749,2497.7732,1045.4915,2501.9399,1035.0749,2497.7732,1039.2415" style="stroke:#00008B;stroke-width:1.0417;"/><line style="stroke:#00008B;stroke-width:1.5625;" x1="2594.9585" x2="2618.04" y1="1129.8014" y2="1129.8014"/><line style="stroke:#00008B;stroke-width:1.5625;" x1="2618.04" x2="2618.04" y1="1129.8014" y2="1163.1348"/><polygon fill="#00008B" points="2613.8733,1152.7181,2618.04,1163.1348,2622.2066,1152.7181,2618.04,1156.8848" style="stroke:#00008B;stroke-width:1.0417;"/><line style="stroke:#00008B;stroke-width:1.5625;" x1="2377.5065" x2="2377.5065" y1="1341.4551" y2="1346.6634"/><line style="stroke:#00008B;stroke-width:1.5625;" x1="2377.5065" x2="2497.7732" y1="1346.6634" y2="1346.6634"/><line style="stroke:#00008B;stroke-width:1.5625;" x1="2497.7732" x2="2497.7732" y1="1082.959" y2="1117.3014"/><polygon fill="#00008B" points="2493.6066,1106.8848,2497.7732,1117.3014,2501.9399,1106.8848,2497.7732,1111.0514" style="stroke:#00008B;stroke-width:1.0417;"/><line style="stroke:#00008B;stroke-width:1.5625;" x1="2282.1813" x2="2497.7732" y1="804.362" y2="804.362"/><line style="stroke:#00008B;stroke-width:1.5625;" x1="2497.7732" x2="2497.7732" y1="804.362" y2="885.9212"/><polygon fill="#00008B" points="2493.6066,875.5046,2497.7732,885.9212,2501.9399,875.5046,2497.7732,879.6712" style="stroke:#00008B;stroke-width:1.0417;"/><line style="stroke:#00008B;stroke-width:1.5625;" x1="2014.1688" x2="2014.1688" y1="961.2142" y2="2026.4832"/><line style="stroke:#00008B;stroke-width:1.5625;" x1="2014.1688" x2="2218.3456" y1="2026.4832" y2="2026.4832"/><polygon fill="#00008B" points="2207.929,2022.3165,2218.3456,2026.4832,2207.929,2030.6498,2212.0956,2026.4832" style="stroke:#00008B;stroke-width:1.0417;"/><line style="stroke:#00008B;stroke-width:1.5625;" x1="2230.8456" x2="2230.8456" y1="771.0286" y2="791.862"/><polygon fill="#00008B" points="2226.679,781.4453,2230.8456,791.862,2235.0123,781.4453,2230.8456,785.612" style="stroke:#00008B;stroke-width:1.0417;"/><line style="stroke:#00008B;stroke-width:1.5625;" x1="3180.9174" x2="3180.9174" y1="495.5241" y2="530.9082"/><polygon fill="#00008B" points="3176.7507,520.4915,3180.9174,530.9082,3185.084,520.4915,3180.9174,524.6582" style="stroke:#00008B;stroke-width:1.0417;"/><line style="stroke:#00008B;stroke-width:1.5625;" x1="3327.5782" x2="3327.5782" y1="1200.6022" y2="1221.4355"/><polygon fill="#00008B" points="3323.4116,1211.0189,3327.5782,1221.4355,3331.7449,1211.0189,3327.5782,1215.1855" style="stroke:#00008B;stroke-width:1.0417;"/><line style="stroke:#00008B;stroke-width:1.5625;" x1="3294.5185" x2="3294.5185" y1="1737.0931" y2="1757.9264"/><polygon fill="#00008B" points="3290.3519,1747.5098,3294.5185,1757.9264,3298.6852,1747.5098,3294.5185,1751.6764" style="stroke:#00008B;stroke-width:1.0417;"/><line style="stroke:#00008B;stroke-width:1.5625;" x1="576.4641" x2="576.4641" y1="189.8112" y2="195.0195"/><line style="stroke:#00008B;stroke-width:1.5625;" x1="576.4641" x2="1192.5151" y1="195.0195" y2="195.0195"/><line style="stroke:#00008B;stroke-width:1.5625;" x1="1192.5151" x2="1192.5151" y1="195.0195" y2="210.6445"/><polygon fill="#00008B" points="1188.3484,200.2279,1192.5151,210.6445,1196.6817,200.2279,1192.5151,204.3945" style="stroke:#00008B;stroke-width:1.0417;"/><line style="stroke:#00008B;stroke-width:1.5625;" x1="3180.9174" x2="3180.9174" y1="580.5013" y2="598.7305"/><line style="stroke:#00008B;stroke-width:1.5625;" x1="3180.9174" x2="1669.8588" y1="598.7305" y2="598.7305"/><line style="stroke:#00008B;stroke-width:1.5625;" x1="1669.8588" x2="1669.8588" y1="598.7305" y2="616.9596"/><polygon fill="#00008B" points="1665.6921,606.543,1669.8588,616.9596,1674.0255,606.543,1669.8588,610.7096" style="stroke:#00008B;stroke-width:1.0417;"/><line style="stroke:#00008B;stroke-width:1.5625;" x1="1669.8588" x2="1669.8588" y1="654.4271" y2="659.6354"/><line style="stroke:#00008B;stroke-width:1.5625;" x1="1669.8588" x2="2230.8456" y1="659.6354" y2="659.6354"/><line style="stroke:#00008B;stroke-width:1.5625;" x1="2230.8456" x2="2230.8456" y1="659.6354" y2="675.2604"/><polygon fill="#00008B" points="2226.679,664.8438,2230.8456,675.2604,2235.0123,664.8438,2230.8456,669.0104" style="stroke:#00008B;stroke-width:1.0417;"/><line style="stroke:#00008B;stroke-width:1.5625;" x1="2963.9842" x2="2963.9842" y1="875.1628" y2="893.3919"/><line style="stroke:#00008B;stroke-width:1.5625;" x1="2963.9842" x2="2014.1688" y1="893.3919" y2="893.3919"/><line style="stroke:#00008B;stroke-width:1.5625;" x1="2014.1688" x2="2014.1688" y1="893.3919" y2="911.6211"/><polygon fill="#00008B" points="2010.0021,901.2044,2014.1688,911.6211,2018.3355,901.2044,2014.1688,905.3711" style="stroke:#00008B;stroke-width:1.0417;"/><line style="stroke:#00008B;stroke-width:1.5625;" x1="3327.5782" x2="3327.5782" y1="1258.903" y2="1276.237"/><line style="stroke:#00008B;stroke-width:1.5625;" x1="3327.5782" x2="2377.5065" y1="1276.237" y2="1276.237"/><line style="stroke:#00008B;stroke-width:1.5625;" x1="2377.5065" x2="2377.5065" y1="1276.237" y2="1291.862"/><polygon fill="#00008B" points="2373.3398,1281.4453,2377.5065,1291.862,2381.6732,1281.4453,2377.5065,1285.612" style="stroke:#00008B;stroke-width:1.0417;"/><line style="stroke:#00008B;stroke-width:1.5625;" x1="2618.04" x2="2618.04" y1="1200.6022" y2="1205.8105"/><line style="stroke:#00008B;stroke-width:1.5625;" x1="2618.04" x2="3535.0067" y1="1205.8105" y2="1205.8105"/><line style="stroke:#00008B;stroke-width:1.5625;" x1="3535.0067" x2="3535.0067" y1="1205.8105" y2="1221.4355"/><polygon fill="#00008B" points="3530.84,1211.0189,3535.0067,1221.4355,3539.1734,1211.0189,3535.0067,1215.1855" style="stroke:#00008B;stroke-width:1.0417;"/><line style="stroke:#00008B;stroke-width:1.5625;" x1="3535.0067" x2="3535.0067" y1="1271.0286" y2="1285.7585"/><line style="stroke:#00008B;stroke-width:1.5625;" x1="3535.0067" x2="551.5889" y1="1285.7585" y2="1285.7585"/><line style="stroke:#00008B;stroke-width:1.5625;" x1="551.5889" x2="551.5889" y1="1285.7585" y2="1303.9876"/><polygon fill="#00008B" points="547.4223,1293.571,551.5889,1303.9876,555.7556,1293.571,551.5889,1297.7376" style="stroke:#00008B;stroke-width:1.0417;"/><line style="stroke:#00008B;stroke-width:1.5625;" x1="2400.588" x2="2388.088" y1="1129.8014" y2="1129.8014"/><line style="stroke:#00008B;stroke-width:1.5625;" x1="2388.088" x2="2388.088" y1="1129.8014" y2="1148.5514"/><line style="stroke:#00008B;stroke-width:1.5625;" x1="2388.088" x2="3327.5782" y1="1148.5514" y2="1148.5514"/><line style="stroke:#00008B;stroke-width:1.5625;" x1="3327.5782" x2="3327.5782" y1="1148.5514" y2="1163.1348"/><polygon fill="#00008B" points="3323.4116,1152.7181,3327.5782,1163.1348,3331.7449,1152.7181,3327.5782,1156.8848" style="stroke:#00008B;stroke-width:1.0417;"/><line style="stroke:#00008B;stroke-width:1.5625;" x1="3294.5185" x2="3294.5185" y1="1807.5195" y2="1812.7279"/><line style="stroke:#00008B;stroke-width:1.5625;" x1="3294.5185" x2="1783.46" y1="1812.7279" y2="1812.7279"/><line style="stroke:#00008B;stroke-width:1.5625;" x1="1783.46" x2="1783.46" y1="1812.7279" y2="1828.3529"/><polygon fill="#00008B" points="1779.2933,1817.9362,1783.46,1828.3529,1787.6266,1817.9362,1783.46,1822.1029" style="stroke:#00008B;stroke-width:1.0417;"/><line style="stroke:#00008B;stroke-width:1.5625;" x1="1783.46" x2="1783.46" y1="1865.8203" y2="1871.0286"/><line style="stroke:#00008B;stroke-width:1.5625;" x1="1783.46" x2="277.9958" y1="1871.0286" y2="1871.0286"/><line style="stroke:#00008B;stroke-width:1.5625;" x1="277.9958" x2="277.9958" y1="1871.0286" y2="1886.6536"/><polygon fill="#00008B" points="273.8291,1876.237,277.9958,1886.6536,282.1625,1876.237,277.9958,1880.4036" style="stroke:#00008B;stroke-width:1.0417;"/><line style="stroke:#00008B;stroke-width:1.5625;" x1="584.6486" x2="584.6486" y1="1737.0931" y2="1742.3014"/><line style="stroke:#00008B;stroke-width:1.5625;" x1="584.6486" x2="3568.0664" y1="1742.3014" y2="1742.3014"/><line style="stroke:#00008B;stroke-width:1.5625;" x1="3568.0664" x2="3568.0664" y1="1742.3014" y2="1757.9264"/><polygon fill="#00008B" points="3563.8997,1747.5098,3568.0664,1757.9264,3572.2331,1747.5098,3568.0664,1751.6764" style="stroke:#00008B;stroke-width:1.0417;"/><line style="stroke:#00008B;stroke-width:1.5625;" x1="3568.0664" x2="3568.0664" y1="1807.5195" y2="1812.7279"/><line style="stroke:#00008B;stroke-width:1.5625;" x1="3568.0664" x2="584.6486" y1="1812.7279" y2="1812.7279"/><line style="stroke:#00008B;stroke-width:1.5625;" x1="584.6486" x2="584.6486" y1="1812.7279" y2="1828.3529"/><polygon fill="#00008B" points="580.482,1817.9362,584.6486,1828.3529,588.8153,1817.9362,584.6486,1822.1029" style="stroke:#00008B;stroke-width:1.0417;"/><line style="stroke:#00008B;stroke-width:1.5625;" x1="319.1193" x2="306.6193" y1="1666.2923" y2="1666.2923"/><line style="stroke:#00008B;stroke-width:1.5625;" x1="306.6193" x2="306.6193" y1="1666.2923" y2="1685.0423"/><line style="stroke:#00008B;stroke-width:1.5625;" x1="306.6193" x2="3294.5185" y1="1685.0423" y2="1685.0423"/><line style="stroke:#00008B;stroke-width:1.5625;" x1="3294.5185" x2="3294.5185" y1="1685.0423" y2="1699.6257"/><polygon fill="#00008B" points="3290.3519,1689.209,3294.5185,1699.6257,3298.6852,1689.209,3294.5185,1693.3757" style="stroke:#00008B;stroke-width:1.0417;"/><line style="stroke:#00008B;stroke-width:1.5625;" x1="2179.51" x2="2167.01" y1="804.362" y2="804.362"/><line style="stroke:#00008B;stroke-width:1.5625;" x1="2167.01" x2="2167.01" y1="804.362" y2="823.112"/><line style="stroke:#00008B;stroke-width:1.5625;" x1="2167.01" x2="2963.9842" y1="823.112" y2="823.112"/><line style="stroke:#00008B;stroke-width:1.5625;" x1="2963.9842" x2="2963.9842" y1="823.112" y2="837.6953"/><polygon fill="#00008B" points="2959.8175,827.2786,2963.9842,837.6953,2968.1508,827.2786,2963.9842,831.4453" style="stroke:#00008B;stroke-width:1.0417;"/><line style="stroke:#00008B;stroke-width:1.5625;" x1="1409.3587" x2="1409.3587" y1="553.8249" y2="572.054"/><line style="stroke:#00008B;stroke-width:1.5625;" x1="1409.3587" x2="965.6169" y1="572.054" y2="572.054"/><line style="stroke:#00008B;stroke-width:1.5625;" x1="965.6169" x2="965.6169" y1="572.054" y2="590.2832"/><polygon fill="#00008B" points="961.4502,579.8665,965.6169,590.2832,969.7835,579.8665,965.6169,584.0332" style="stroke:#00008B;stroke-width:1.0417;"/><line style="stroke:#00008B;stroke-width:1.5625;" x1="1116.2313" x2="1103.7313" y1="410.1725" y2="410.1725"/><line style="stroke:#00008B;stroke-width:1.5625;" x1="1103.7313" x2="1103.7313" y1="410.1725" y2="428.9225"/><line style="stroke:#00008B;stroke-width:1.5625;" x1="1103.7313" x2="3180.9174" y1="428.9225" y2="428.9225"/><line style="stroke:#00008B;stroke-width:1.5625;" x1="3180.9174" x2="3180.9174" y1="428.9225" y2="443.5059"/><polygon fill="#00008B" points="3176.7507,433.0892,3180.9174,443.5059,3185.084,433.0892,3180.9174,437.2559" style="stroke:#00008B;stroke-width:1.0417;"/><line style="stroke:#00008B;stroke-width:1.5625;" x1="2230.8456" x2="2230.8456" y1="2038.9832" y2="2044.1915"/><line style="stroke:#00008B;stroke-width:1.5625;" x1="2230.8456" x2="1161.2651" y1="2044.1915" y2="2044.1915"/><line style="stroke:#00008B;stroke-width:1.5625;" x1="1161.2651" x2="1161.2651" y1="2044.1915" y2="2061.8998"/><line style="stroke:#00008B;stroke-width:1.5625;" x1="1161.2651" x2="1180.0151" y1="2061.8998" y2="2061.8998"/><polygon fill="#00008B" points="1169.5984,2057.7332,1180.0151,2061.8998,1169.5984,2066.0665,1173.7651,2061.8998" style="stroke:#00008B;stroke-width:1.0417;"/><line style="stroke:#00008B;stroke-width:1.5625;" x1="965.6169" x2="965.6169" y1="627.7507" y2="2044.1915"/><line style="stroke:#00008B;stroke-width:1.5625;" x1="965.6169" x2="1223.7651" y1="2044.1915" y2="2044.1915"/><line style="stroke:#00008B;stroke-width:1.5625;" x1="1223.7651" x2="1223.7651" y1="2044.1915" y2="2061.8998"/><line style="stroke:#00008B;stroke-width:1.5625;" x1="1223.7651" x2="1205.0151" y1="2061.8998" y2="2061.8998"/><polygon fill="#00008B" points="1215.4317,2057.7332,1205.0151,2061.8998,1215.4317,2066.0665,1211.2651,2061.8998" style="stroke:#00008B;stroke-width:1.0417;"/><line style="stroke:#00008B;stroke-width:1.5625;" x1="1192.5151" x2="1192.5151" y1="2074.3998" y2="2079.6082"/><line style="stroke:#00008B;stroke-width:1.5625;" x1="1192.5151" x2="576.4641" y1="2079.6082" y2="2079.6082"/><line style="stroke:#00008B;stroke-width:1.5625;" x1="576.4641" x2="576.4641" y1="2079.6082" y2="2095.2332"/><polygon fill="#00008B" points="572.2974,2084.8165,576.4641,2095.2332,580.6307,2084.8165,576.4641,2088.9832" style="stroke:#00008B;stroke-width:1.0417;"/><text fill="#2FA4E7" font-family="'Verdana'" font-size="12.5" lengthAdjust="spacing" textLength="28.4912" x="535.674" y="97.3124">User</text><text fill="#2FA4E7" font-family="'Verdana'" font-size="12.5" lengthAdjust="spacing" textLength="133.7646" x="1236.6699" y="97.3124">System: API Gateway</text><text fill="#2FA4E7" font-family="'Verdana'" font-size="12.5" lengthAdjust="spacing" textLength="136.5662" x="1659.6341" y="97.3124">System: Message Bus</text><text fill="#2FA4E7" font-family="'Verdana'" font-size="12.5" lengthAdjust="spacing" textLength="171.228" x="2308.9795" y="97.3124">System: Processing Worker</text><text fill="#2FA4E7" font-family="'Verdana'" font-size="12.5" lengthAdjust="spacing" textLength="123.0469" x="3207.5712" y="97.3124">System: Datastores</text><g class="legend" data-source-line="30"><rect fill="none" height="90.8203" rx="4.1667" ry="4.1667" style="stroke:#BABDBF;stroke-width:1.0417;" width="131.309" x="20.8333" y="2128.5665"/><text fill="#343A40" font-family="'Verdana'" font-size="14.5833" font-weight="bold" lengthAdjust="spacing" textLength="78.7059" x="32.2917" y="2153.5614">Color Key</text><text fill="#90EE90" font-family="'Verdana'" font-size="14.5833" lengthAdjust="spacing" textLength="96.0307" x="32.2917" y="2170.5373">Success Path</text><text fill="#F08080" font-family="'Verdana'" font-size="14.5833" lengthAdjust="spacing" textLength="86.9659" x="32.2917" y="2187.5132">Failure Path</text><text fill="#DDA0DD" font-family="'Verdana'" font-size="14.5833" lengthAdjust="spacing" textLength="108.3923" x="32.2917" y="2204.4891">System Events</text></g><!--SRC=[hLPjSzf64FwkNx5DPXBRupGu4xiEk7G0ePHfqc6CxNp9J7EMLkZASKVlJZYapd_ltab1Ge2Rfj47sMZVdjrzTkz-i1dE4MBKkK0cdwdS2Yun29x25RS20-lUS7GqO490JpAniZmsC5aPY_CszFA4AnXh5QCnN4wX5rk-v7O58MTJpUP7HyxN83TMpM5YLy8ffKh33JSv8vUB1J8Hc1cN2qRwSClYsLIhN2O39KZlSUIVcWRx4kBl0EZfDmrwONW-F2jaIYUeo-ydmrSjSkI-HqhQyclBF-kl4_u9uUH5yBaUK6jrLqQhMPtt_PUhZCSpIUd3oO-d6tRqfl9n9VSXZLhHUObe0-dBi_CN_PUxa9utaRxSY2YLnRt1w1csjeFrm_vFPtroGtrwWrEKII3y7n2OMjAdvdlDtt15tGIuYDtFzkDNhI5Lj3l9OzTy63ERNJpticvDAoBCvwrknBZ8DUxJ2iDUAmox1QrWk4HfpLgjmEAH4SR97PyBHWKFxX_t18-nBtAylpQex-dBy6nu5lNkr_mSZ-0ritZ7LavA9MX5fslfMyBDfWZzt7ZfQNGQ3jRI6glVAJqh_4Uzg1U-MEk4p3AYjaPouB1PQZce56YiO57O1oKsusH1-teX54jCEJaHf-bQSWRNequGx8RTliGO-HADr-u4xTSeKPFKmBNaV-K8VZX78ObkcE295pdTz_8Y9QQ08QhyVDBg7aHApvazXZ0dUoBcCGmo9YKAStZntAbs2GLFuQ3quxWxPiPWyikXoqd2mGhD8JLkPmK0IbAq9ypXlMHtPPvMlPS-rmcfKiaxDTs1Hezu96bOQ2NuR2Xd8kbM0bH4cvisFAMqSqoUrc3NC6tqbG8Lx6gFyrl1JKQXFhWO7bdH3am-5AJRzBE30G3jWP8cdp_inQbb6C-CttK35cUOm9LcqiIQBxo2AxCNmA_SDikxjy3a-8tdJ-KCKasxrRlgR9hkn4yUhXS5HxwgqhOCTBjHRkVdMHU6KlCucvSv4uyG3gGgCgZMNuMrMeRV38EoQU0WLsEDpyfvmtAsjbnH1Tby8V0OvaggOrgMD0o2fDlUK5FRvgO1_8xR3Dvbt2nGm-Jgwek-txgQJpDRVg3Im4qlX9GBIwfiiH0SavgmZxIi3J8TPv1GuWabLHCJmrAUe8mH35Mb4hfDwAALFns5DY6MopZDnJQZ7cILUpQ7jqQmOkyqrJpZDlGkqUJ2ThQZxI7YzoHZatqUQN7uqCHCcxqSqfckErzPbzBDVqAQqe67oH-s7dKBCWKk3eTrDTQxlbOoZnL-LvQdFFPBkRAVSI4gSl3K___Pl_rBi5iKjJ5jJ6ObW2UqW1Fyw09-suIYzxLhF6cOPbMAFJyEpgd5AR7xKt7END8DrDGjW4qPbvNTUYed19TxpFv2QlY3Pc-PeJLCnaQHjbZ1A77sAMUtT1wDPEhFH8VWO3mQ7NPgerR3NJjqh_2ZXU6SAEZ65cumjXMLt4XMiWdg9TrGeBSaDhXutp2LRT-MpK5xKaO5Bka4f_NFmdxdmP4gbbTFrBbWzlSoLcvJskO9su3RE6VBQTa-RIik3qg_zUFsNmRXKMqIlfW_sZCDxHkET-lPeIFNLu1HAukI95HXazqgffFzMsDpRMmtix4w7kxU_reUk6xLZitHhDXtt1t5htfbTjzC6wMgNHhBwtwdfdA9Vn9dYujfmSO2MqaYfnhKageHO2INphEtV5HQ4V7TbRb0IdThjVW7]--></g></svg>