<svg xmlns="http://www.w3.org/2000/svg" xmlns:xlink="http://www.w3.org/1999/xlink" contentStyleType="text/css" data-diagram-type="CLASS" height="825px" preserveAspectRatio="none" style="width:779px;height:825px;background:#FFFFFF;" version="1.1" viewBox="0 0 779 825" width="779px" zoomAndPan="magnify"><defs/><g><!--class CallConnectionStatus--><g class="entity" data-entity="CallConnectionStatus" data-source-line="3" data-uid="ent0002" id="entity_CallConnectionStatus"><rect fill="#F1F1F1" height="96.8906" rx="2.5" ry="2.5" style="stroke:#181818;stroke-width:0.5;" width="253.1172" x="7" y="705.58"/><ellipse cx="54.3286" cy="721.58" fill="#EB937F" rx="11" ry="11" style="stroke:#181818;stroke-width:1;"/><path d="M58.438,727.58 L50.7192,727.58 L50.7192,715.1894 L58.438,715.1894 L58.438,717.3456 L53.1724,717.3456 L53.1724,720.0175 L57.938,720.0175 L57.938,722.1737 L53.1724,722.1737 L53.1724,725.4237 L58.438,725.4237 L58.438,727.58 Z " fill="#000000"/><text fill="#000000" font-family="sans-serif" font-size="14" lengthAdjust="spacing" textLength="149.96" x="74.8286" y="726.4267">CallConnectionStatus</text><line style="stroke:#181818;stroke-width:0.5;" x1="8" x2="259.1172" y1="737.58" y2="737.58"/><text fill="#000000" font-family="sans-serif" font-size="14" lengthAdjust="spacing" textLength="197.4355" x="13" y="754.5751">CONNECTED = "Connected"</text><text fill="#000000" font-family="sans-serif" font-size="14" lengthAdjust="spacing" textLength="241.1172" x="13" y="770.872">DISCONNECTED = "Disconnected"</text><text fill="#000000" font-family="sans-serif" font-size="14" lengthAdjust="spacing" textLength="174.207" x="13" y="787.1689">UNKNOWN = "Unknown"</text><line style="stroke:#181818;stroke-width:0.5;" x1="8" x2="259.1172" y1="794.4706" y2="794.4706"/></g><!--class CallType--><g class="entity" data-entity="CallType" data-source-line="9" data-uid="ent0003" id="entity_CallType"><rect fill="#F1F1F1" height="129.4844" rx="2.5" ry="2.5" style="stroke:#181818;stroke-width:0.5;" width="236.1914" x="295.46" y="689.29"/><ellipse cx="379.0704" cy="705.29" fill="#EB937F" rx="11" ry="11" style="stroke:#181818;stroke-width:1;"/><path d="M383.1797,711.29 L375.461,711.29 L375.461,698.8994 L383.1797,698.8994 L383.1797,701.0556 L377.9141,701.0556 L377.9141,703.7275 L382.6797,703.7275 L382.6797,705.8838 L377.9141,705.8838 L377.9141,709.1338 L383.1797,709.1338 L383.1797,711.29 Z " fill="#000000"/><text fill="#000000" font-family="sans-serif" font-size="14" lengthAdjust="spacing" textLength="60.4707" x="399.5704" y="710.1367">CallType</text><line style="stroke:#181818;stroke-width:0.5;" x1="296.46" x2="530.6514" y1="721.29" y2="721.29"/><text fill="#000000" font-family="sans-serif" font-size="14" lengthAdjust="spacing" textLength="140.4785" x="301.46" y="738.2851">INQUIRY = "Inquiry"</text><text fill="#000000" font-family="sans-serif" font-size="14" lengthAdjust="spacing" textLength="224.1914" x="301.46" y="754.582">BILLING_SALES = "Billing/Sales"</text><text fill="#000000" font-family="sans-serif" font-size="14" lengthAdjust="spacing" textLength="154.1709" x="301.46" y="770.8789">SUPPORT = "Support"</text><text fill="#000000" font-family="sans-serif" font-size="14" lengthAdjust="spacing" textLength="186.9424" x="301.46" y="787.1757">COMPLAINT = "Complaint"</text><text fill="#000000" font-family="sans-serif" font-size="14" lengthAdjust="spacing" textLength="174.207" x="301.46" y="803.4726">UNKNOWN = "Unknown"</text><line style="stroke:#181818;stroke-width:0.5;" x1="296.46" x2="530.6514" y1="810.7744" y2="810.7744"/></g><!--class CallOutcome--><g class="entity" data-entity="CallOutcome" data-source-line="17" data-uid="ent0004" id="entity_CallOutcome"><rect fill="#F1F1F1" height="129.4844" rx="2.5" ry="2.5" style="stroke:#181818;stroke-width:0.5;" width="205.0264" x="567.05" y="689.29"/><ellipse cx="620.2985" cy="705.29" fill="#EB937F" rx="11" ry="11" style="stroke:#181818;stroke-width:1;"/><path d="M624.4079,711.29 L616.6892,711.29 L616.6892,698.8994 L624.4079,698.8994 L624.4079,701.0556 L619.1423,701.0556 L619.1423,703.7275 L623.9079,703.7275 L623.9079,705.8838 L619.1423,705.8838 L619.1423,709.1338 L624.4079,709.1338 L624.4079,711.29 Z " fill="#000000"/><text fill="#000000" font-family="sans-serif" font-size="14" lengthAdjust="spacing" textLength="90.0293" x="640.7985" y="710.1367">CallOutcome</text><line style="stroke:#181818;stroke-width:0.5;" x1="568.05" x2="771.0764" y1="721.29" y2="721.29"/><text fill="#000000" font-family="sans-serif" font-size="14" lengthAdjust="spacing" textLength="172.8672" x="573.05" y="738.2851">RESOLVED = "Resolved"</text><text fill="#000000" font-family="sans-serif" font-size="14" lengthAdjust="spacing" textLength="166.0039" x="573.05" y="754.582">CALLBACK = "Callback"</text><text fill="#000000" font-family="sans-serif" font-size="14" lengthAdjust="spacing" textLength="141.5381" x="573.05" y="770.8789">REFUND = "Refund"</text><text fill="#000000" font-family="sans-serif" font-size="14" lengthAdjust="spacing" textLength="193.0264" x="573.05" y="787.1757">SALE_CLOSE = "Sale-close"</text><text fill="#000000" font-family="sans-serif" font-size="14" lengthAdjust="spacing" textLength="174.207" x="573.05" y="803.4726">UNKNOWN = "Unknown"</text><line style="stroke:#181818;stroke-width:0.5;" x1="568.05" x2="771.0764" y1="810.7744" y2="810.7744"/></g><!--class CallRecord--><g class="entity" data-entity="CallRecord" data-source-line="25" data-uid="ent0005" id="entity_CallRecord"><rect fill="#F1F1F1" height="317.0156" rx="2.5" ry="2.5" style="stroke:#181818;stroke-width:0.5;" width="353.5234" x="236.8" y="311.27"/><ellipse cx="343.4719" cy="331.4028" fill="#ADD1B2" rx="11" ry="11" style="stroke:#181818;stroke-width:1;"/><path d="M346.4406,337.0434 Q345.8625,337.3403 345.2219,337.4809 Q344.5813,337.6372 343.8781,337.6372 Q341.3781,337.6372 340.05,335.9966 Q338.7375,334.3403 338.7375,331.2153 Q338.7375,328.0903 340.05,326.4341 Q341.3781,324.7778 343.8781,324.7778 Q344.5813,324.7778 345.2219,324.9341 Q345.8781,325.0903 346.4406,325.3872 L346.4406,328.1059 Q345.8156,327.5278 345.2219,327.2622 Q344.6281,326.9809 344.0031,326.9809 Q342.6594,326.9809 341.9719,328.0591 Q341.2844,329.1216 341.2844,331.2153 Q341.2844,333.3091 341.9719,334.3872 Q342.6594,335.4497 344.0031,335.4497 Q344.6281,335.4497 345.2219,335.1841 Q345.8156,334.9028 346.4406,334.3247 L346.4406,337.0434 Z " fill="#000000"/><text fill="#000000" font-family="sans-serif" font-size="12" font-style="italic" lengthAdjust="spacing" textLength="135.6797" x="361.9719" y="327.4087">&#171;pydantic.BaseModel&#187;</text><text fill="#000000" font-family="sans-serif" font-size="14" lengthAdjust="spacing" textLength="75.3799" x="392.1218" y="343.2339">CallRecord</text><line style="stroke:#181818;stroke-width:0.5;" x1="237.8" x2="589.3234" y1="351.5356" y2="351.5356"/><rect fill="none" height="6" style="stroke:#C82930;stroke-width:1;" width="6" x="244.8" y="362.1841"/><text fill="#000000" font-family="sans-serif" font-size="14" lengthAdjust="spacing" textLength="71.5381" x="256.8" y="368.5307">call_id: str</text><rect fill="none" height="6" style="stroke:#C82930;stroke-width:1;" width="6" x="244.8" y="378.4809"/><text fill="#000000" font-family="sans-serif" font-size="14" lengthAdjust="spacing" textLength="143.6025" x="256.8" y="384.8276">start_time: datetime</text><rect fill="none" height="6" style="stroke:#C82930;stroke-width:1;" width="6" x="244.8" y="394.7778"/><text fill="#000000" font-family="sans-serif" font-size="14" lengthAdjust="spacing" textLength="163.7549" x="256.8" y="401.1245">duration_seconds: float</text><rect fill="none" height="6" style="stroke:#C82930;stroke-width:1;" width="6" x="244.8" y="411.0747"/><text fill="#000000" font-family="sans-serif" font-size="14" lengthAdjust="spacing" textLength="95.416" x="256.8" y="417.4214">transcript: str</text><rect fill="none" height="6" style="stroke:#C82930;stroke-width:1;" width="6" x="244.8" y="427.3716"/><text fill="#000000" font-family="sans-serif" font-size="14" lengthAdjust="spacing" textLength="129.165" x="256.8" y="433.7182">agent_id: str|None</text><rect fill="none" height="6" style="stroke:#C82930;stroke-width:1;" width="6" x="244.8" y="443.6684"/><text fill="#000000" font-family="sans-serif" font-size="14" lengthAdjust="spacing" textLength="137.9766" x="256.8" y="450.0151">campaign: str|None</text><rect fill="none" height="6" style="stroke:#C82930;stroke-width:1;" width="6" x="244.8" y="459.9653"/><text fill="#000000" font-family="sans-serif" font-size="14" lengthAdjust="spacing" textLength="181.5762" x="256.8" y="466.312">customer_name: str|None</text><rect fill="none" height="6" style="stroke:#C82930;stroke-width:1;" width="6" x="244.8" y="476.2622"/><text fill="#000000" font-family="sans-serif" font-size="14" lengthAdjust="spacing" textLength="169.8047" x="256.8" y="482.6089">product_name: str|None</text><rect fill="none" height="6" style="stroke:#C82930;stroke-width:1;" width="6" x="244.8" y="492.5591"/><text fill="#000000" font-family="sans-serif" font-size="14" lengthAdjust="spacing" textLength="127.0254" x="256.8" y="498.9057">quantity: int|None</text><rect fill="none" height="6" style="stroke:#C82930;stroke-width:1;" width="6" x="244.8" y="508.8559"/><text fill="#000000" font-family="sans-serif" font-size="14" lengthAdjust="spacing" textLength="135.8779" x="256.8" y="515.2026">amount: float|None</text><rect fill="none" height="6" style="stroke:#C82930;stroke-width:1;" width="6" x="244.8" y="525.1528"/><text fill="#000000" font-family="sans-serif" font-size="14" lengthAdjust="spacing" textLength="126.3008" x="256.8" y="531.4995">order_id: str|None</text><rect fill="none" height="6" style="stroke:#C82930;stroke-width:1;" width="6" x="244.8" y="541.4497"/><text fill="#000000" font-family="sans-serif" font-size="14" lengthAdjust="spacing" textLength="327.5234" x="256.8" y="547.7964">connection_status: CallConnectionStatus|None</text><rect fill="none" height="6" style="stroke:#C82930;stroke-width:1;" width="6" x="244.8" y="557.7466"/><text fill="#000000" font-family="sans-serif" font-size="14" lengthAdjust="spacing" textLength="173.209" x="256.8" y="564.0932">call_type: CallType|None</text><rect fill="none" height="6" style="stroke:#C82930;stroke-width:1;" width="6" x="244.8" y="574.0434"/><text fill="#000000" font-family="sans-serif" font-size="14" lengthAdjust="spacing" textLength="201.8789" x="256.8" y="580.3901">outcome: CallOutcome|None</text><line style="stroke:#181818;stroke-width:0.5;" x1="237.8" x2="589.3234" y1="587.6919" y2="587.6919"/><ellipse cx="247.8" cy="601.3403" fill="#84BE84" rx="3" ry="3" style="stroke:#038048;stroke-width:1;"/><text fill="#000000" font-family="sans-serif" font-size="14" lengthAdjust="spacing" textLength="186.4023" x="256.8" y="604.687">validate_duration(v) : float</text><ellipse cx="247.8" cy="617.6372" fill="#84BE84" rx="3" ry="3" style="stroke:#038048;stroke-width:1;"/><text fill="#000000" font-family="sans-serif" font-size="14" lengthAdjust="spacing" textLength="182.2871" x="256.8" y="620.9839">validate_transcript(v) : str</text></g><!--class CallDataFrame--><g class="entity" data-entity="CallDataFrame" data-source-line="44" data-uid="ent0006" id="entity_CallDataFrame"><rect fill="#F1F1F1" height="227.2656" rx="2.5" ry="2.5" style="stroke:#181818;stroke-width:0.5;" width="583.5938" x="121.76" y="7"/><ellipse cx="357.2068" cy="23" fill="#ADD1B2" rx="11" ry="11" style="stroke:#181818;stroke-width:1;"/><path d="M360.1755,28.6406 Q359.5974,28.9375 358.9568,29.0781 Q358.3162,29.2344 357.613,29.2344 Q355.113,29.2344 353.7849,27.5938 Q352.4724,25.9375 352.4724,22.8125 Q352.4724,19.6875 353.7849,18.0313 Q355.113,16.375 357.613,16.375 Q358.3162,16.375 358.9568,16.5313 Q359.613,16.6875 360.1755,16.9844 L360.1755,19.7031 Q359.5505,19.125 358.9568,18.8594 Q358.363,18.5781 357.738,18.5781 Q356.3943,18.5781 355.7068,19.6563 Q355.0193,20.7188 355.0193,22.8125 Q355.0193,24.9063 355.7068,25.9844 Q356.3943,27.0469 357.738,27.0469 Q358.363,27.0469 358.9568,26.7813 Q359.5505,26.5 360.1755,25.9219 L360.1755,28.6406 Z " fill="#000000"/><text fill="#000000" font-family="sans-serif" font-size="14" lengthAdjust="spacing" textLength="104.2002" x="377.7068" y="27.8467">CallDataFrame</text><line style="stroke:#181818;stroke-width:0.5;" x1="122.76" x2="704.3538" y1="39" y2="39"/><rect fill="none" height="6" style="stroke:#C82930;stroke-width:1;" width="6" x="129.76" y="49.6484"/><text fill="#000000" font-family="sans-serif" font-size="14" lengthAdjust="spacing" textLength="123.2725" x="141.76" y="55.9951">df: pd.DataFrame</text><rect fill="none" height="6" style="stroke:#C82930;stroke-width:1;" width="6" x="129.76" y="65.9453"/><text fill="#000000" font-family="sans-serif" font-size="14" lengthAdjust="spacing" textLength="185.7324" x="141.76" y="72.292">REQUIRED_COLUMNS: dict</text><rect fill="none" height="6" style="stroke:#C82930;stroke-width:1;" width="6" x="129.76" y="82.2422"/><text fill="#000000" font-family="sans-serif" font-size="14" lengthAdjust="spacing" textLength="183.4219" x="141.76" y="88.5889">OPTIONAL_COLUMNS: dict</text><line style="stroke:#181818;stroke-width:0.5;" x1="122.76" x2="704.3538" y1="95.8906" y2="95.8906"/><ellipse cx="132.76" cy="109.5391" fill="#84BE84" rx="3" ry="3" style="stroke:#038048;stroke-width:1;"/><text fill="#000000" font-family="sans-serif" font-size="14" lengthAdjust="spacing" textLength="184.3379" x="141.76" y="112.8857">__init__(df: pd.DataFrame)</text><rect fill="#F24D5C" height="6" style="stroke:#C82930;stroke-width:1;" width="6" x="129.76" y="122.8359"/><text fill="#000000" font-family="sans-serif" font-size="14" lengthAdjust="spacing" textLength="420.8066" x="141.76" y="129.1826">_validate_and_normalize(df: pd.DataFrame) : pd.DataFrame</text><ellipse cx="132.76" cy="142.1328" fill="#84BE84" rx="3" ry="3" style="stroke:#038048;stroke-width:1;"/><text fill="#000000" font-family="sans-serif" font-size="14" lengthAdjust="spacing" textLength="276.9512" x="141.76" y="145.4795">add_labels(labels: dict[str, Any]) : None</text><ellipse cx="132.76" cy="158.4297" fill="#84BE84" rx="3" ry="3" style="stroke:#038048;stroke-width:1;"/><text fill="#000000" font-family="sans-serif" font-size="14" lengthAdjust="spacing" textLength="557.5938" x="141.76" y="161.7764">filter_by_date_range(start_date: datetime, end_date: datetime) : pd.DataFrame</text><ellipse cx="132.76" cy="174.7266" fill="#84BE84" rx="3" ry="3" style="stroke:#038048;stroke-width:1;"/><text fill="#000000" font-family="sans-serif" font-size="14" lengthAdjust="spacing" textLength="207.9971" x="141.76" y="178.0732">get_statistics() : dict[str, Any]</text><ellipse cx="132.76" cy="191.0234" fill="#84BE84" rx="3" ry="3" style="stroke:#038048;stroke-width:1;"/><text fill="#000000" font-family="sans-serif" font-size="14" lengthAdjust="spacing" textLength="205.0303" x="141.76" y="194.3701">to_records() : list[CallRecord]</text><ellipse cx="132.76" cy="207.3203" fill="#84BE84" rx="3" ry="3" style="stroke:#038048;stroke-width:1;"/><text fill="#000000" font-family="sans-serif" font-size="14" lengthAdjust="spacing" textLength="238.8477" x="141.76" y="210.667">export_to_csv(filepath: str) : None</text><ellipse cx="132.76" cy="223.6172" fill="#84BE84" rx="3" ry="3" style="stroke:#038048;stroke-width:1;"/><text fill="#000000" font-family="sans-serif" font-size="14" lengthAdjust="spacing" textLength="270.6553" x="141.76" y="226.9639">export_to_parquet(filepath: str) : None</text></g><!--link CallDataFrame to CallRecord--><g class="link" data-entity-1="CallDataFrame" data-entity-2="CallRecord" data-source-line="59" data-uid="lnk7" id="link_CallDataFrame_CallRecord"><path codeLine="59" d="M413.56,234.34 C413.56,258.79 413.56,279.09 413.56,304.92" fill="none" id="CallDataFrame-to-CallRecord" style="stroke:#181818;stroke-width:1;"/><polygon fill="#181818" points="413.56,310.92,417.56,301.92,413.56,305.92,409.56,301.92,413.56,310.92" style="stroke:#181818;stroke-width:1;"/><text fill="#000000" font-family="sans-serif" font-size="13" lengthAdjust="spacing" textLength="73.4297" x="414.56" y="277.3369">converts to</text><text fill="#000000" font-family="sans-serif" font-size="13" lengthAdjust="spacing" textLength="8.271" x="405.3126" y="254.176">1</text><text fill="#000000" font-family="sans-serif" font-size="13" lengthAdjust="spacing" textLength="6.5" x="407.4353" y="300.4518">*</text></g><!--link CallRecord to CallConnectionStatus--><g class="link" data-entity-1="CallRecord" data-entity-2="CallConnectionStatus" data-source-line="60" data-uid="lnk8" id="link_CallRecord_CallConnectionStatus"><path codeLine="60" d="M257.19,628.41 C229.38,656.44 206.665,679.3298 185.075,701.0998" fill="none" id="CallRecord-to-CallConnectionStatus" style="stroke:#181818;stroke-width:1;stroke-dasharray:7,7;"/><polygon fill="#181818" points="180.85,705.36,190.0276,701.7863,184.3708,701.8098,184.3473,696.153,180.85,705.36" style="stroke:#181818;stroke-width:1;"/></g><!--link CallRecord to CallType--><g class="link" data-entity-1="CallRecord" data-entity-2="CallType" data-source-line="61" data-uid="lnk9" id="link_CallRecord_CallType"><path codeLine="61" d="M413.56,628.41 C413.56,649.75 413.56,664.58 413.56,682.91" fill="none" id="CallRecord-to-CallType" style="stroke:#181818;stroke-width:1;stroke-dasharray:7,7;"/><polygon fill="#181818" points="413.56,688.91,417.56,679.91,413.56,683.91,409.56,679.91,413.56,688.91" style="stroke:#181818;stroke-width:1;"/></g><!--link CallRecord to CallOutcome--><g class="link" data-entity-1="CallRecord" data-entity-2="CallOutcome" data-source-line="62" data-uid="lnk10" id="link_CallRecord_CallOutcome"><path codeLine="62" d="M556.53,628.41 C575.88,649.75 590.7498,666.1351 607.3698,684.4651" fill="none" id="CallRecord-to-CallOutcome" style="stroke:#181818;stroke-width:1;stroke-dasharray:7,7;"/><polygon fill="#181818" points="611.4,688.91,608.3179,679.5558,608.0415,685.2059,602.3914,684.9295,611.4,688.91" style="stroke:#181818;stroke-width:1;"/></g><!--SRC=[ZLHTRzem57tdLrXvALqBqrwZ3Wb2EaLD4vR0fgcQB3SsrAfZfxP3opx- -so7agImQK_0FSU-n_USoncO8ur0AJ1Xe618AQ80uXXWKrvBL1BmB55L4JaO45wN842C1O9pKcWgUAwHhXNuEG0WI9Ca39RX77m4tfv1i6UGUPJtm3bLHHTV9JT9-ZMnq8e_Sl7ClS7lJhlbhYAkHPHyNaNPDqkC-5DDvSuUdqLn72MVO3wDmznYCyeOvPltEM94MKQ-MYpIR6cnlAug8RNd1DykuccKB1l1PSKGvVf_1AMrBaJPQCh2F8s_D0_BY19ispmgcCRnR1hSkClDcNjKF7gEVxrAzknrpHtNAeT1dEQXasXaZmec5Fc75cUL4vEHGaWChgwg7KPSqs8yGuhSMaCd4oTn10h3WnJxG6df2aeZgQ6c9V6jqyH-Sm2k9RB6GcMkvLZvOCq4qWxJ4d5LI5hfzYAq8Lo_Nlqh4Ppi6vOLeXl-jbmhRGOd8KUsSm-hfC1reKz1JxLzcDxvm1ZKbb4fQgxt2jkocORfS2pf45geN6hzardkli4CJPli-OSKTfeq4V2xUNX5By0MCMh72b_7EToUWtQK7K8xquPYvzgprwxdjTl3nagyza65nuUoAsQXNOnm3eCqNjqckJ6L5erfwM8PfSaqFe8k08IKKmtXyEsTv-uaF8Wq_mUG2rcQtp_8CHiSARe026F8q3rXQjXyD7tlpFikmPJlljjJXtcjATF6i_iTTFtCJ3Pas6JK5jgCNW9YjFHh9_jlY7OsKsKsGWqjfz_ViRI0qgrFms26VTVkLCCXB_OF0nfgeRP3evHKI3yuftflQ7aLaayrqN_X6dVFG4QOouLwe9KQz7tsFdXWD9e0xvtNNN3V9dXBf5P6zg03ZCUJaqa-nR4XFbNV9_WF]--></g></svg>