<?xml version="1.0" encoding="UTF-8" standalone="no"?>
<!DOCTYPE svg PUBLIC "-//W3C//DTD SVG 1.1//EN"
 "http://www.w3.org/Graphics/SVG/1.1/DTD/svg11.dtd">
<!-- Generated by graphviz version 14.0.1 (20251006.0113)
 -->
<!-- Title: Classes Pages: 1 -->
<svg width="996pt" height="491pt"
 viewBox="0.00 0.00 996.00 491.00" xmlns="http://www.w3.org/2000/svg" xmlns:xlink="http://www.w3.org/1999/xlink">
<g id="graph0" class="graph" transform="scale(1 1) rotate(0) translate(4 486.75)">
<title>Classes</title>
<polygon fill="white" stroke="none" points="-4,4 -4,-486.75 991.75,-486.75 991.75,4 -4,4"/>
<text xml:space="preserve" text-anchor="middle" x="493.88" y="-467.35" font-family="Helvetica,sans-Serif" font-size="12.00">Call Analytics Domain Classes</text>
<!-- CallRecord -->
<g id="node1" class="node">
<title>CallRecord</title>
<polygon fill="#ddeafb" stroke="none" points="335.5,-207.5 335.5,-370.5 554.75,-370.5 554.75,-207.5 335.5,-207.5"/>
<text xml:space="preserve" text-anchor="start" x="409.5" y="-353.2" font-family="Helvetica,sans-Serif" font-weight="bold" font-size="14.00">CallRecord</text>
<text xml:space="preserve" text-anchor="start" x="340.5" y="-329.2" font-family="Helvetica,sans-Serif" font-size="14.00">+ call_id: str</text>
<text xml:space="preserve" text-anchor="start" x="340.5" y="-306.2" font-family="Helvetica,sans-Serif" font-size="14.00">+ start_time: datetime</text>
<text xml:space="preserve" text-anchor="start" x="340.5" y="-283.2" font-family="Helvetica,sans-Serif" font-size="14.00">+ duration_seconds: float</text>
<text xml:space="preserve" text-anchor="start" x="340.5" y="-260.2" font-family="Helvetica,sans-Serif" font-size="14.00">+ transcription: TranscriptionResult</text>
<text xml:space="preserve" text-anchor="start" x="340.5" y="-237.2" font-family="Helvetica,sans-Serif" font-size="14.00">+ labels: LabelingResult</text>
<text xml:space="preserve" text-anchor="start" x="340.5" y="-214.2" font-family="Helvetica,sans-Serif" font-size="14.00">+ metrics: list&lt;MetricPoint&gt;</text>
<polygon fill="none" stroke="black" points="335.5,-207.5 335.5,-370.5 554.75,-370.5 554.75,-207.5 335.5,-207.5"/>
</g>
<!-- TranscriptionResult -->
<g id="node2" class="node">
<title>TranscriptionResult</title>
<polygon fill="#e6fffa" stroke="none" points="777,-124 777,-218 914.5,-218 914.5,-124 777,-124"/>
<text xml:space="preserve" text-anchor="start" x="782" y="-200.7" font-family="Helvetica,sans-Serif" font-weight="bold" font-size="14.00">TranscriptionResult</text>
<text xml:space="preserve" text-anchor="start" x="782" y="-176.7" font-family="Helvetica,sans-Serif" font-size="14.00">+ transcript: str</text>
<text xml:space="preserve" text-anchor="start" x="782" y="-153.7" font-family="Helvetica,sans-Serif" font-size="14.00">+ language: str</text>
<text xml:space="preserve" text-anchor="start" x="782" y="-130.7" font-family="Helvetica,sans-Serif" font-size="14.00">+ confidence: float</text>
<polygon fill="none" stroke="black" points="777,-124 777,-218 914.5,-218 914.5,-124 777,-124"/>
</g>
<!-- CallRecord&#45;&gt;TranscriptionResult -->
<g id="edge1" class="edge">
<title>CallRecord&#45;&gt;TranscriptionResult</title>
<path fill="none" stroke="#2b6cb0" stroke-width="1.5" d="M562.5,-254.55C625.49,-235.9 701.95,-213.27 759.39,-196.27"/>
<polygon fill="#2b6cb0" stroke="#2b6cb0" stroke-width="1.5" points="760.11,-198.98 766.98,-194.02 758.52,-193.61 760.11,-198.98"/>
<text xml:space="preserve" text-anchor="middle" x="633.25" y="-249.16" font-family="Helvetica,sans-Serif" font-size="14.00">embeds</text>
</g>
<!-- LabelingResult -->
<g id="node4" class="node">
<title>LabelingResult</title>
<polygon fill="#fff5f7" stroke="none" points="711.75,-364 711.75,-458 979.75,-458 979.75,-364 711.75,-364"/>
<text xml:space="preserve" text-anchor="start" x="797.38" y="-440.7" font-family="Helvetica,sans-Serif" font-weight="bold" font-size="14.00">LabelingResult</text>
<text xml:space="preserve" text-anchor="start" x="716.75" y="-416.7" font-family="Helvetica,sans-Serif" font-size="14.00">+ outcome: CallOutcome</text>
<text xml:space="preserve" text-anchor="start" x="716.75" y="-393.7" font-family="Helvetica,sans-Serif" font-size="14.00">+ call_type: CallType</text>
<text xml:space="preserve" text-anchor="start" x="716.75" y="-370.7" font-family="Helvetica,sans-Serif" font-size="14.00">+ connection_status: CallConnectionStatus</text>
<polygon fill="none" stroke="black" points="711.75,-364 711.75,-458 979.75,-458 979.75,-364 711.75,-364"/>
</g>
<!-- CallRecord&#45;&gt;LabelingResult -->
<g id="edge2" class="edge">
<title>CallRecord&#45;&gt;LabelingResult</title>
<path fill="none" stroke="#2b6cb0" stroke-width="1.5" d="M562.5,-324.62C603.71,-337.23 650.68,-351.6 694.32,-364.96"/>
<polygon fill="#2b6cb0" stroke="#2b6cb0" stroke-width="1.5" points="693.23,-367.55 701.7,-367.22 694.87,-362.2 693.23,-367.55"/>
<text xml:space="preserve" text-anchor="middle" x="633.25" y="-362.63" font-family="Helvetica,sans-Serif" font-size="14.00">derives</text>
</g>
<!-- MetricPoint -->
<g id="node5" class="node">
<title>MetricPoint</title>
<polygon fill="#feebc8" stroke="none" points="769.12,-244 769.12,-338 922.38,-338 922.38,-244 769.12,-244"/>
<text xml:space="preserve" text-anchor="start" x="808.62" y="-320.7" font-family="Helvetica,sans-Serif" font-weight="bold" font-size="14.00">MetricPoint</text>
<text xml:space="preserve" text-anchor="start" x="774.12" y="-296.7" font-family="Helvetica,sans-Serif" font-size="14.00">+ name: str</text>
<text xml:space="preserve" text-anchor="start" x="774.12" y="-273.7" font-family="Helvetica,sans-Serif" font-size="14.00">+ value: float</text>
<text xml:space="preserve" text-anchor="start" x="774.12" y="-250.7" font-family="Helvetica,sans-Serif" font-size="14.00">+ captured_at: datetime</text>
<polygon fill="none" stroke="black" points="769.12,-244 769.12,-338 922.38,-338 922.38,-244 769.12,-244"/>
</g>
<!-- CallRecord&#45;&gt;MetricPoint -->
<g id="edge3" class="edge">
<title>CallRecord&#45;&gt;MetricPoint</title>
<path fill="none" stroke="#2b6cb0" stroke-width="1.5" d="M562.5,-289.58C622.55,-289.89 694.82,-290.25 751.2,-290.53"/>
<polygon fill="#2b6cb0" stroke="#2b6cb0" stroke-width="1.5" points="750.9,-293.33 758.91,-290.57 750.92,-287.73 750.9,-293.33"/>
<text xml:space="preserve" text-anchor="middle" x="633.25" y="-291.88" font-family="Helvetica,sans-Serif" font-size="14.00">aggregates</text>
</g>
<!-- LLMResponse -->
<g id="node3" class="node">
<title>LLMResponse</title>
<polygon fill="#e6fffa" stroke="none" points="785.62,-4 785.62,-98 905.88,-98 905.88,-4 785.62,-4"/>
<text xml:space="preserve" text-anchor="start" x="799.25" y="-80.7" font-family="Helvetica,sans-Serif" font-weight="bold" font-size="14.00">LLMResponse</text>
<text xml:space="preserve" text-anchor="start" x="790.62" y="-56.7" font-family="Helvetica,sans-Serif" font-size="14.00">+ answer: str</text>
<text xml:space="preserve" text-anchor="start" x="790.62" y="-33.7" font-family="Helvetica,sans-Serif" font-size="14.00">+ confidence: float</text>
<text xml:space="preserve" text-anchor="start" x="790.62" y="-10.7" font-family="Helvetica,sans-Serif" font-size="14.00">+ metadata: dict</text>
<polygon fill="none" stroke="black" points="785.62,-4 785.62,-98 905.88,-98 905.88,-4 785.62,-4"/>
</g>
<!-- LabelingEngine -->
<g id="node6" class="node">
<title>LabelingEngine</title>
<polygon fill="#fff5f7" stroke="none" points="11.75,-369.5 11.75,-440.5 228.75,-440.5 228.75,-369.5 11.75,-369.5"/>
<text xml:space="preserve" text-anchor="start" x="70" y="-423.2" font-family="Helvetica,sans-Serif" font-weight="bold" font-size="14.00">LabelingEngine</text>
<text xml:space="preserve" text-anchor="start" x="16.75" y="-399.2" font-family="Helvetica,sans-Serif" font-size="14.00">+ apply_rules(call): LabelingResult</text>
<text xml:space="preserve" text-anchor="start" x="16.75" y="-376.2" font-family="Helvetica,sans-Serif" font-size="14.00">+ score(call): float</text>
<polygon fill="none" stroke="black" points="11.75,-369.5 11.75,-440.5 228.75,-440.5 228.75,-369.5 11.75,-369.5"/>
</g>
<!-- LabelingEngine&#45;&gt;CallRecord -->
<g id="edge5" class="edge">
<title>LabelingEngine&#45;&gt;CallRecord</title>
<path fill="none" stroke="#2b6cb0" stroke-width="1.5" d="M231.01,-365.57C259.14,-355.46 289.6,-344.52 318.46,-334.15"/>
<polygon fill="#2b6cb0" stroke="#2b6cb0" stroke-width="1.5" points="319.05,-336.91 325.63,-331.57 317.16,-331.64 319.05,-336.91"/>
<text xml:space="preserve" text-anchor="middle" x="284" y="-355.65" font-family="Helvetica,sans-Serif" font-size="14.00">enriches</text>
</g>
<!-- LabelingEngine&#45;&gt;LabelingResult -->
<g id="edge4" class="edge">
<title>LabelingEngine&#45;&gt;LabelingResult</title>
<path fill="none" stroke="#2b6cb0" stroke-width="1.5" d="M236.69,-405.96C360.56,-406.98 557.8,-408.62 693.87,-409.75"/>
<polygon fill="#2b6cb0" stroke="#2b6cb0" stroke-width="1.5" points="693.68,-412.55 701.7,-409.81 693.73,-406.95 693.68,-412.55"/>
<text xml:space="preserve" text-anchor="middle" x="445.12" y="-410.3" font-family="Helvetica,sans-Serif" font-size="14.00">creates</text>
</g>
<!-- StorageManager -->
<g id="node7" class="node">
<title>StorageManager</title>
<polygon fill="#e9d8fd" stroke="none" points="23.75,-242 23.75,-336 216.75,-336 216.75,-242 23.75,-242"/>
<text xml:space="preserve" text-anchor="start" x="67" y="-318.7" font-family="Helvetica,sans-Serif" font-weight="bold" font-size="14.00">StorageManager</text>
<text xml:space="preserve" text-anchor="start" x="28.75" y="-294.7" font-family="Helvetica,sans-Serif" font-size="14.00">+ save(call)</text>
<text xml:space="preserve" text-anchor="start" x="28.75" y="-271.7" font-family="Helvetica,sans-Serif" font-size="14.00">+ load(call_id): CallRecord</text>
<text xml:space="preserve" text-anchor="start" x="28.75" y="-248.7" font-family="Helvetica,sans-Serif" font-size="14.00">+ snapshot(): list&lt;CallRecord&gt;</text>
<polygon fill="none" stroke="black" points="23.75,-242 23.75,-336 216.75,-336 216.75,-242 23.75,-242"/>
</g>
<!-- StorageManager&#45;&gt;CallRecord -->
<g id="edge6" class="edge">
<title>StorageManager&#45;&gt;CallRecord</title>
<path fill="none" stroke="#2b6cb0" stroke-width="1.5" d="M224.74,-289C254.37,-289 287,-289 317.83,-289"/>
<polygon fill="#2b6cb0" stroke="#2b6cb0" stroke-width="1.5" points="317.5,-291.8 325.5,-289 317.5,-286.2 317.5,-291.8"/>
<text xml:space="preserve" text-anchor="middle" x="284" y="-290.7" font-family="Helvetica,sans-Serif" font-size="14.00">persists</text>
</g>
<!-- DocumentIndexer -->
<g id="node8" class="node">
<title>DocumentIndexer</title>
<polygon fill="#e9d8fd" stroke="none" points="8,-136.5 8,-207.5 232.5,-207.5 232.5,-136.5 8,-136.5"/>
<text xml:space="preserve" text-anchor="start" x="62.88" y="-190.2" font-family="Helvetica,sans-Serif" font-weight="bold" font-size="14.00">DocumentIndexer</text>
<text xml:space="preserve" text-anchor="start" x="13" y="-166.2" font-family="Helvetica,sans-Serif" font-size="14.00">+ index(call)</text>
<text xml:space="preserve" text-anchor="start" x="13" y="-143.2" font-family="Helvetica,sans-Serif" font-size="14.00">+ search(query): list&lt;DocumentHit&gt;</text>
<polygon fill="none" stroke="black" points="8,-136.5 8,-207.5 232.5,-207.5 232.5,-136.5 8,-136.5"/>
</g>
<!-- DocumentIndexer&#45;&gt;CallRecord -->
<g id="edge7" class="edge">
<title>DocumentIndexer&#45;&gt;CallRecord</title>
<path fill="none" stroke="#2b6cb0" stroke-width="1.5" d="M230.11,-211.45C258.44,-221.71 289.2,-232.86 318.33,-243.41"/>
<polygon fill="#2b6cb0" stroke="#2b6cb0" stroke-width="1.5" points="317.11,-245.95 325.59,-246.04 319.02,-240.69 317.11,-245.95"/>
<text xml:space="preserve" text-anchor="middle" x="284" y="-239.21" font-family="Helvetica,sans-Serif" font-size="14.00">indexes</text>
</g>
<!-- SemanticSearchEngine -->
<g id="node9" class="node">
<title>SemanticSearchEngine</title>
<polygon fill="#feebc8" stroke="none" points="336.62,-63.5 336.62,-134.5 553.62,-134.5 553.62,-63.5 336.62,-63.5"/>
<text xml:space="preserve" text-anchor="start" x="369.75" y="-117.2" font-family="Helvetica,sans-Serif" font-weight="bold" font-size="14.00">SemanticSearchEngine</text>
<text xml:space="preserve" text-anchor="start" x="341.62" y="-93.2" font-family="Helvetica,sans-Serif" font-size="14.00">+ retrieve(query): list&lt;CallRecord&gt;</text>
<text xml:space="preserve" text-anchor="start" x="341.62" y="-70.2" font-family="Helvetica,sans-Serif" font-size="14.00">+ rank(results): list&lt;CallRecord&gt;</text>
<polygon fill="none" stroke="black" points="336.62,-63.5 336.62,-134.5 553.62,-134.5 553.62,-63.5 336.62,-63.5"/>
</g>
<!-- DocumentIndexer&#45;&gt;SemanticSearchEngine -->
<g id="edge8" class="edge">
<title>DocumentIndexer&#45;&gt;SemanticSearchEngine</title>
<path fill="none" stroke="#2b6cb0" stroke-width="1.5" d="M240.1,-145.13C265.77,-139.32 292.99,-133.17 318.89,-127.31"/>
<polygon fill="#2b6cb0" stroke="#2b6cb0" stroke-width="1.5" points="319.35,-130.08 326.54,-125.59 318.12,-124.62 319.35,-130.08"/>
<text xml:space="preserve" text-anchor="middle" x="284" y="-141.57" font-family="Helvetica,sans-Serif" font-size="14.00">feeds</text>
</g>
<!-- SemanticSearchEngine&#45;&gt;LLMResponse -->
<g id="edge9" class="edge">
<title>SemanticSearchEngine&#45;&gt;LLMResponse</title>
<path fill="none" stroke="#2b6cb0" stroke-width="1.5" d="M561.42,-85.12C627.72,-77.13 709.2,-67.32 767.73,-60.27"/>
<polygon fill="#2b6cb0" stroke="#2b6cb0" stroke-width="1.5" points="767.79,-63.09 775.4,-59.35 767.12,-57.53 767.79,-63.09"/>
<text xml:space="preserve" text-anchor="middle" x="633.25" y="-83.8" font-family="Helvetica,sans-Serif" font-size="14.00">packages context</text>
</g>
</g>
</svg>
