<svg xmlns="http://www.w3.org/2000/svg" xmlns:xlink="http://www.w3.org/1999/xlink" contentStyleType="text/css" data-diagram-type="CLASS" height="545px" preserveAspectRatio="none" style="width:1663px;height:545px;background:#FFFFFF;" version="1.1" viewBox="0 0 1663 545" width="1663px" zoomAndPan="magnify"><defs/><g><!--class EmbeddingProvider--><g class="entity" data-entity="EmbeddingProvider" data-source-line="2" data-uid="ent0002" id="entity_EmbeddingProvider"><rect fill="#F1F1F1" height="80.5938" rx="2.5" ry="2.5" style="stroke:#181818;stroke-width:0.5;" width="285.2529" x="1371.22" y="400.9"/><ellipse cx="1440.7962" cy="416.9" fill="#A9DCDF" rx="11" ry="11" style="stroke:#181818;stroke-width:1;"/><path d="M1440.9055,412.2438 L1439.7493,417.3219 L1442.0774,417.3219 L1440.9055,412.2438 Z M1439.4212,410.0094 L1442.4055,410.0094 L1445.7649,422.4 L1443.3118,422.4 L1442.5462,419.3375 L1439.2649,419.3375 L1438.5149,422.4 L1436.0774,422.4 L1439.4212,410.0094 Z " fill="#000000"/><text fill="#000000" font-family="sans-serif" font-size="14" font-style="italic" lengthAdjust="spacing" textLength="137.6006" x="1461.2962" y="421.7467">EmbeddingProvider</text><line style="stroke:#181818;stroke-width:0.5;" x1="1372.22" x2="1655.4729" y1="432.9" y2="432.9"/><line style="stroke:#181818;stroke-width:0.5;" x1="1372.22" x2="1655.4729" y1="440.9" y2="440.9"/><ellipse cx="1382.22" cy="454.5484" fill="#84BE84" rx="3" ry="3" style="stroke:#038048;stroke-width:1;"/><text fill="#000000" font-family="sans-serif" font-size="14" font-style="italic" lengthAdjust="spacing" textLength="259.2529" x="1391.22" y="457.8951">generate(texts: list[str]) : np.ndarray</text><ellipse cx="1382.22" cy="470.8453" fill="#84BE84" rx="3" ry="3" style="stroke:#038048;stroke-width:1;"/><text fill="#000000" font-family="sans-serif" font-size="14" font-style="italic" lengthAdjust="spacing" textLength="145.3047" x="1391.22" y="474.192">get_dimension() : int</text></g><!--class SentenceTransformerProvider--><g class="entity" data-entity="SentenceTransformerProvider" data-source-line="7" data-uid="ent0003" id="entity_SentenceTransformerProvider"><rect fill="#F1F1F1" height="145.7813" rx="2.5" ry="2.5" style="stroke:#181818;stroke-width:0.5;" width="343.7002" x="7" y="368.3"/><ellipse cx="69.5181" cy="384.3" fill="#ADD1B2" rx="11" ry="11" style="stroke:#181818;stroke-width:1;"/><path d="M72.4868,389.9406 Q71.9087,390.2375 71.2681,390.3781 Q70.6274,390.5344 69.9243,390.5344 Q67.4243,390.5344 66.0962,388.8937 Q64.7837,387.2375 64.7837,384.1125 Q64.7837,380.9875 66.0962,379.3312 Q67.4243,377.675 69.9243,377.675 Q70.6274,377.675 71.2681,377.8312 Q71.9243,377.9875 72.4868,378.2844 L72.4868,381.0031 Q71.8618,380.425 71.2681,380.1594 Q70.6743,379.8781 70.0493,379.8781 Q68.7056,379.8781 68.0181,380.9562 Q67.3306,382.0187 67.3306,384.1125 Q67.3306,386.2062 68.0181,387.2844 Q68.7056,388.3469 70.0493,388.3469 Q70.6743,388.3469 71.2681,388.0812 Q71.8618,387.8 72.4868,387.2219 L72.4868,389.9406 Z " fill="#000000"/><text fill="#000000" font-family="sans-serif" font-size="14" lengthAdjust="spacing" textLength="210.1641" x="90.0181" y="389.1467">SentenceTransformerProvider</text><line style="stroke:#181818;stroke-width:0.5;" x1="8" x2="349.7002" y1="400.3" y2="400.3"/><rect fill="none" height="6" style="stroke:#C82930;stroke-width:1;" width="6" x="15" y="410.9484"/><text fill="#000000" font-family="sans-serif" font-size="14" lengthAdjust="spacing" textLength="43.5928" x="27" y="417.2951">model</text><rect fill="none" height="6" style="stroke:#C82930;stroke-width:1;" width="6" x="15" y="427.2453"/><text fill="#000000" font-family="sans-serif" font-size="14" lengthAdjust="spacing" textLength="99.9414" x="27" y="433.592">dimension: int</text><rect fill="none" height="6" style="stroke:#C82930;stroke-width:1;" width="6" x="15" y="443.5422"/><text fill="#000000" font-family="sans-serif" font-size="14" lengthAdjust="spacing" textLength="102.2656" x="27" y="449.8889">available: bool</text><line style="stroke:#181818;stroke-width:0.5;" x1="8" x2="349.7002" y1="457.1906" y2="457.1906"/><ellipse cx="18" cy="470.8391" fill="#84BE84" rx="3" ry="3" style="stroke:#038048;stroke-width:1;"/><text fill="#000000" font-family="sans-serif" font-size="14" lengthAdjust="spacing" textLength="317.7002" x="27" y="474.1857">__init__(model_name: str="all-MiniLM-L6-v2")</text><ellipse cx="18" cy="487.1359" fill="#84BE84" rx="3" ry="3" style="stroke:#038048;stroke-width:1;"/><text fill="#000000" font-family="sans-serif" font-size="14" lengthAdjust="spacing" textLength="259.2529" x="27" y="490.4826">generate(texts: list[str]) : np.ndarray</text><ellipse cx="18" cy="503.4328" fill="#84BE84" rx="3" ry="3" style="stroke:#038048;stroke-width:1;"/><text fill="#000000" font-family="sans-serif" font-size="14" lengthAdjust="spacing" textLength="145.3047" x="27" y="506.7795">get_dimension() : int</text></g><!--class OllamaEmbeddingProvider--><g class="entity" data-entity="OllamaEmbeddingProvider" data-source-line="16" data-uid="ent0004" id="entity_OllamaEmbeddingProvider"><rect fill="#F1F1F1" height="194.6719" rx="2.5" ry="2.5" style="stroke:#181818;stroke-width:0.5;" width="590.5322" x="385.58" y="343.86"/><ellipse cx="582.9985" cy="359.86" fill="#ADD1B2" rx="11" ry="11" style="stroke:#181818;stroke-width:1;"/><path d="M585.9672,365.5006 Q585.3891,365.7975 584.7485,365.9381 Q584.1078,366.0944 583.4047,366.0944 Q580.9047,366.0944 579.5766,364.4538 Q578.2641,362.7975 578.2641,359.6725 Q578.2641,356.5475 579.5766,354.8913 Q580.9047,353.235 583.4047,353.235 Q584.1078,353.235 584.7485,353.3913 Q585.4047,353.5475 585.9672,353.8444 L585.9672,356.5631 Q585.3422,355.985 584.7485,355.7194 Q584.1547,355.4381 583.5297,355.4381 Q582.186,355.4381 581.4985,356.5163 Q580.811,357.5788 580.811,359.6725 Q580.811,361.7663 581.4985,362.8444 Q582.186,363.9069 583.5297,363.9069 Q584.1547,363.9069 584.7485,363.6413 Q585.3422,363.36 585.9672,362.7819 L585.9672,365.5006 Z " fill="#000000"/><text fill="#000000" font-family="sans-serif" font-size="14" lengthAdjust="spacing" textLength="187.1953" x="603.4985" y="364.7067">OllamaEmbeddingProvider</text><line style="stroke:#181818;stroke-width:0.5;" x1="386.58" x2="975.1122" y1="375.86" y2="375.86"/><rect fill="none" height="6" style="stroke:#C82930;stroke-width:1;" width="6" x="393.58" y="386.5084"/><text fill="#000000" font-family="sans-serif" font-size="14" lengthAdjust="spacing" textLength="71.2988" x="405.58" y="392.8551">model: str</text><rect fill="none" height="6" style="stroke:#C82930;stroke-width:1;" width="6" x="393.58" y="402.8053"/><text fill="#000000" font-family="sans-serif" font-size="14" lengthAdjust="spacing" textLength="89.7832" x="405.58" y="409.152">endpoint: str</text><rect fill="none" height="6" style="stroke:#C82930;stroke-width:1;" width="6" x="393.58" y="419.1022"/><text fill="#000000" font-family="sans-serif" font-size="14" lengthAdjust="spacing" textLength="99.9414" x="405.58" y="425.4489">dimension: int</text><rect fill="none" height="6" style="stroke:#C82930;stroke-width:1;" width="6" x="393.58" y="435.3991"/><text fill="#000000" font-family="sans-serif" font-size="14" lengthAdjust="spacing" textLength="102.2656" x="405.58" y="441.7457">available: bool</text><line style="stroke:#181818;stroke-width:0.5;" x1="386.58" x2="975.1122" y1="449.0475" y2="449.0475"/><ellipse cx="396.58" cy="462.6959" fill="#84BE84" rx="3" ry="3" style="stroke:#038048;stroke-width:1;"/><text fill="#000000" font-family="sans-serif" font-size="14" lengthAdjust="spacing" textLength="564.5322" x="405.58" y="466.0426">__init__(model: str="nomic-embed-text", endpoint: str="http://localhost:11434")</text><rect fill="#F24D5C" height="6" style="stroke:#C82930;stroke-width:1;" width="6" x="393.58" y="475.9928"/><text fill="#000000" font-family="sans-serif" font-size="14" lengthAdjust="spacing" textLength="172.4707" x="405.58" y="482.3395">_test_connection() : bool</text><rect fill="#F24D5C" height="6" style="stroke:#C82930;stroke-width:1;" width="6" x="393.58" y="492.2897"/><text fill="#000000" font-family="sans-serif" font-size="14" lengthAdjust="spacing" textLength="152.3047" x="405.58" y="498.6364">_get_dimension() : int</text><ellipse cx="396.58" cy="511.5866" fill="#84BE84" rx="3" ry="3" style="stroke:#038048;stroke-width:1;"/><text fill="#000000" font-family="sans-serif" font-size="14" lengthAdjust="spacing" textLength="259.2529" x="405.58" y="514.9332">generate(texts: list[str]) : np.ndarray</text><ellipse cx="396.58" cy="527.8834" fill="#84BE84" rx="3" ry="3" style="stroke:#038048;stroke-width:1;"/><text fill="#000000" font-family="sans-serif" font-size="14" lengthAdjust="spacing" textLength="145.3047" x="405.58" y="531.2301">get_dimension() : int</text></g><!--class HashEmbeddingProvider--><g class="entity" data-entity="HashEmbeddingProvider" data-source-line="28" data-uid="ent0005" id="entity_HashEmbeddingProvider"><rect fill="#F1F1F1" height="145.7813" rx="2.5" ry="2.5" style="stroke:#181818;stroke-width:0.5;" width="324.7305" x="1011.48" y="368.3"/><ellipse cx="1083.1582" cy="384.3" fill="#ADD1B2" rx="11" ry="11" style="stroke:#181818;stroke-width:1;"/><path d="M1086.127,389.9406 Q1085.5488,390.2375 1084.9082,390.3781 Q1084.2676,390.5344 1083.5645,390.5344 Q1081.0645,390.5344 1079.7363,388.8937 Q1078.4238,387.2375 1078.4238,384.1125 Q1078.4238,380.9875 1079.7363,379.3312 Q1081.0645,377.675 1083.5645,377.675 Q1084.2676,377.675 1084.9082,377.8312 Q1085.5645,377.9875 1086.127,378.2844 L1086.127,381.0031 Q1085.502,380.425 1084.9082,380.1594 Q1084.3145,379.8781 1083.6895,379.8781 Q1082.3457,379.8781 1081.6582,380.9562 Q1080.9707,382.0187 1080.9707,384.1125 Q1080.9707,386.2062 1081.6582,387.2844 Q1082.3457,388.3469 1083.6895,388.3469 Q1084.3145,388.3469 1084.9082,388.0812 Q1085.502,387.8 1086.127,387.2219 L1086.127,389.9406 Z " fill="#000000"/><text fill="#000000" font-family="sans-serif" font-size="14" lengthAdjust="spacing" textLength="172.874" x="1103.6582" y="389.1467">HashEmbeddingProvider</text><line style="stroke:#181818;stroke-width:0.5;" x1="1012.48" x2="1335.2105" y1="400.3" y2="400.3"/><rect fill="none" height="6" style="stroke:#C82930;stroke-width:1;" width="6" x="1019.48" y="410.9484"/><text fill="#000000" font-family="sans-serif" font-size="14" lengthAdjust="spacing" textLength="99.9414" x="1031.48" y="417.2951">dimension: int</text><rect fill="none" height="6" style="stroke:#C82930;stroke-width:1;" width="6" x="1019.48" y="427.2453"/><text fill="#000000" font-family="sans-serif" font-size="14" lengthAdjust="spacing" textLength="60.8262" x="1031.48" y="433.592">seed: int</text><rect fill="none" height="6" style="stroke:#C82930;stroke-width:1;" width="6" x="1019.48" y="443.5422"/><text fill="#000000" font-family="sans-serif" font-size="14" lengthAdjust="spacing" textLength="102.2656" x="1031.48" y="449.8889">available: bool</text><line style="stroke:#181818;stroke-width:0.5;" x1="1012.48" x2="1335.2105" y1="457.1906" y2="457.1906"/><ellipse cx="1022.48" cy="470.8391" fill="#84BE84" rx="3" ry="3" style="stroke:#038048;stroke-width:1;"/><text fill="#000000" font-family="sans-serif" font-size="14" lengthAdjust="spacing" textLength="298.7305" x="1031.48" y="474.1857">__init__(dimension: int=384, seed: int=42)</text><ellipse cx="1022.48" cy="487.1359" fill="#84BE84" rx="3" ry="3" style="stroke:#038048;stroke-width:1;"/><text fill="#000000" font-family="sans-serif" font-size="14" lengthAdjust="spacing" textLength="259.2529" x="1031.48" y="490.4826">generate(texts: list[str]) : np.ndarray</text><ellipse cx="1022.48" cy="503.4328" fill="#84BE84" rx="3" ry="3" style="stroke:#038048;stroke-width:1;"/><text fill="#000000" font-family="sans-serif" font-size="14" lengthAdjust="spacing" textLength="145.3047" x="1031.48" y="506.7795">get_dimension() : int</text></g><!--class EmbeddingManager--><g class="entity" data-entity="EmbeddingManager" data-source-line="37" data-uid="ent0006" id="entity_EmbeddingManager"><rect fill="#F1F1F1" height="259.8594" rx="2.5" ry="2.5" style="stroke:#181818;stroke-width:0.5;" width="910.4746" x="471.61" y="7"/><ellipse cx="852.2111" cy="23" fill="#ADD1B2" rx="11" ry="11" style="stroke:#181818;stroke-width:1;"/><path d="M855.1798,28.6406 Q854.6017,28.9375 853.9611,29.0781 Q853.3204,29.2344 852.6173,29.2344 Q850.1173,29.2344 848.7892,27.5938 Q847.4767,25.9375 847.4767,22.8125 Q847.4767,19.6875 848.7892,18.0313 Q850.1173,16.375 852.6173,16.375 Q853.3204,16.375 853.9611,16.5313 Q854.6173,16.6875 855.1798,16.9844 L855.1798,19.7031 Q854.5548,19.125 853.9611,18.8594 Q853.3673,18.5781 852.7423,18.5781 Q851.3986,18.5781 850.7111,19.6563 Q850.0236,20.7188 850.0236,22.8125 Q850.0236,24.9063 850.7111,25.9844 Q851.3986,27.0469 852.7423,27.0469 Q853.3673,27.0469 853.9611,26.7813 Q854.5548,26.5 855.1798,25.9219 L855.1798,28.6406 Z " fill="#000000"/><text fill="#000000" font-family="sans-serif" font-size="14" lengthAdjust="spacing" textLength="140.7725" x="872.7111" y="27.8467">EmbeddingManager</text><line style="stroke:#181818;stroke-width:0.5;" x1="472.61" x2="1381.0846" y1="39" y2="39"/><rect fill="none" height="6" style="stroke:#C82930;stroke-width:1;" width="6" x="479.61" y="49.6484"/><text fill="#000000" font-family="sans-serif" font-size="14" lengthAdjust="spacing" textLength="77.9707" x="491.61" y="55.9951">config: dict</text><rect fill="none" height="6" style="stroke:#C82930;stroke-width:1;" width="6" x="479.61" y="65.9453"/><text fill="#000000" font-family="sans-serif" font-size="14" lengthAdjust="spacing" textLength="133.0479" x="491.61" y="72.292">provider_name: str</text><rect fill="none" height="6" style="stroke:#C82930;stroke-width:1;" width="6" x="479.61" y="82.2422"/><text fill="#000000" font-family="sans-serif" font-size="14" lengthAdjust="spacing" textLength="76.5898" x="491.61" y="88.5889">cache: dict</text><rect fill="none" height="6" style="stroke:#C82930;stroke-width:1;" width="6" x="479.61" y="98.5391"/><text fill="#000000" font-family="sans-serif" font-size="14" lengthAdjust="spacing" textLength="143.876" x="491.61" y="104.8857">cache_enabled: bool</text><rect fill="none" height="6" style="stroke:#C82930;stroke-width:1;" width="6" x="479.61" y="114.8359"/><text fill="#000000" font-family="sans-serif" font-size="14" lengthAdjust="spacing" textLength="205.4063" x="491.61" y="121.1826">provider: EmbeddingProvider</text><line style="stroke:#181818;stroke-width:0.5;" x1="472.61" x2="1381.0846" y1="128.4844" y2="128.4844"/><ellipse cx="482.61" cy="142.1328" fill="#84BE84" rx="3" ry="3" style="stroke:#038048;stroke-width:1;"/><text fill="#000000" font-family="sans-serif" font-size="14" lengthAdjust="spacing" textLength="139.0361" x="491.61" y="145.4795">__init__(config: dict)</text><rect fill="#F24D5C" height="6" style="stroke:#C82930;stroke-width:1;" width="6" x="479.61" y="155.4297"/><text fill="#000000" font-family="sans-serif" font-size="14" lengthAdjust="spacing" textLength="293.1318" x="491.61" y="161.7764">_initialize_provider() : EmbeddingProvider</text><ellipse cx="482.61" cy="174.7266" fill="#84BE84" rx="3" ry="3" style="stroke:#038048;stroke-width:1;"/><text fill="#000000" font-family="sans-serif" font-size="14" lengthAdjust="spacing" textLength="517.46" x="491.61" y="178.0732">generate_embeddings(texts: list[str], use_cache: bool=True) : np.ndarray</text><rect fill="#F24D5C" height="6" style="stroke:#C82930;stroke-width:1;" width="6" x="479.61" y="188.0234"/><text fill="#000000" font-family="sans-serif" font-size="14" lengthAdjust="spacing" textLength="209.1182" x="491.61" y="194.3701">_get_cache_key(text: str) : str</text><ellipse cx="482.61" cy="207.3203" fill="#84BE84" rx="3" ry="3" style="stroke:#038048;stroke-width:1;"/><text fill="#000000" font-family="sans-serif" font-size="14" lengthAdjust="spacing" textLength="757.8936" x="491.61" y="210.667">compute_similarity(embeddings1: np.ndarray, embeddings2: np.ndarray, metric: str="cosine") : np.ndarray</text><ellipse cx="482.61" cy="223.6172" fill="#84BE84" rx="3" ry="3" style="stroke:#038048;stroke-width:1;"/><text fill="#000000" font-family="sans-serif" font-size="14" lengthAdjust="spacing" textLength="884.4746" x="491.61" y="226.9639">find_most_similar(query_embedding: np.ndarray, candidate_embeddings: np.ndarray, top_k: int=5, metric: str="cosine") : list</text><ellipse cx="482.61" cy="239.9141" fill="#84BE84" rx="3" ry="3" style="stroke:#038048;stroke-width:1;"/><text fill="#000000" font-family="sans-serif" font-size="14" lengthAdjust="spacing" textLength="93.9189" x="491.61" y="243.2607">clear_cache()</text><ellipse cx="482.61" cy="256.2109" fill="#84BE84" rx="3" ry="3" style="stroke:#038048;stroke-width:1;"/><text fill="#000000" font-family="sans-serif" font-size="14" lengthAdjust="spacing" textLength="106.75" x="491.61" y="259.5576">get_info() : dict</text></g><!--link SentenceTransformerProvider to EmbeddingProvider--><g class="link" data-entity-1="SentenceTransformerProvider" data-entity-2="EmbeddingProvider" data-source-line="54" data-uid="lnk7" id="link_SentenceTransformerProvider_EmbeddingProvider"><path codeLine="54" d="M265.58,367.94 C300.5,342.98 342.6,318.16 385.35,305.36 C486.58,275.05 1236.27,271.46 1336.35,305.36 C1391.66,324.09 1430.4947,355.0898 1463.6447,387.8898" fill="none" id="SentenceTransformerProvider-to-EmbeddingProvider" style="stroke:#181818;stroke-width:1;"/><polygon fill="none" points="1476.44,400.55,1467.8648,383.6247,1459.4246,392.1549,1476.44,400.55" style="stroke:#181818;stroke-width:1;"/></g><!--link OllamaEmbeddingProvider to EmbeddingProvider--><g class="link" data-entity-1="OllamaEmbeddingProvider" data-entity-2="EmbeddingProvider" data-source-line="55" data-uid="lnk8" id="link_OllamaEmbeddingProvider_EmbeddingProvider"><path codeLine="55" d="M886.54,343.46 C1017.45,294.66 1189.4,255.58 1336.35,305.36 C1391.66,324.09 1430.4947,355.0898 1463.6447,387.8898" fill="none" id="OllamaEmbeddingProvider-to-EmbeddingProvider" style="stroke:#181818;stroke-width:1;"/><polygon fill="none" points="1476.44,400.55,1467.8648,383.6247,1459.4246,392.1549,1476.44,400.55" style="stroke:#181818;stroke-width:1;"/></g><!--link HashEmbeddingProvider to EmbeddingProvider--><g class="link" data-entity-1="HashEmbeddingProvider" data-entity-2="EmbeddingProvider" data-source-line="56" data-uid="lnk9" id="link_HashEmbeddingProvider_EmbeddingProvider"><path codeLine="56" d="M1336.55,441.19 C1347.97,441.19 1341.4,441.19 1352.83,441.19" fill="none" id="HashEmbeddingProvider-to-EmbeddingProvider" style="stroke:#181818;stroke-width:1;"/><polygon fill="none" points="1370.83,441.19,1352.83,435.19,1352.83,447.19,1370.83,441.19" style="stroke:#181818;stroke-width:1;"/></g><!--link EmbeddingManager to EmbeddingProvider--><g class="link" data-entity-1="EmbeddingManager" data-entity-2="EmbeddingProvider" data-source-line="59" data-uid="lnk10" id="link_EmbeddingManager_EmbeddingProvider"><path codeLine="59" d="M1204.66,267.3 C1254.74,291.92 1306.16,318.07 1353.85,343.86 C1386.51,361.52 1416.8496,379.5061 1446.0596,397.4761" fill="none" id="EmbeddingManager-to-EmbeddingProvider" style="stroke:#181818;stroke-width:1;"/><polygon fill="#181818" points="1451.17,400.62,1445.6004,392.4972,1446.9114,398.0001,1441.4085,399.3111,1451.17,400.62" style="stroke:#181818;stroke-width:1;"/><text fill="#000000" font-family="sans-serif" font-size="13" lengthAdjust="spacing" textLength="89.1909" x="1297.85" y="309.9269">uses/contains</text></g><!--link EmbeddingManager to SentenceTransformerProvider--><g class="link" data-entity-1="EmbeddingManager" data-entity-2="SentenceTransformerProvider" data-source-line="60" data-uid="lnk11" id="link_EmbeddingManager_SentenceTransformerProvider"><path codeLine="60" d="M556.79,267.22 C493.25,291.42 428.26,317.45 367.85,343.86 C350.89,351.27 338.7068,356.868 321.3968,365.278" fill="none" id="EmbeddingManager-to-SentenceTransformerProvider" style="stroke:#181818;stroke-width:1;"/><polygon fill="#181818" points="316,367.9,325.8432,367.5648,320.4973,365.715,322.3472,360.3692,316,367.9" style="stroke:#181818;stroke-width:1;"/><text fill="#000000" font-family="sans-serif" font-size="13" lengthAdjust="spacing" textLength="86.6392" x="474.85" y="309.9269">may initialize</text></g><!--link EmbeddingManager to OllamaEmbeddingProvider--><g class="link" data-entity-1="EmbeddingManager" data-entity-2="OllamaEmbeddingProvider" data-source-line="61" data-uid="lnk12" id="link_EmbeddingManager_OllamaEmbeddingProvider"><path codeLine="61" d="M821.81,266.99 C800.92,292.67 783.0967,314.5559 763.2767,338.9159" fill="none" id="EmbeddingManager-to-OllamaEmbeddingProvider" style="stroke:#181818;stroke-width:1;"/><polygon fill="#181818" points="759.49,343.57,768.2728,339.1133,762.6456,339.6916,762.0673,334.0644,759.49,343.57" style="stroke:#181818;stroke-width:1;"/><text fill="#000000" font-family="sans-serif" font-size="13" lengthAdjust="spacing" textLength="86.6392" x="797.85" y="309.9269">may initialize</text></g><!--link EmbeddingManager to HashEmbeddingProvider--><g class="link" data-entity-1="EmbeddingManager" data-entity-2="HashEmbeddingProvider" data-source-line="62" data-uid="lnk13" id="link_EmbeddingManager_HashEmbeddingProvider"><path codeLine="62" d="M1032.32,266.99 C1060.64,301.65 1086.4531,333.2442 1111.2331,363.5642" fill="none" id="EmbeddingManager-to-HashEmbeddingProvider" style="stroke:#181818;stroke-width:1;"/><polygon fill="#181818" points="1115.03,368.21,1112.4318,358.71,1111.8659,364.3385,1106.2374,363.7726,1115.03,368.21" style="stroke:#181818;stroke-width:1;"/><text fill="#000000" font-family="sans-serif" font-size="13" lengthAdjust="spacing" textLength="50.6606" x="1065.85" y="309.9269">fallback</text></g><!--SRC=[hLLTYnen57sVNn5ysP5rAhgsb04BfHHQM6cX-rPAk6Qk6imaqoHAxNR_U-zyEGx6hPHzStBF_JZddiGRzdxfl0NXMM7DNcPe8sXFX0BdsCTyYLaczVfh0s2F4MEFBUg9tR8rQhJWCVRuoxkKAUdyTmh_6BAKwUALpi1QE9odUPx97BMJHiSbLceVFKLHtVWRQezQu8C5xLR6vcXx8oGiDncgwjUnJ5sZF88zI0LBXIbR6bF2RXddKalFULnbSWqvHMcW-G2KIXOKl5yazs-I_NGmh1AkP_PFEb-KWXp2QZPKgbcgJzHPOIYzE_alXWqvRN8f4YnR9oMHmQZVO3xOU5-aux4o0jJ6E9zE9hExMIL2mhX7vxamMgFmBRUc8qN3l5zOlK_WDfUq2qZZ4BChXUfdp-_UpaPT-dmsVN4Z76aiGCFwo8BqNSbrIcn4FNLx8JkRrZWG6po1LTySTSalEzbBcvwUt-2-0AUDcuMN4GbA_aRUbgbuX2krsd1im-vCfX7REUJDxEMCymUxmpFn6ZlLdBPugEfKt4jeBS4jIPKNE-hdP4vxjT8VugxrvBGa6VqOcFO3ENehHUD_OPpKE0WiSoLrndEw4cst-ESExQ7ZsgygG6SowulHHtXJy6rjhjUNfoY5gxag15iB4W-Fzf9wPQgDL3OWQzsmptg390NGYnazztGcVzu5zdZfTGgZmxSnZANHFj2-Y5hvTh0n6O5S7vtTWYG9P1D3yeqRaqSzIEt2QS_HJLaE1zOPEbpX4lthiiDof6n5_ofB4Dk_]--></g></svg>