<?xml version="1.0" encoding="UTF-8" standalone="no"?>
<!DOCTYPE svg PUBLIC "-//W3C//DTD SVG 1.1//EN"
 "http://www.w3.org/Graphics/SVG/1.1/DTD/svg11.dtd">
<!-- Generated by graphviz version 14.0.1 (20251006.0113)
 -->
<!-- Title: Component Pages: 1 -->
<svg width="783pt" height="463pt"
 viewBox="0.00 0.00 783.00 463.00" xmlns="http://www.w3.org/2000/svg" xmlns:xlink="http://www.w3.org/1999/xlink">
<g id="graph0" class="graph" transform="scale(1 1) rotate(0) translate(4 458.87)">
<title>Component</title>
<polygon fill="white" stroke="none" points="-4,4 -4,-458.87 779,-458.87 779,4 -4,4"/>
<text xml:space="preserve" text-anchor="middle" x="387.5" y="-439.47" font-family="Helvetica,sans-Serif" font-size="12.00">Call Analytics Components</text>
<g id="clust1" class="cluster">
<title>cluster_ui</title>
<path fill="none" stroke="#2b6cb0" d="M12,-158.12C12,-158.12 127.75,-158.12 127.75,-158.12 133.75,-158.12 139.75,-164.12 139.75,-170.12 139.75,-170.12 139.75,-277.12 139.75,-277.12 139.75,-283.12 133.75,-289.12 127.75,-289.12 127.75,-289.12 12,-289.12 12,-289.12 6,-289.12 0,-283.12 0,-277.12 0,-277.12 0,-170.12 0,-170.12 0,-164.12 6,-158.12 12,-158.12"/>
<text xml:space="preserve" text-anchor="middle" x="69.88" y="-273.72" font-family="Helvetica,sans-Serif" font-size="12.00">Analytics &amp; Experience</text>
</g>
<g id="clust2" class="cluster">
<title>cluster_ingest</title>
<path fill="none" stroke="#2f855a" d="M221.5,-295.12C221.5,-295.12 350.75,-295.12 350.75,-295.12 356.75,-295.12 362.75,-301.12 362.75,-307.12 362.75,-307.12 362.75,-414.12 362.75,-414.12 362.75,-420.12 356.75,-426.12 350.75,-426.12 350.75,-426.12 221.5,-426.12 221.5,-426.12 215.5,-426.12 209.5,-420.12 209.5,-414.12 209.5,-414.12 209.5,-307.12 209.5,-307.12 209.5,-301.12 215.5,-295.12 221.5,-295.12"/>
<text xml:space="preserve" text-anchor="middle" x="286.12" y="-410.72" font-family="Helvetica,sans-Serif" font-size="12.00">Ingestion &amp; Normalisation</text>
</g>
<g id="clust3" class="cluster">
<title>cluster_stt</title>
<path fill="none" stroke="#b83280" d="M241.88,-212.12C241.88,-212.12 557.25,-212.12 557.25,-212.12 563.25,-212.12 569.25,-218.12 569.25,-224.12 569.25,-224.12 569.25,-275.12 569.25,-275.12 569.25,-281.12 563.25,-287.12 557.25,-287.12 557.25,-287.12 241.87,-287.12 241.87,-287.12 235.88,-287.12 229.88,-281.12 229.88,-275.12 229.88,-275.12 229.88,-224.12 229.88,-224.12 229.88,-218.12 235.88,-212.12 241.88,-212.12"/>
<text xml:space="preserve" text-anchor="middle" x="399.56" y="-271.72" font-family="Helvetica,sans-Serif" font-size="12.00">Speech&#45;to&#45;Text &amp; Labeling</text>
</g>
<g id="clust4" class="cluster">
<title>cluster_persist</title>
<path fill="none" stroke="#805ad5" d="M445,-118.12C445,-118.12 748.62,-118.12 748.62,-118.12 754.62,-118.12 760.62,-124.12 760.62,-130.12 760.62,-130.12 760.62,-181.12 760.62,-181.12 760.62,-187.12 754.62,-193.12 748.62,-193.12 748.62,-193.12 445,-193.12 445,-193.12 439,-193.12 433,-187.12 433,-181.12 433,-181.12 433,-130.12 433,-130.12 433,-124.12 439,-118.12 445,-118.12"/>
<text xml:space="preserve" text-anchor="middle" x="596.81" y="-177.72" font-family="Helvetica,sans-Serif" font-size="12.00">Persistence &amp; Indexing</text>
</g>
<g id="clust5" class="cluster">
<title>cluster_search</title>
<path fill="none" stroke="#dd6b20" d="M210.75,-35.12C210.75,-35.12 755,-35.12 755,-35.12 761,-35.12 767,-41.12 767,-47.12 767,-47.12 767,-98.12 767,-98.12 767,-104.12 761,-110.12 755,-110.12 755,-110.12 210.75,-110.12 210.75,-110.12 204.75,-110.12 198.75,-104.12 198.75,-98.12 198.75,-98.12 198.75,-47.12 198.75,-47.12 198.75,-41.12 204.75,-35.12 210.75,-35.12"/>
<text xml:space="preserve" text-anchor="middle" x="482.88" y="-94.72" font-family="Helvetica,sans-Serif" font-size="12.00">Semantic Search &amp; LLM</text>
</g>
<!-- Upload -->
<g id="node1" class="node">
<title>Upload</title>
<polygon fill="#ddeafb" stroke="black" points="116.38,-260.12 22.37,-260.12 22.37,-222.12 116.38,-222.12 116.38,-260.12"/>
<text xml:space="preserve" text-anchor="middle" x="69.38" y="-242.82" font-family="Helvetica,sans-Serif" font-size="14.00">Upload Page</text>
<text xml:space="preserve" text-anchor="middle" x="69.38" y="-227.82" font-family="Helvetica,sans-Serif" font-size="14.00">(Streamlit)</text>
</g>
<!-- CSV -->
<g id="node3" class="node">
<title>CSV</title>
<polygon fill="#e6fffa" stroke="black" points="338.62,-341.12 232.62,-341.12 232.62,-303.12 338.62,-303.12 338.62,-341.12"/>
<text xml:space="preserve" text-anchor="middle" x="285.62" y="-323.82" font-family="Helvetica,sans-Serif" font-size="14.00">CSVProcessor</text>
<text xml:space="preserve" text-anchor="middle" x="285.62" y="-308.82" font-family="Helvetica,sans-Serif" font-size="14.00">(validate, map)</text>
</g>
<!-- Upload&#45;&gt;CSV -->
<g id="edge1" class="edge">
<title>Upload&#45;&gt;CSV</title>
<path fill="none" stroke="#2b6cb0" stroke-width="1.6" d="M116.62,-259.45C140.99,-269.03 171.43,-280.87 198.75,-291.12 206.45,-294.01 214.56,-297 222.59,-299.93"/>
<polygon fill="#2b6cb0" stroke="#2b6cb0" stroke-width="1.6" points="221.57,-302.54 230.05,-302.65 223.49,-297.28 221.57,-302.54"/>
</g>
<!-- Audio -->
<g id="node4" class="node">
<title>Audio</title>
<polygon fill="#e6fffa" stroke="black" points="346.12,-397.12 225.12,-397.12 225.12,-359.12 346.12,-359.12 346.12,-397.12"/>
<text xml:space="preserve" text-anchor="middle" x="285.62" y="-379.82" font-family="Helvetica,sans-Serif" font-size="14.00">AudioProcessor</text>
<text xml:space="preserve" text-anchor="middle" x="285.62" y="-364.82" font-family="Helvetica,sans-Serif" font-size="14.00">(normalise audio)</text>
</g>
<!-- Upload&#45;&gt;Audio -->
<g id="edge2" class="edge">
<title>Upload&#45;&gt;Audio</title>
<path fill="none" stroke="#2b6cb0" stroke-width="1.6" d="M88.18,-260.28C111.49,-284.34 154.6,-325.44 198.75,-350.12 203.92,-353.01 209.44,-355.66 215.09,-358.07"/>
<polygon fill="#2b6cb0" stroke="#2b6cb0" stroke-width="1.6" points="213.96,-360.64 222.43,-361.01 216.05,-355.44 213.96,-360.64"/>
</g>
<!-- Analysis -->
<g id="node2" class="node">
<title>Analysis</title>
<polygon fill="#ddeafb" stroke="black" points="120.12,-204.12 18.62,-204.12 18.62,-166.12 120.12,-166.12 120.12,-204.12"/>
<text xml:space="preserve" text-anchor="middle" x="69.38" y="-186.82" font-family="Helvetica,sans-Serif" font-size="14.00">Analysis Page</text>
<text xml:space="preserve" text-anchor="middle" x="69.38" y="-171.82" font-family="Helvetica,sans-Serif" font-size="14.00">(Streamlit)</text>
</g>
<!-- Storage -->
<g id="node7" class="node">
<title>Storage</title>
<polygon fill="#e9d8fd" stroke="black" points="572.5,-164.12 441,-164.12 441,-126.12 572.5,-126.12 572.5,-164.12"/>
<text xml:space="preserve" text-anchor="middle" x="506.75" y="-146.82" font-family="Helvetica,sans-Serif" font-size="14.00">StorageManager</text>
<text xml:space="preserve" text-anchor="middle" x="506.75" y="-131.82" font-family="Helvetica,sans-Serif" font-size="14.00">(tabular snapshots)</text>
</g>
<!-- Analysis&#45;&gt;Storage -->
<g id="edge9" class="edge">
<title>Analysis&#45;&gt;Storage</title>
<path fill="none" stroke="#2b6cb0" stroke-width="1.6" d="M120.32,-180.53C196.27,-173.55 341.34,-160.22 430.22,-152.06"/>
<polygon fill="#2b6cb0" stroke="#2b6cb0" stroke-width="1.6" points="430.39,-154.85 438.1,-151.33 429.87,-149.28 430.39,-154.85"/>
<text xml:space="preserve" text-anchor="middle" x="285.62" y="-176.13" font-family="Times,serif" font-size="14.00" fill="#2f855a">reads</text>
</g>
<!-- SearchEngine -->
<g id="node9" class="node">
<title>SearchEngine</title>
<polygon fill="#feebc8" stroke="black" points="364.5,-81.12 206.75,-81.12 206.75,-43.12 364.5,-43.12 364.5,-81.12"/>
<text xml:space="preserve" text-anchor="middle" x="285.62" y="-63.82" font-family="Helvetica,sans-Serif" font-size="14.00">SemanticSearchEngine</text>
<text xml:space="preserve" text-anchor="middle" x="285.62" y="-48.82" font-family="Helvetica,sans-Serif" font-size="14.00">(retrieve &amp; rank)</text>
</g>
<!-- Analysis&#45;&gt;SearchEngine -->
<g id="edge10" class="edge">
<title>Analysis&#45;&gt;SearchEngine</title>
<path fill="none" stroke="#2b6cb0" stroke-width="1.6" d="M104.32,-165.63C141.62,-144.22 201.59,-109.79 242.02,-86.58"/>
<polygon fill="#2b6cb0" stroke="#2b6cb0" stroke-width="1.6" points="243.19,-89.13 248.74,-82.72 240.4,-84.28 243.19,-89.13"/>
<text xml:space="preserve" text-anchor="middle" x="169.25" y="-141.45" font-family="Times,serif" font-size="14.00" fill="#dd6b20">queries</text>
</g>
<!-- Labeler -->
<g id="node6" class="node">
<title>Labeler</title>
<polygon fill="#fff5f7" stroke="black" points="561.25,-258.12 452.25,-258.12 452.25,-220.12 561.25,-220.12 561.25,-258.12"/>
<text xml:space="preserve" text-anchor="middle" x="506.75" y="-240.82" font-family="Helvetica,sans-Serif" font-size="14.00">LabelingEngine</text>
<text xml:space="preserve" text-anchor="middle" x="506.75" y="-225.82" font-family="Helvetica,sans-Serif" font-size="14.00">(rule scoring)</text>
</g>
<!-- CSV&#45;&gt;Labeler -->
<g id="edge5" class="edge">
<title>CSV&#45;&gt;Labeler</title>
<path fill="none" stroke="#2b6cb0" stroke-width="1.6" d="M338,-302.66C369.89,-290.58 411.05,-274.99 444.62,-262.27"/>
<polygon fill="#2b6cb0" stroke="#2b6cb0" stroke-width="1.6" points="445.56,-264.91 452.05,-259.46 443.58,-259.67 445.56,-264.91"/>
</g>
<!-- Whisper -->
<g id="node5" class="node">
<title>Whisper</title>
<polygon fill="#fff5f7" stroke="black" points="333.38,-258.12 237.88,-258.12 237.88,-220.12 333.38,-220.12 333.38,-258.12"/>
<text xml:space="preserve" text-anchor="middle" x="285.62" y="-240.82" font-family="Helvetica,sans-Serif" font-size="14.00">Whisper STT</text>
<text xml:space="preserve" text-anchor="middle" x="285.62" y="-225.82" font-family="Helvetica,sans-Serif" font-size="14.00">(transcribe)</text>
</g>
<!-- Audio&#45;&gt;Whisper -->
<g id="edge3" class="edge">
<title>Audio&#45;&gt;Whisper</title>
<path fill="none" stroke="#2b6cb0" stroke-width="1.6" d="M224.73,-373.23C203.71,-368.27 182.2,-358.83 169.25,-341.12 158.49,-326.41 159.82,-315.71 169.25,-300.12 182.27,-278.6 205.66,-264.3 228.07,-255"/>
<polygon fill="#2b6cb0" stroke="#2b6cb0" stroke-width="1.6" points="228.88,-257.69 235.32,-252.18 226.85,-252.46 228.88,-257.69"/>
</g>
<!-- Whisper&#45;&gt;Labeler -->
<g id="edge4" class="edge">
<title>Whisper&#45;&gt;Labeler</title>
<path fill="none" stroke="#2b6cb0" stroke-width="1.6" d="M333.63,-239.12C365.22,-239.12 407.25,-239.12 441.86,-239.12"/>
<polygon fill="#2b6cb0" stroke="#2b6cb0" stroke-width="1.6" points="441.46,-241.92 449.46,-239.12 441.46,-236.32 441.46,-241.92"/>
</g>
<!-- Labeler&#45;&gt;Storage -->
<g id="edge6" class="edge">
<title>Labeler&#45;&gt;Storage</title>
<path fill="none" stroke="#2b6cb0" stroke-width="1.6" d="M506.75,-219.9C506.75,-204.92 506.75,-189.93 506.75,-174.95"/>
<polygon fill="#2b6cb0" stroke="#2b6cb0" stroke-width="1.6" points="509.55,-175 506.75,-167 503.95,-175 509.55,-175"/>
</g>
<!-- Indexer -->
<g id="node8" class="node">
<title>Indexer</title>
<polygon fill="#e9d8fd" stroke="black" points="752.62,-164.12 615.88,-164.12 615.88,-126.12 752.62,-126.12 752.62,-164.12"/>
<text xml:space="preserve" text-anchor="middle" x="684.25" y="-146.82" font-family="Helvetica,sans-Serif" font-size="14.00">DocumentIndexer</text>
<text xml:space="preserve" text-anchor="middle" x="684.25" y="-131.82" font-family="Helvetica,sans-Serif" font-size="14.00">(vector store bridge)</text>
</g>
<!-- Storage&#45;&gt;Indexer -->
<g id="edge7" class="edge">
<title>Storage&#45;&gt;Indexer</title>
<path fill="none" stroke="#2b6cb0" stroke-width="1.6" d="M572.6,-145.12C583.18,-145.12 594.24,-145.12 605.1,-145.12"/>
<polygon fill="#2b6cb0" stroke="#2b6cb0" stroke-width="1.6" points="605.01,-147.92 613.01,-145.12 605.01,-142.32 605.01,-147.92"/>
</g>
<!-- Indexer&#45;&gt;SearchEngine -->
<g id="edge8" class="edge">
<title>Indexer&#45;&gt;SearchEngine</title>
<path fill="none" stroke="#2b6cb0" stroke-width="1.6" d="M628.12,-164.55C576.43,-179.7 497.64,-194.86 433,-173.12 383.54,-156.49 337.51,-115.77 310.73,-88.55"/>
<polygon fill="#2b6cb0" stroke="#2b6cb0" stroke-width="1.6" points="312.95,-86.82 305.38,-83.01 308.92,-90.71 312.95,-86.82"/>
</g>
<!-- SearchEngine&#45;&gt;Storage -->
<g id="edge14" class="edge">
<title>SearchEngine&#45;&gt;Storage</title>
<path fill="none" stroke="#2b6cb0" stroke-width="1.6" stroke-dasharray="5,2" d="M338,-81.58C369.89,-93.66 411.05,-109.25 444.62,-121.96"/>
<polygon fill="#2b6cb0" stroke="#2b6cb0" stroke-width="1.6" points="443.58,-124.56 452.05,-124.78 445.56,-119.33 443.58,-124.56"/>
<text xml:space="preserve" text-anchor="middle" x="402.75" y="-116.69" font-family="Times,serif" font-size="14.00" fill="#718096">hydrate</text>
</g>
<!-- Interpreter -->
<g id="node10" class="node">
<title>Interpreter</title>
<polygon fill="#feebc8" stroke="black" points="564.62,-81.12 448.88,-81.12 448.88,-43.12 564.62,-43.12 564.62,-81.12"/>
<text xml:space="preserve" text-anchor="middle" x="506.75" y="-63.82" font-family="Helvetica,sans-Serif" font-size="14.00">QueryInterpreter</text>
<text xml:space="preserve" text-anchor="middle" x="506.75" y="-48.82" font-family="Helvetica,sans-Serif" font-size="14.00">(NL to filters)</text>
</g>
<!-- SearchEngine&#45;&gt;Interpreter -->
<g id="edge11" class="edge">
<title>SearchEngine&#45;&gt;Interpreter</title>
<path fill="none" stroke="#2b6cb0" stroke-width="1.6" d="M364.81,-62.12C388.9,-62.12 415.2,-62.12 438.48,-62.12"/>
<polygon fill="#2b6cb0" stroke="#2b6cb0" stroke-width="1.6" points="438.19,-64.92 446.19,-62.12 438.19,-59.32 438.19,-64.92"/>
</g>
<!-- LLM -->
<g id="node11" class="node">
<title>LLM</title>
<polygon fill="#feebc8" stroke="black" points="759,-81.12 609.5,-81.12 609.5,-43.12 759,-43.12 759,-81.12"/>
<text xml:space="preserve" text-anchor="middle" x="684.25" y="-63.82" font-family="Helvetica,sans-Serif" font-size="14.00">LLM Gateway</text>
<text xml:space="preserve" text-anchor="middle" x="684.25" y="-48.82" font-family="Helvetica,sans-Serif" font-size="14.00">(prompt orchestration)</text>
</g>
<!-- Interpreter&#45;&gt;LLM -->
<g id="edge12" class="edge">
<title>Interpreter&#45;&gt;LLM</title>
<path fill="none" stroke="#2b6cb0" stroke-width="1.6" d="M564.73,-62.12C575.72,-62.12 587.45,-62.12 599.1,-62.12"/>
<polygon fill="#2b6cb0" stroke="#2b6cb0" stroke-width="1.6" points="598.87,-64.92 606.87,-62.12 598.87,-59.32 598.87,-64.92"/>
</g>
<!-- LLM&#45;&gt;Analysis -->
<g id="edge13" class="edge">
<title>LLM&#45;&gt;Analysis</title>
<path fill="none" stroke="#2b6cb0" stroke-width="1.6" d="M627.8,-42.7C534.36,-13.41 341.76,32.01 198.75,-34.12 144.28,-59.31 104.44,-120.26 84.58,-156.56"/>
<polygon fill="#2b6cb0" stroke="#2b6cb0" stroke-width="1.6" points="82.17,-155.14 80.88,-163.52 87.11,-157.77 82.17,-155.14"/>
</g>
</g>
</svg>
