<svg xmlns="http://www.w3.org/2000/svg" xmlns:xlink="http://www.w3.org/1999/xlink" contentStyleType="text/css" data-diagram-type="DESCRIPTION" height="1188px" preserveAspectRatio="none" style="width:2522px;height:1188px;background:#F8FAFC;" version="1.1" viewBox="0 0 2522 1188" width="2522px" zoomAndPan="magnify"><title>Call Analytics System &#8212; High Level Architecture</title><defs/><g><rect fill="#F8FAFC" height="1188" style="stroke:none;stroke-width:1;" width="2522" x="0" y="0"/><g class="title" data-source-line="15"><text fill="#000000" font-family="sans-serif" font-size="14" font-weight="bold" lengthAdjust="spacing" textLength="379.8662" x="1064.5537" y="22.9951">Call Analytics System &#8212; High Level Architecture</text></g><!--cluster Frontend / UI--><g class="cluster" data-entity="Frontend . UI" data-source-line="26" data-uid="ent0008" id="cluster_Frontend . UI"><path d="M1836.28,182.0869 L1940.947,182.0869 A3.75,3.75 0 0 1 1943.447,184.5869 L1950.447,204.3837 L2079.28,204.3837 A2.5,2.5 0 0 1 2081.78,206.8837 L2081.78,293.1869 A2.5,2.5 0 0 1 2079.28,295.6869 L1836.28,295.6869 A2.5,2.5 0 0 1 1833.78,293.1869 L1833.78,184.5869 A2.5,2.5 0 0 1 1836.28,182.0869" fill="none" style="stroke:#000000;stroke-width:1.5;"/><line style="stroke:#000000;stroke-width:1.5;" x1="1833.78" x2="1950.447" y1="204.3837" y2="204.3837"/><text fill="#000000" font-family="sans-serif" font-size="14" font-weight="bold" lengthAdjust="spacing" textLength="103.667" x="1837.78" y="197.082">Frontend / UI</text></g><!--cluster API / Orchestration--><g class="cluster" data-entity="API . Orchestration" data-source-line="30" data-uid="ent0010" id="cluster_API . Orchestration"><path d="M554.28,182.0869 L705.4655,182.0869 A3.75,3.75 0 0 1 707.9655,184.5869 L714.9655,204.3837 L805.28,204.3837 A2.5,2.5 0 0 1 807.78,206.8837 L807.78,439.6269 A2.5,2.5 0 0 1 805.28,442.1269 L554.28,442.1269 A2.5,2.5 0 0 1 551.78,439.6269 L551.78,184.5869 A2.5,2.5 0 0 1 554.28,182.0869" fill="none" style="stroke:#000000;stroke-width:1.5;"/><line style="stroke:#000000;stroke-width:1.5;" x1="551.78" x2="714.9655" y1="204.3837" y2="204.3837"/><text fill="#000000" font-family="sans-serif" font-size="14" font-weight="bold" lengthAdjust="spacing" textLength="150.1855" x="555.78" y="197.082">API / Orchestration</text></g><!--cluster Ingestion & Processing--><g class="cluster" data-entity="Ingestion . Processing" data-source-line="35" data-uid="ent0013" id="cluster_Ingestion . Processing"><path d="M288.28,491.1269 L471.3689,491.1269 A3.75,3.75 0 0 1 473.8689,493.6269 L480.8689,513.4237 L1086.28,513.4237 A2.5,2.5 0 0 1 1088.78,515.9237 L1088.78,602.2169 A2.5,2.5 0 0 1 1086.28,604.7169 L288.28,604.7169 A2.5,2.5 0 0 1 285.78,602.2169 L285.78,493.6269 A2.5,2.5 0 0 1 288.28,491.1269" fill="none" style="stroke:#000000;stroke-width:1.5;"/><line style="stroke:#000000;stroke-width:1.5;" x1="285.78" x2="480.8689" y1="513.4237" y2="513.4237"/><text fill="#000000" font-family="sans-serif" font-size="14" font-weight="bold" lengthAdjust="spacing" textLength="182.0889" x="289.78" y="506.122">Ingestion &amp; Processing</text></g><!--cluster ML & NLP--><g class="cluster" data-entity="ML . NLP" data-source-line="41" data-uid="ent0017" id="cluster_ML . NLP"><path d="M1132.28,653.7169 L1208.988,653.7169 A3.75,3.75 0 0 1 1211.488,656.2169 L1218.488,676.0138 L1606.28,676.0138 A2.5,2.5 0 0 1 1608.78,678.5138 L1608.78,1044.0069 A2.5,2.5 0 0 1 1606.28,1046.5069 L1132.28,1046.5069 A2.5,2.5 0 0 1 1129.78,1044.0069 L1129.78,656.2169 A2.5,2.5 0 0 1 1132.28,653.7169" fill="none" style="stroke:#000000;stroke-width:1.5;"/><line style="stroke:#000000;stroke-width:1.5;" x1="1129.78" x2="1218.488" y1="676.0138" y2="676.0138"/><text fill="#000000" font-family="sans-serif" font-size="14" font-weight="bold" lengthAdjust="spacing" textLength="75.708" x="1133.78" y="668.712">ML &amp; NLP</text></g><!--cluster Indexing & Search--><g class="cluster" data-entity="Indexing . Search" data-source-line="48" data-uid="ent0022" id="cluster_Indexing . Search"><path d="M1170.28,491.1269 L1315.9421,491.1269 A3.75,3.75 0 0 1 1318.4421,493.6269 L1325.4421,513.4237 L2201.28,513.4237 A2.5,2.5 0 0 1 2203.78,515.9237 L2203.78,602.2169 A2.5,2.5 0 0 1 2201.28,604.7169 L1170.28,604.7169 A2.5,2.5 0 0 1 1167.78,602.2169 L1167.78,493.6269 A2.5,2.5 0 0 1 1170.28,491.1269" fill="none" style="stroke:#000000;stroke-width:1.5;"/><line style="stroke:#000000;stroke-width:1.5;" x1="1167.78" x2="1325.4421" y1="513.4237" y2="513.4237"/><text fill="#000000" font-family="sans-serif" font-size="14" font-weight="bold" lengthAdjust="spacing" textLength="144.6621" x="1171.78" y="506.122">Indexing &amp; Search</text></g><!--entity UI--><g class="entity" data-entity="UI" data-source-line="27" data-uid="ent0009" id="entity_UI"><rect fill="#FFFFFF" height="62.5938" rx="4" ry="4" style="stroke:#1366D6;stroke-width:0.5;" width="216.4492" x="1849.55" y="217.0869"/><rect fill="#FFFFFF" height="10" style="stroke:#1366D6;stroke-width:0.5;" width="15" x="2045.9992" y="222.0869"/><rect fill="#FFFFFF" height="2" style="stroke:#1366D6;stroke-width:0.5;" width="4" x="2043.9992" y="224.0869"/><rect fill="#FFFFFF" height="2" style="stroke:#1366D6;stroke-width:0.5;" width="4" x="2043.9992" y="228.0869"/><text fill="#0F172A" font-family="sans-serif" font-size="14" lengthAdjust="spacing" textLength="96.0313" x="1864.55" y="250.082">Streamlit App</text><text fill="#0F172A" font-family="sans-serif" font-size="14" lengthAdjust="spacing" textLength="176.4492" x="1864.55" y="266.3789">(src/ui/app.py + pages/*)</text></g><!--entity ORCH--><g class="entity" data-entity="ORCH" data-source-line="31" data-uid="ent0011" id="entity_ORCH"><rect fill="#FFFFFF" height="62.5938" rx="4" ry="4" style="stroke:#1366D6;stroke-width:0.5;" width="223.5107" x="568.02" y="363.5369"/><rect fill="#FFFFFF" height="10" style="stroke:#1366D6;stroke-width:0.5;" width="15" x="771.5307" y="368.5369"/><rect fill="#FFFFFF" height="2" style="stroke:#1366D6;stroke-width:0.5;" width="4" x="769.5307" y="370.5369"/><rect fill="#FFFFFF" height="2" style="stroke:#1366D6;stroke-width:0.5;" width="4" x="769.5307" y="374.5369"/><text fill="#0F172A" font-family="sans-serif" font-size="14" lengthAdjust="spacing" textLength="137.7988" x="583.02" y="396.532">PipelineCoordinator</text><text fill="#0F172A" font-family="sans-serif" font-size="14" lengthAdjust="spacing" textLength="183.5107" x="583.02" y="412.8289">(orchestrator / job runner)</text></g><!--entity SCHED--><g class="entity" data-entity="SCHED" data-source-line="32" data-uid="ent0012" id="entity_SCHED"><rect fill="#FFFFFF" height="62.5938" rx="4" ry="4" style="stroke:#1366D6;stroke-width:0.5;" width="165.1797" x="568.19" y="217.0869"/><rect fill="#FFFFFF" height="10" style="stroke:#1366D6;stroke-width:0.5;" width="15" x="713.3697" y="222.0869"/><rect fill="#FFFFFF" height="2" style="stroke:#1366D6;stroke-width:0.5;" width="4" x="711.3697" y="224.0869"/><rect fill="#FFFFFF" height="2" style="stroke:#1366D6;stroke-width:0.5;" width="4" x="711.3697" y="228.0869"/><text fill="#0F172A" font-family="sans-serif" font-size="14" lengthAdjust="spacing" textLength="125.1797" x="583.19" y="250.082">Scheduler Worker</text><text fill="#0F172A" font-family="sans-serif" font-size="14" lengthAdjust="spacing" textLength="123.3271" x="583.19" y="266.3789">(batch jobs, cron)</text></g><!--entity FH--><g class="entity" data-entity="FH" data-source-line="36" data-uid="ent0014" id="entity_FH"><rect fill="#FFFFFF" height="62.5938" rx="4" ry="4" style="stroke:#1366D6;stroke-width:0.5;" width="221.248" x="302.15" y="526.1269"/><rect fill="#FFFFFF" height="10" style="stroke:#1366D6;stroke-width:0.5;" width="15" x="503.398" y="531.1269"/><rect fill="#FFFFFF" height="2" style="stroke:#1366D6;stroke-width:0.5;" width="4" x="501.398" y="533.1269"/><rect fill="#FFFFFF" height="2" style="stroke:#1366D6;stroke-width:0.5;" width="4" x="501.398" y="537.1269"/><text fill="#0F172A" font-family="sans-serif" font-size="14" lengthAdjust="spacing" textLength="79.5703" x="317.15" y="559.122">FileHandler</text><text fill="#0F172A" font-family="sans-serif" font-size="14" lengthAdjust="spacing" textLength="181.248" x="317.15" y="575.4189">(src/utils/file_handlers.py)</text></g><!--entity AP--><g class="entity" data-entity="AP" data-source-line="37" data-uid="ent0015" id="entity_AP"><rect fill="#FFFFFF" height="62.5938" rx="4" ry="4" style="stroke:#1366D6;stroke-width:0.5;" width="247.5801" x="557.99" y="526.1269"/><rect fill="#FFFFFF" height="10" style="stroke:#1366D6;stroke-width:0.5;" width="15" x="785.5701" y="531.1269"/><rect fill="#FFFFFF" height="2" style="stroke:#1366D6;stroke-width:0.5;" width="4" x="783.5701" y="533.1269"/><rect fill="#FFFFFF" height="2" style="stroke:#1366D6;stroke-width:0.5;" width="4" x="783.5701" y="537.1269"/><text fill="#0F172A" font-family="sans-serif" font-size="14" lengthAdjust="spacing" textLength="107.7754" x="572.99" y="559.122">AudioProcessor</text><text fill="#0F172A" font-family="sans-serif" font-size="14" lengthAdjust="spacing" textLength="207.5801" x="572.99" y="575.4189">(src/core/audio_processor.py)</text></g><!--entity CSVP--><g class="entity" data-entity="CSVP" data-source-line="38" data-uid="ent0016" id="entity_CSVP"><rect fill="#FFFFFF" height="62.5938" rx="4" ry="4" style="stroke:#1366D6;stroke-width:0.5;" width="232.0625" x="840.75" y="526.1269"/><rect fill="#FFFFFF" height="10" style="stroke:#1366D6;stroke-width:0.5;" width="15" x="1052.8125" y="531.1269"/><rect fill="#FFFFFF" height="2" style="stroke:#1366D6;stroke-width:0.5;" width="4" x="1050.8125" y="533.1269"/><rect fill="#FFFFFF" height="2" style="stroke:#1366D6;stroke-width:0.5;" width="4" x="1050.8125" y="537.1269"/><text fill="#0F172A" font-family="sans-serif" font-size="14" lengthAdjust="spacing" textLength="100.6729" x="855.75" y="559.122">CSV Processor</text><text fill="#0F172A" font-family="sans-serif" font-size="14" lengthAdjust="spacing" textLength="192.0625" x="855.75" y="575.4189">(src/core/csv_processor.py)</text></g><!--entity STT--><g class="entity" data-entity="STT" data-source-line="42" data-uid="ent0018" id="entity_STT"><rect fill="#FFFFFF" height="62.5938" rx="4" ry="4" style="stroke:#1366D6;stroke-width:0.5;" width="200.2891" x="1145.63" y="688.7169"/><rect fill="#FFFFFF" height="10" style="stroke:#1366D6;stroke-width:0.5;" width="15" x="1325.9191" y="693.7169"/><rect fill="#FFFFFF" height="2" style="stroke:#1366D6;stroke-width:0.5;" width="4" x="1323.9191" y="695.7169"/><rect fill="#FFFFFF" height="2" style="stroke:#1366D6;stroke-width:0.5;" width="4" x="1323.9191" y="699.7169"/><text fill="#0F172A" font-family="sans-serif" font-size="14" lengthAdjust="spacing" textLength="83.1455" x="1160.63" y="721.712">WhisperSTT</text><text fill="#0F172A" font-family="sans-serif" font-size="14" lengthAdjust="spacing" textLength="160.2891" x="1160.63" y="738.0089">(src/ml/whisper_stt.py)</text></g><!--entity EMB--><g class="entity" data-entity="EMB" data-source-line="43" data-uid="ent0019" id="entity_EMB"><rect fill="#FFFFFF" height="62.5938" rx="4" ry="4" style="stroke:#1366D6;stroke-width:0.5;" width="206.7217" x="1293.42" y="967.9069"/><rect fill="#FFFFFF" height="10" style="stroke:#1366D6;stroke-width:0.5;" width="15" x="1480.1417" y="972.9069"/><rect fill="#FFFFFF" height="2" style="stroke:#1366D6;stroke-width:0.5;" width="4" x="1478.1417" y="974.9069"/><rect fill="#FFFFFF" height="2" style="stroke:#1366D6;stroke-width:0.5;" width="4" x="1478.1417" y="978.9069"/><text fill="#0F172A" font-family="sans-serif" font-size="14" lengthAdjust="spacing" textLength="140.7725" x="1308.42" y="1000.902">EmbeddingManager</text><text fill="#0F172A" font-family="sans-serif" font-size="14" lengthAdjust="spacing" textLength="166.7217" x="1308.42" y="1017.1989">(src/ml/embeddings.py)</text></g><!--entity LLM--><g class="entity" data-entity="LLM" data-source-line="44" data-uid="ent0020" id="entity_LLM"><rect fill="#FFFFFF" height="62.5938" rx="4" ry="4" style="stroke:#1366D6;stroke-width:0.5;" width="211.1104" x="1381.22" y="688.7169"/><rect fill="#FFFFFF" height="10" style="stroke:#1366D6;stroke-width:0.5;" width="15" x="1572.3304" y="693.7169"/><rect fill="#FFFFFF" height="2" style="stroke:#1366D6;stroke-width:0.5;" width="4" x="1570.3304" y="695.7169"/><rect fill="#FFFFFF" height="2" style="stroke:#1366D6;stroke-width:0.5;" width="4" x="1570.3304" y="699.7169"/><text fill="#0F172A" font-family="sans-serif" font-size="14" lengthAdjust="spacing" textLength="126.8887" x="1396.22" y="721.712">LocalLLMInterface</text><text fill="#0F172A" font-family="sans-serif" font-size="14" lengthAdjust="spacing" textLength="171.1104" x="1396.22" y="738.0089">(src/ml/llm_interface.py)</text></g><!--entity LABEL--><g class="entity" data-entity="LABEL" data-source-line="45" data-uid="ent0021" id="entity_LABEL"><rect fill="#FFFFFF" height="62.5938" rx="4" ry="4" style="stroke:#1366D6;stroke-width:0.5;" width="243.6152" x="1151.97" y="828.3169"/><rect fill="#FFFFFF" height="10" style="stroke:#1366D6;stroke-width:0.5;" width="15" x="1375.5852" y="833.3169"/><rect fill="#FFFFFF" height="2" style="stroke:#1366D6;stroke-width:0.5;" width="4" x="1373.5852" y="835.3169"/><rect fill="#FFFFFF" height="2" style="stroke:#1366D6;stroke-width:0.5;" width="4" x="1373.5852" y="839.3169"/><text fill="#0F172A" font-family="sans-serif" font-size="14" lengthAdjust="spacing" textLength="107.3994" x="1166.97" y="861.312">LabelingEngine</text><text fill="#0F172A" font-family="sans-serif" font-size="14" lengthAdjust="spacing" textLength="203.6152" x="1166.97" y="877.6089">(src/core/labeling_engine.py)</text></g><!--entity INDEXER--><g class="entity" data-entity="INDEXER" data-source-line="49" data-uid="ent0023" id="entity_INDEXER"><rect fill="#FFFFFF" height="62.5938" rx="4" ry="4" style="stroke:#1366D6;stroke-width:0.5;" width="217.8232" x="1474.87" y="526.1269"/><rect fill="#FFFFFF" height="10" style="stroke:#1366D6;stroke-width:0.5;" width="15" x="1672.6932" y="531.1269"/><rect fill="#FFFFFF" height="2" style="stroke:#1366D6;stroke-width:0.5;" width="4" x="1670.6932" y="533.1269"/><rect fill="#FFFFFF" height="2" style="stroke:#1366D6;stroke-width:0.5;" width="4" x="1670.6932" y="537.1269"/><text fill="#0F172A" font-family="sans-serif" font-size="14" lengthAdjust="spacing" textLength="53.1563" x="1489.87" y="559.122">Indexer</text><text fill="#0F172A" font-family="sans-serif" font-size="14" lengthAdjust="spacing" textLength="177.8232" x="1489.87" y="575.4189">(src/vectordb/indexer.py)</text></g><!--entity RETR--><g class="entity" data-entity="RETR" data-source-line="50" data-uid="ent0024" id="entity_RETR"><rect fill="#FFFFFF" height="62.5938" rx="4" ry="4" style="stroke:#1366D6;stroke-width:0.5;" width="460.9502" x="1727.3" y="526.1269"/><rect fill="#FFFFFF" height="10" style="stroke:#1366D6;stroke-width:0.5;" width="15" x="2168.2502" y="531.1269"/><rect fill="#FFFFFF" height="2" style="stroke:#1366D6;stroke-width:0.5;" width="4" x="2166.2502" y="533.1269"/><rect fill="#FFFFFF" height="2" style="stroke:#1366D6;stroke-width:0.5;" width="4" x="2166.2502" y="537.1269"/><text fill="#0F172A" font-family="sans-serif" font-size="14" lengthAdjust="spacing" textLength="126.7656" x="1742.3" y="559.122">Retriever / Search</text><text fill="#0F172A" font-family="sans-serif" font-size="14" lengthAdjust="spacing" textLength="420.9502" x="1742.3" y="575.4189">(src/vectordb/retriever.py, src/analysis/semantic_search.py)</text></g><!--entity STORAGE--><g class="entity" data-entity="STORAGE" data-source-line="51" data-uid="ent0025" id="entity_STORAGE"><rect fill="#FFFFFF" height="62.5938" rx="4" ry="4" style="stroke:#1366D6;stroke-width:0.5;" width="256.4668" x="1183.55" y="526.1269"/><rect fill="#FFFFFF" height="10" style="stroke:#1366D6;stroke-width:0.5;" width="15" x="1420.0168" y="531.1269"/><rect fill="#FFFFFF" height="2" style="stroke:#1366D6;stroke-width:0.5;" width="4" x="1418.0168" y="533.1269"/><rect fill="#FFFFFF" height="2" style="stroke:#1366D6;stroke-width:0.5;" width="4" x="1418.0168" y="537.1269"/><text fill="#0F172A" font-family="sans-serif" font-size="14" lengthAdjust="spacing" textLength="116.1426" x="1198.55" y="559.122">StorageManager</text><text fill="#0F172A" font-family="sans-serif" font-size="14" lengthAdjust="spacing" textLength="216.4668" x="1198.55" y="575.4189">(src/core/storage_manager.py)</text></g><!--entity USER--><g class="entity" data-entity="USER" data-source-line="18" data-uid="ent0002" id="entity_USER"><ellipse cx="1957.7741" cy="51.2969" fill="#F1F1F1" rx="8" ry="8" style="stroke:#181818;stroke-width:0.5;"/><path d="M1957.7741,59.2969 L1957.7741,86.2969 M1944.7741,67.2969 L1970.7741,67.2969 M1957.7741,86.2969 L1944.7741,101.2969 M1957.7741,86.2969 L1970.7741,101.2969" fill="none" style="stroke:#181818;stroke-width:0.5;"/><text fill="#000000" font-family="sans-serif" font-size="14" lengthAdjust="spacing" textLength="154.3281" x="1880.61" y="115.792">User (Agent / Analyst)</text></g><!--entity ADMIN--><g class="entity" data-entity="ADMIN" data-source-line="19" data-uid="ent0003" id="entity_ADMIN"><ellipse cx="929.775" cy="218.7369" fill="#F1F1F1" rx="8" ry="8" style="stroke:#181818;stroke-width:0.5;"/><path d="M929.775,226.7369 L929.775,253.7369 M916.775,234.7369 L942.775,234.7369 M929.775,253.7369 L916.775,268.7369 M929.775,253.7369 L942.775,268.7369" fill="none" style="stroke:#181818;stroke-width:0.5;"/><text fill="#000000" font-family="sans-serif" font-size="14" lengthAdjust="spacing" textLength="158.71" x="850.42" y="283.232">Admin / Data Engineer</text></g><!--entity FILES--><g class="entity" data-entity="FILES" data-source-line="20" data-uid="ent0004" id="entity_FILES"><path d="M343.27,699.2169 C343.27,689.2169 469.7783,689.2169 469.7783,689.2169 C469.7783,689.2169 596.2866,689.2169 596.2866,699.2169 L596.2866,740.8106 C596.2866,750.8106 469.7783,750.8106 469.7783,750.8106 C469.7783,750.8106 343.27,750.8106 343.27,740.8106 L343.27,699.2169" fill="#E6F3FF" style="stroke:#181818;stroke-width:0.5;"/><path d="M343.27,699.2169 C343.27,709.2169 469.7783,709.2169 469.7783,709.2169 C469.7783,709.2169 596.2866,709.2169 596.2866,699.2169" fill="none" style="stroke:#181818;stroke-width:0.5;"/><text fill="#000000" font-family="sans-serif" font-size="14" lengthAdjust="spacing" textLength="83.6719" x="353.27" y="726.212">File Storage</text><text fill="#000000" font-family="sans-serif" font-size="14" lengthAdjust="spacing" textLength="233.0166" x="353.27" y="742.5089">(data/uploads, processed, cache)</text></g><!--entity VSTORE--><g class="entity" data-entity="VSTORE" data-source-line="21" data-uid="ent0005" id="entity_VSTORE"><path d="M1599.72,1119.5069 C1599.72,1109.5069 1659.7762,1109.5069 1659.7762,1109.5069 C1659.7762,1109.5069 1719.8323,1109.5069 1719.8323,1119.5069 L1719.8323,1161.1006 C1719.8323,1171.1006 1659.7762,1171.1006 1659.7762,1171.1006 C1659.7762,1171.1006 1599.72,1171.1006 1599.72,1161.1006 L1599.72,1119.5069" fill="#E6F3FF" style="stroke:#181818;stroke-width:0.5;"/><path d="M1599.72,1119.5069 C1599.72,1129.5069 1659.7762,1129.5069 1659.7762,1129.5069 C1659.7762,1129.5069 1719.8323,1129.5069 1719.8323,1119.5069" fill="none" style="stroke:#181818;stroke-width:0.5;"/><text fill="#000000" font-family="sans-serif" font-size="14" lengthAdjust="spacing" textLength="87.459" x="1609.72" y="1146.502">Vector Store</text><text fill="#000000" font-family="sans-serif" font-size="14" lengthAdjust="spacing" textLength="100.1123" x="1609.72" y="1162.7989">(Chroma / DB)</text></g><!--entity MODELS--><g class="entity" data-entity="MODELS" data-source-line="22" data-uid="ent0006" id="entity_MODELS"><rect fill="#FFF0F6" height="52.5938" rx="3" ry="3" style="stroke:#2B6CB0;stroke-width:0.5;" width="222.2344" x="868.66" y="1114.0069"/><text fill="#000000" font-family="sans-serif" font-size="14" lengthAdjust="spacing" textLength="101.2607" x="878.66" y="1137.002">Model Storage</text><text fill="#000000" font-family="sans-serif" font-size="14" lengthAdjust="spacing" textLength="202.2344" x="878.66" y="1153.2989">(models/whisper, local LLMs)</text></g><!--entity MON--><g class="entity" data-entity="MON" data-source-line="23" data-uid="ent0007" id="entity_MON"><path d="M1088.9774,225.551 C1093.219,218.8282 1100.5164,218.247 1105.1295,225.1093 C1110.4728,216.9085 1118.4233,218.9016 1121.5268,227.3192 C1125.554,218.02 1134.5627,219.0343 1139.4709,226.3688 C1143.5093,218.849 1151.2316,218.644 1155.5207,226.1002 C1158.9332,219.2136 1164.6798,217.1783 1169.7872,224.3843 C1175.0253,218.3315 1181.2292,218.1397 1185.6235,225.3889 C1188.9657,218.4772 1196.175,215.9371 1201.0554,223.7802 C1206.0384,214.2793 1213.4857,215.423 1218.4684,223.7805 C1223.7055,214.9301 1230.077,216.5401 1235.3349,223.7587 C1242.0456,216.9945 1246.6749,218.1608 1250.7105,226.4848 C1255.0159,219.4371 1260.7087,217.1216 1266.4544,224.9617 C1272.9379,218.135 1277.9379,219.4082 1282.088,227.4201 C1285.3518,218.1711 1293.4232,216.9097 1298.7514,225.4908 C1303.8616,216.3355 1310.3866,216.0309 1315.7858,225.2224 C1332.5151,225.9318 1335.6115,238.2816 1326.9248,250.2865 C1331.9997,262.0922 1327.3869,271.7578 1313.7973,272.5661 C1310.4099,279.3617 1303.2271,281.0988 1298.1798,274.5016 C1293.8033,282.3078 1286.9359,282.2583 1281.9581,275.1559 C1277.3002,282.1248 1270.3341,282.2644 1265.4384,275.4406 C1261.316,281.812 1254.3005,282.8722 1250.4617,275.1396 C1246.4133,281.6503 1240.5983,283.7275 1235.6146,276.1234 C1230.0915,283.3746 1224.2906,285.1969 1218.2523,276.691 C1213.8775,284.3261 1207.9749,284.4111 1203.6537,276.6402 C1198.1058,284.1924 1191.5731,285.8667 1185.9223,276.7497 C1180.2119,282.9222 1173.4936,283.2293 1169.9654,274.4247 C1165.2851,282.1862 1159.8364,282.7404 1153.8402,275.8755 C1147.8563,284.5679 1140.7993,281.5719 1136.6024,273.9835 C1132.4246,281.3859 1125.6062,279.7731 1122.2118,273.1781 C1117.3437,282.0221 1112.2305,281.2462 1105.8305,274.8216 C1101.2124,280.4328 1094.8188,281.1378 1091.1117,273.7872 C1076.1437,268.3006 1076.2546,258.3562 1086.7821,248.5038 C1077.8862,239.8383 1078.8588,232.3978 1088.9774,225.551" fill="#F1F1F1" style="stroke:#181818;stroke-width:0.5;"/><text fill="#000000" font-family="sans-serif" font-size="14" lengthAdjust="spacing" textLength="139.3027" x="1095.28" y="245.082">Monitoring / Metrics</text><text fill="#000000" font-family="sans-serif" font-size="14" lengthAdjust="spacing" textLength="211.0049" x="1095.28" y="261.3789">(Prometheus / Grafana / Logs)</text></g><g class="entity" data-entity="GMN52" data-source-line="86" data-uid="ent0053" id="entity_GMN52"><path d="M6,537.2969 L6,577.5625 A0,0 0 0 0 6,577.5625 L267.5571,577.5625 A0,0 0 0 0 267.5571,577.5625 L267.5571,561.4269 L301.68,557.4269 L267.5571,553.4269 L267.5571,547.2969 L257.5571,537.2969 L6,537.2969 A0,0 0 0 0 6,537.2969" fill="#FEFFDD" style="stroke:#181818;stroke-width:0.5;"/><path d="M257.5571,537.2969 L257.5571,547.2969 L267.5571,547.2969 L257.5571,537.2969" fill="#FEFFDD" style="stroke:#181818;stroke-width:0.5;"/><text fill="#000000" font-family="sans-serif" font-size="13" lengthAdjust="spacing" textLength="240.5571" x="12" y="554.3638">FileHandler: src/utils/file_handlers.py</text><text fill="#000000" font-family="sans-serif" font-size="13" lengthAdjust="spacing" textLength="213.6875" x="12" y="569.4966">Validators: src/utils/validators.py</text></g><g class="entity" data-entity="GMN55" data-source-line="91" data-uid="ent0056" id="entity_GMN55"><path d="M2013.52,979.0769 L2013.52,1019.3425 L2360.0405,1019.3425 L2360.0405,989.0769 L2350.0405,979.0769 L2013.52,979.0769" fill="#FEFFDD" style="stroke:#181818;stroke-width:0.5;"/><path d="M2350.0405,979.0769 L2350.0405,989.0769 L2360.0405,989.0769 L2350.0405,979.0769" fill="#FEFFDD" style="stroke:#181818;stroke-width:1;"/><text fill="#000000" font-family="sans-serif" font-size="13" lengthAdjust="spacing" textLength="283.8989" x="2019.52" y="996.1438">EmbeddingManager: src/ml/embeddings.py</text><text fill="#000000" font-family="sans-serif" font-size="13" lengthAdjust="spacing" textLength="325.5205" x="2019.52" y="1011.2766">Fallbacks: Hash / Ollama / Sentence-Transformers</text></g><g class="entity" data-entity="GMN58" data-source-line="96" data-uid="ent0059" id="entity_GMN58"><path d="M1857.58,1127.7369 L1857.58,1152.8697 L2515.9736,1152.8697 L2515.9736,1137.7369 L2505.9736,1127.7369 L1857.58,1127.7369" fill="#FEFFDD" style="stroke:#181818;stroke-width:0.5;"/><path d="M2505.9736,1127.7369 L2505.9736,1137.7369 L2515.9736,1137.7369 L2505.9736,1127.7369" fill="#FEFFDD" style="stroke:#181818;stroke-width:1;"/><text fill="#000000" font-family="sans-serif" font-size="13" lengthAdjust="spacing" textLength="637.3936" x="1863.58" y="1144.8038">StorageManager abstracts persistence (parquet/csv/object store) and backing up the vectorstore.</text></g><!--link USER to UI--><g class="link" data-entity-1="USER" data-entity-2="UI" data-source-line="55" data-uid="lnk26" id="link_USER_UI"><path d="M1957.78,119.4869 C1957.78,148.8469 1957.78,183.1669 1957.78,210.6369" fill="none" id="USER-to-UI" style="stroke:#181818;stroke-width:1;"/><polygon fill="#181818" points="1957.78,216.6369,1961.78,207.6369,1957.78,211.6369,1953.78,207.6369,1957.78,216.6369" style="stroke:#181818;stroke-width:1;"/><text fill="#000000" font-family="sans-serif" font-size="13" lengthAdjust="spacing" textLength="50.502" x="1958.78" y="162.1538">interact</text></g><!--link ADMIN to ORCH--><g class="link" data-entity-1="ADMIN" data-entity-2="ORCH" data-source-line="56" data-uid="lnk27" id="link_ADMIN_ORCH"><path d="M850.12,284.8269 C816.58,299.8269 784.39,314.3769 780.78,316.5369 C758.03,330.1169 739.0839,344.1823 720.4139,359.2923" fill="none" id="ADMIN-to-ORCH" style="stroke:#181818;stroke-width:1;"/><polygon fill="#181818" points="715.75,363.0669,725.2623,360.5142,719.6366,359.9214,720.2295,354.2957,715.75,363.0669" style="stroke:#181818;stroke-width:1;"/><text fill="#000000" font-family="sans-serif" font-size="13" lengthAdjust="spacing" textLength="148.6304" x="781.78" y="329.6038">configure / trigger jobs</text></g><!--link UI to ORCH--><g class="link" data-entity-1="UI" data-entity-2="ORCH" data-source-line="58" data-uid="lnk28" id="link_UI_ORCH"><path d="M1849.11,260.5469 C1659.24,280.2169 1254.82,322.8169 913.78,363.5369 C874.02,368.2769 836.4595,373.0402 797.8495,378.0802" fill="none" id="UI-to-ORCH" style="stroke:#181818;stroke-width:1;"/><polygon fill="#181818" points="791.9,378.8569,801.342,381.6583,796.8579,378.2097,800.3065,373.7256,791.9,378.8569" style="stroke:#181818;stroke-width:1;"/><text fill="#000000" font-family="sans-serif" font-size="13" lengthAdjust="spacing" textLength="143.9775" x="1315.78" y="329.6038">request ingest / query</text></g><!--link UI to RETR--><g class="link" data-entity-1="UI" data-entity-2="RETR" data-source-line="59" data-uid="lnk29" id="link_UI_RETR"><path d="M1957.78,279.9469 C1957.78,338.7969 1957.78,461.2269 1957.78,519.9869" fill="none" id="UI-to-RETR" style="stroke:#181818;stroke-width:1;"/><polygon fill="#181818" points="1957.78,525.9869,1961.78,516.9869,1957.78,520.9869,1953.78,516.9869,1957.78,525.9869" style="stroke:#181818;stroke-width:1;"/><text fill="#000000" font-family="sans-serif" font-size="13" lengthAdjust="spacing" textLength="135.6875" x="1958.78" y="399.3938">ad-hoc search (read)</text></g><!--link ORCH to FH--><g class="link" data-entity-1="ORCH" data-entity-2="FH" data-source-line="60" data-uid="lnk30" id="link_ORCH_FH"><path d="M567.78,424.1969 C543.89,432.9769 519.6,444.1369 498.78,458.1269 C472.06,476.0869 452.0401,499.508 436.3701,521.138" fill="none" id="ORCH-to-FH" style="stroke:#181818;stroke-width:1;"/><polygon fill="#181818" points="432.85,525.9969,441.3694,521.0552,435.7834,521.9478,434.8908,516.3618,432.85,525.9969" style="stroke:#181818;stroke-width:1;"/><text fill="#000000" font-family="sans-serif" font-size="13" lengthAdjust="spacing" textLength="149.8555" x="499.78" y="471.1938">hand-off uploaded files</text></g><!--link FH to FILES--><g class="link" data-entity-1="FH" data-entity-2="FILES" data-source-line="61" data-uid="lnk31" id="link_FH_FILES"><path d="M403.07,588.8969 C399.82,603.9569 398.27,622.1869 403.78,637.7169 C410.59,656.9069 420.0058,670.453 433.0258,684.593" fill="none" id="FH-to-FILES" style="stroke:#181818;stroke-width:1;"/><polygon fill="#181818" points="437.09,689.0069,433.9362,679.6766,433.7031,685.3287,428.0511,685.0956,437.09,689.0069" style="stroke:#181818;stroke-width:1;"/><text fill="#000000" font-family="sans-serif" font-size="13" lengthAdjust="spacing" textLength="85.8901" x="404.78" y="633.7838">store original</text></g><!--link ORCH to AP--><g class="link" data-entity-1="ORCH" data-entity-2="AP" data-source-line="62" data-uid="lnk32" id="link_ORCH_AP"><path d="M667.87,426.4269 C664.57,436.3769 661.43,447.5769 659.78,458.1269 C656.21,480.9369 660.2232,500.6815 666.8332,519.9515" fill="none" id="ORCH-to-AP" style="stroke:#181818;stroke-width:1;"/><polygon fill="#181818" points="668.78,525.6269,669.6434,515.8159,667.1577,520.8974,662.0762,518.4116,668.78,525.6269" style="stroke:#181818;stroke-width:1;"/><text fill="#000000" font-family="sans-serif" font-size="13" lengthAdjust="spacing" textLength="124.1792" x="660.78" y="471.1938">request processing</text></g><!--link AP to FILES--><g class="link" data-entity-1="AP" data-entity-2="FILES" data-source-line="63" data-uid="lnk33" id="link_AP_FILES"><path d="M582.06,589.1469 C563.81,597.5569 545.81,607.9769 530.78,620.7169 C509.03,639.1669 495.2322,661.9857 484.9422,683.4657" fill="none" id="AP-to-FILES" style="stroke:#181818;stroke-width:1;"/><polygon fill="#181818" points="482.35,688.8769,489.8457,682.4883,484.5102,684.3676,482.6309,679.032,482.35,688.8769" style="stroke:#181818;stroke-width:1;"/><text fill="#000000" font-family="sans-serif" font-size="13" lengthAdjust="spacing" textLength="220.2446" x="531.78" y="633.7838">write processed WAV + metadata</text></g><!--link AP to MODELS--><g class="link" data-entity-1="AP" data-entity-2="MODELS" data-source-line="64" data-uid="lnk34" id="link_AP_MODELS"><path d="M728.2,588.9069 C738.99,597.9769 749.45,608.7369 756.78,620.7169 C780.14,658.9169 778.78,674.2469 778.78,719.0169 C778.78,719.0169 778.78,719.0169 778.78,1000.2069 C778.78,1057.2869 828.6809,1090.5694 881.3509,1111.4094" fill="none" id="AP-to-MODELS" style="stroke:#181818;stroke-width:1;"/><polygon fill="#181818" points="886.93,1113.6169,880.0329,1106.5862,882.2807,1111.7773,877.0896,1114.025,886.93,1113.6169" style="stroke:#181818;stroke-width:1;"/><text fill="#000000" font-family="sans-serif" font-size="13" lengthAdjust="spacing" textLength="146.9863" x="779.78" y="864.1838">(may read ffmpeg etc)</text></g><!--link AP to STT--><g class="link" data-entity-1="AP" data-entity-2="STT" data-source-line="65" data-uid="lnk35" id="link_AP_STT"><path d="M756.55,589.1569 C777.77,597.3469 801.02,605.8269 822.78,612.7169 C931.59,647.2069 1053.0866,676.6185 1139.3966,696.0585" fill="none" id="AP-to-STT" style="stroke:#181818;stroke-width:1;"/><polygon fill="#181818" points="1145.25,697.3769,1137.3489,691.4971,1140.3722,696.2782,1135.591,699.3015,1145.25,697.3769" style="stroke:#181818;stroke-width:1;"/><text fill="#000000" font-family="sans-serif" font-size="13" lengthAdjust="spacing" textLength="135.1606" x="902.78" y="633.7838">pass processed WAV</text></g><!--link STT to MODELS--><g class="link" data-entity-1="STT" data-entity-2="MODELS" data-source-line="66" data-uid="lnk36" id="link_STT_MODELS"><path d="M1208.36,751.7969 C1185.32,771.9769 1156.2,799.8269 1134.78,828.3169 C1062.82,924.0269 1011.3333,1052.6565 990.9033,1108.1365" fill="none" id="STT-to-MODELS" style="stroke:#181818;stroke-width:1;"/><polygon fill="#181818" points="988.83,1113.7669,995.6936,1106.7035,990.5578,1109.0749,988.1864,1103.9391,988.83,1113.7669" style="stroke:#181818;stroke-width:1;"/><text fill="#000000" font-family="sans-serif" font-size="13" lengthAdjust="spacing" textLength="82.7671" x="1076.78" y="933.9738">load whisper</text></g><!--link STT to STORAGE--><g class="link" data-entity-1="STT" data-entity-2="STORAGE" data-source-line="67" data-uid="lnk37" id="link_STT_STORAGE"><path d="M1258.41,688.2769 C1270.14,659.7369 1285.219,623.0464 1296.929,594.5564" fill="none" id="STT-to-STORAGE" style="stroke:#181818;stroke-width:1;"/><polygon fill="#181818" points="1299.21,589.0069,1292.0889,595.8105,1297.3092,593.6315,1299.4882,598.8518,1299.21,589.0069" style="stroke:#181818;stroke-width:1;"/><text fill="#000000" font-family="sans-serif" font-size="13" lengthAdjust="spacing" textLength="185.7515" x="1284.78" y="633.7838">optionally persist transcripts</text></g><!--link STT to LABEL--><g class="link" data-entity-1="STT" data-entity-2="LABEL" data-source-line="68" data-uid="lnk38" id="link_STT_LABEL"><path d="M1251.99,751.5569 C1256.63,774.3569 1261.7549,799.4971 1266.3849,822.2771" fill="none" id="STT-to-LABEL" style="stroke:#181818;stroke-width:1;"/><polygon fill="#181818" points="1267.58,828.1569,1269.7073,818.5405,1266.5841,823.2571,1261.8676,820.1339,1267.58,828.1569" style="stroke:#181818;stroke-width:1;"/><text fill="#000000" font-family="sans-serif" font-size="13" lengthAdjust="spacing" textLength="200.2368" x="1261.78" y="794.3838">send transcription + metadata</text></g><!--link LABEL to EMB--><g class="link" data-entity-1="LABEL" data-entity-2="EMB" data-source-line="69" data-uid="lnk39" id="link_LABEL_EMB"><path d="M1295.38,891.2569 C1306.09,905.8269 1319.55,923.2369 1332.78,937.9069 C1341.88,947.9969 1348.0017,954.2644 1357.8417,963.4844" fill="none" id="LABEL-to-EMB" style="stroke:#181818;stroke-width:1;"/><polygon fill="#181818" points="1362.22,967.5869,1358.3875,958.5143,1358.5714,964.1682,1352.9175,964.3521,1362.22,967.5869" style="stroke:#181818;stroke-width:1;"/><text fill="#000000" font-family="sans-serif" font-size="13" lengthAdjust="spacing" textLength="299.5776" x="1333.78" y="933.9738">request embeddings for transcript / segments</text></g><!--link EMB to MODELS--><g class="link" data-entity-1="EMB" data-entity-2="MODELS" data-source-line="70" data-uid="lnk40" id="link_EMB_MODELS"><path d="M1293.01,1009.9869 C1203.26,1019.9369 1081.53,1037.4669 1039.78,1062.5069 C1019.46,1074.6869 1006.5052,1091.3609 996.1452,1108.6409" fill="none" id="EMB-to-MODELS" style="stroke:#181818;stroke-width:1;"/><polygon fill="#181818" points="993.06,1113.7869,1001.1185,1108.1247,995.631,1109.4985,994.2572,1104.011,993.06,1113.7869" style="stroke:#181818;stroke-width:1;"/><text fill="#000000" font-family="sans-serif" font-size="13" lengthAdjust="spacing" textLength="438.915" x="1040.78" y="1075.5738">possible embedding model backend (sentence-transformer/ollama)</text></g><!--link EMB to VSTORE--><g class="link" data-entity-1="EMB" data-entity-2="VSTORE" data-source-line="71" data-uid="lnk41" id="link_EMB_VSTORE"><path d="M1438.1,1030.9569 C1460.19,1046.6169 1488.23,1065.2969 1514.78,1079.5069 C1541.67,1093.8969 1567.1911,1104.9541 1593.6911,1115.3041" fill="none" id="EMB-to-VSTORE" style="stroke:#181818;stroke-width:1;"/><polygon fill="#181818" points="1599.28,1117.4869,1592.3519,1110.4867,1594.6226,1115.6679,1589.4415,1117.9386,1599.28,1117.4869" style="stroke:#181818;stroke-width:1;"/><text fill="#000000" font-family="sans-serif" font-size="13" lengthAdjust="spacing" textLength="117.5903" x="1515.78" y="1075.5738">store embeddings</text></g><!--link INDEXER to VSTORE--><g class="link" data-entity-1="INDEXER" data-entity-2="VSTORE" data-source-line="72" data-uid="lnk42" id="link_INDEXER_VSTORE"><path d="M1594.03,589.2169 C1599.18,605.7869 1605.1,626.6869 1608.78,645.7169 C1642.33,819.3269 1654.5875,1025.8435 1658.2375,1103.2735" fill="none" id="INDEXER-to-VSTORE" style="stroke:#181818;stroke-width:1;"/><polygon fill="#181818" points="1658.52,1109.2669,1662.0918,1100.0885,1658.2846,1104.2724,1654.1007,1100.4652,1658.52,1109.2669" style="stroke:#181818;stroke-width:1;"/><text fill="#000000" font-family="sans-serif" font-size="13" lengthAdjust="spacing" textLength="178.4326" x="1642.78" y="864.1838">persistent index operations</text></g><!--link RETR to VSTORE--><g class="link" data-entity-1="RETR" data-entity-2="VSTORE" data-source-line="73" data-uid="lnk43" id="link_RETR_VSTORE"><path d="M1958.69,589.2069 C1959.58,621.5369 1960.78,673.8469 1960.78,719.0169 C1960.78,719.0169 1960.78,719.0169 1960.78,1000.2069 C1960.78,1052.6669 1814.0272,1099.3803 1726.1272,1122.8303" fill="none" id="RETR-to-VSTORE" style="stroke:#181818;stroke-width:1;"/><polygon fill="#181818" points="1720.33,1124.3769,1730.0569,1125.9218,1725.161,1123.088,1727.9948,1118.1922,1720.33,1124.3769" style="stroke:#181818;stroke-width:1;"/><text fill="#000000" font-family="sans-serif" font-size="13" lengthAdjust="spacing" textLength="121.9512" x="1961.78" y="864.1838">query embeddings</text></g><!--link ORCH to INDEXER--><g class="link" data-entity-1="ORCH" data-entity-2="INDEXER" data-source-line="74" data-uid="lnk44" id="link_ORCH_INDEXER"><path d="M733.39,426.5769 C770.79,447.7469 815.73,472.5069 825.78,475.1269 C893.73,492.8469 1390.09,464.4169 1457.78,483.1269 C1488.63,491.6569 1514.7967,506.2856 1538.3967,522.3156" fill="none" id="ORCH-to-INDEXER" style="stroke:#181818;stroke-width:1;"/><polygon fill="#181818" points="1543.36,525.6869,1538.1625,517.3211,1539.2239,522.8775,1533.6675,523.9388,1543.36,525.6869" style="stroke:#181818;stroke-width:1;"/><text fill="#000000" font-family="sans-serif" font-size="13" lengthAdjust="spacing" textLength="103.9302" x="826.78" y="471.1938">trigger indexing</text></g><!--link RETR to LLM--><g class="link" data-entity-1="RETR" data-entity-2="LLM" data-source-line="75" data-uid="lnk45" id="link_RETR_LLM"><path d="M1812.37,589.1869 C1776.49,598.1169 1738.43,608.7369 1703.78,620.7169 C1649.06,639.6469 1594.6723,664.6152 1551.7423,685.7652" fill="none" id="RETR-to-LLM" style="stroke:#181818;stroke-width:1;"/><polygon fill="#181818" points="1546.36,688.4169,1556.2012,688.0276,1550.8452,686.2072,1552.6656,680.8512,1546.36,688.4169" style="stroke:#181818;stroke-width:1;"/><text fill="#000000" font-family="sans-serif" font-size="13" lengthAdjust="spacing" textLength="229.7217" x="1704.78" y="633.7838">pass context for QA/summarization</text></g><!--link UI to LLM--><g class="link" data-entity-1="UI" data-entity-2="LLM" data-source-line="76" data-uid="lnk46" id="link_UI_LLM"><path d="M2006.21,280.0369 C2102.78,344.7969 2301.93,498.9469 2203.78,612.7169 C2126.15,702.7069 1778.7797,717.7095 1598.7997,719.4295" fill="none" id="UI-to-LLM" style="stroke:#181818;stroke-width:1;"/><polygon fill="#181818" points="1592.8,719.4869,1601.8378,723.4007,1597.7998,719.4391,1601.7614,715.4011,1592.8,719.4869" style="stroke:#181818;stroke-width:1;"/><text fill="#000000" font-family="sans-serif" font-size="13" lengthAdjust="spacing" textLength="167.2925" x="2209.78" y="471.1938">ask question / summarize</text></g><!--link SCHED to ORCH--><g class="link" data-entity-1="SCHED" data-entity-2="ORCH" data-source-line="78" data-uid="lnk47" id="link_SCHED_ORCH"><path d="M626.38,279.8869 C616.6,295.9169 609.23,315.8569 616.78,333.5369 C621.54,344.6769 625.2053,350.5164 633.8753,359.0964" fill="none" id="SCHED-to-ORCH" style="stroke:#181818;stroke-width:1;"/><polygon fill="#181818" points="638.14,363.3169,634.5566,354.1431,634.5861,359.7998,628.9293,359.8293,638.14,363.3169" style="stroke:#181818;stroke-width:1;"/><text fill="#000000" font-family="sans-serif" font-size="13" lengthAdjust="spacing" textLength="122.1162" x="617.78" y="329.6038">scheduled batches</text></g><!--link ADMIN to INDEXER--><g class="link" data-entity-1="ADMIN" data-entity-2="INDEXER" data-source-line="79" data-uid="lnk48" id="link_ADMIN_INDEXER"><path d="M947.64,286.7969 C975.94,340.9669 1036.83,438.7469 1122.78,475.1269 C1157.07,489.6369 1421.95,473.0069 1457.78,483.1269 C1488.59,491.8369 1514.7411,506.4738 1538.3511,522.4538" fill="none" id="ADMIN-to-INDEXER" style="stroke:#181818;stroke-width:1;"/><polygon fill="#181818" points="1543.32,525.8169,1538.1088,517.4597,1539.1793,523.0143,1533.6246,524.0848,1543.32,525.8169" style="stroke:#181818;stroke-width:1;"/><text fill="#000000" font-family="sans-serif" font-size="13" lengthAdjust="spacing" textLength="189.5728" x="1077.78" y="399.3938">rebuild / manage vectorstore</text></g><!--reverse link MON to ORCH--><g class="link" data-entity-1="MON" data-entity-2="ORCH" data-source-line="80" data-uid="lnk49" id="link_MON_ORCH"><path d="M1105.5982,282.0353 C1055.2282,298.8353 996.68,317.5269 938.78,333.5369 C890.94,346.7569 837.61,359.5069 791.83,369.8569" fill="none" id="MON-backto-ORCH" style="stroke:#181818;stroke-width:1;"/><polygon fill="#181818" points="1111.29,280.1369,1101.4868,279.1899,1106.5469,281.7189,1104.0179,286.779,1111.29,280.1369" style="stroke:#181818;stroke-width:1;"/><text fill="#000000" font-family="sans-serif" font-size="13" lengthAdjust="spacing" textLength="125.1758" x="996.78" y="329.6038">metrics / job status</text></g><!--reverse link MON to STT--><g class="link" data-entity-1="MON" data-entity-2="STT" data-source-line="81" data-uid="lnk50" id="link_MON_STT"><path d="M1199.1206,285.9678 C1196.9406,325.6178 1191.78,390.7069 1178.78,450.1269 C1175.47,465.2269 1170.25,467.8669 1167.78,483.1269 C1158.55,539.9769 1149.85,557.9869 1167.78,612.7169 C1177.18,641.4369 1197.63,668.7969 1215.23,688.5669" fill="none" id="MON-backto-STT" style="stroke:#181818;stroke-width:1;"/><polygon fill="#181818" points="1199.45,279.9769,1194.9619,288.7437,1199.1755,284.9693,1202.9499,289.1829,1199.45,279.9769" style="stroke:#181818;stroke-width:1;"/><text fill="#000000" font-family="sans-serif" font-size="13" lengthAdjust="spacing" textLength="134.8877" x="1176.78" y="471.1938">performance / errors</text></g><!--reverse link MON to INDEXER--><g class="link" data-entity-1="MON" data-entity-2="INDEXER" data-source-line="82" data-uid="lnk51" id="link_MON_INDEXER"><path d="M1243.5813,283.6999 C1316.9013,342.4799 1472.1,466.8969 1545.53,525.7569" fill="none" id="MON-backto-INDEXER" style="stroke:#181818;stroke-width:1;"/><polygon fill="#181818" points="1238.9,279.9469,1243.42,288.6973,1242.8011,283.0744,1248.424,282.4555,1238.9,279.9469" style="stroke:#181818;stroke-width:1;"/><text fill="#000000" font-family="sans-serif" font-size="13" lengthAdjust="spacing" textLength="81.0786" x="1449.78" y="399.3938">index health</text></g><!--link EMB to GMN55--><g class="link" data-entity-1="EMB" data-entity-2="GMN55" data-source-line="91" data-uid="lnk57" id="link_EMB_GMN55"><path d="M1500.54,999.2069 C1671.43,999.2069 1842.32,999.2069 2013.21,999.2069" fill="none" id="EMB-GMN55" style="stroke:#181818;stroke-width:1;stroke-dasharray:7,7;"/></g><!--link GMN55 to GMN58--><g class="link" data-entity-1="GMN55" data-entity-2="GMN58" data-source-line="96" data-uid="lnk60" id="link_GMN55_GMN58"><path d="M2186.78,1019.5469 C2186.78,1048.8069 2186.78,1103.4569 2186.78,1127.4669" fill="none" id="GMN55-GMN58" style="stroke:#181818;stroke-width:1;stroke-dasharray:7,7;"/></g><!--SRC=[TLVRRXit47tVhnYuG6AtLfGBe0P6KK2svLY0PAkIu_IXW43jSbUCTvTRakl4BGhq8_g5_PAU8VSYoMcU8lBCcU7CcPdrIxfNjXOvkQqiP6GVL5a98mhQYFWXCxekamkTQqFVfUzJaSOxY5WNbIvbwUZFYEZy6Tx_unjj4ccQqpVlHgDaXDDbW9fI6dgFtrUwT0tcTVhcnxSY-cl7bv6n4sMMos_xaZ9z-zpNsyqethm-y3K2R-IK0zNHXSXp6fSYVt8gjhHwiauMzE_V_z2rohOqauyIzoRUAWV_jP57KVII9b-TD30Y4JjjxD1AywXYQIF_cuu-ue2EnnbdPXZehJiv8c7fusgoR67Zf50b09V22PgKcIgbD1urlfnFRw84vnjX4UQLGh0h68bC_bOUyyMmhd8j4djAbT7mRMLoIh68jp8ukfhE9YlaPPI-GrvwgdlfdJCPKrriZIu41t4UxEvNTxVBIMVOf_rehXCaeu-YuDzs-6MhR2NDAUKwHafcixaDJFFRoybivMNmEXr5SQxhX5bA1GfLPd0wbyuWxo1R80m91TOMnn-CI4N9KSrqrh7TSEfHGqasbAc2212AZPh_84y66f9b0ikFqoElb5wZHojdf2XovMXSLV1fJJoirL1KrQlgYNu07yY6tpU5ch9CEkRnOWhIMoX1McU4KxfynhzGbSnHn0iD3QfIu9dmeZiRf7r8d_M6J5r2YC7FxVBY-Y1Cu9CwXuG-QVCWcMCZNBnbKvGxnXk3wUhYUdAv5-Mqn0iuDdf1Yo0B9FfPe2odQr4ckIVtQN0AfKnnljw62ukSD4ewY6zS9qetxBebY56NeU2RTTLUTGpZnJx3nUgUlaaGsyTlc0E-s7lcV8RttSmMpnxsAMXnTNVNi1Pvgy-rTQvZ163VS59iP8AQPNFeBklI0dFPtlG9cSpFzwrdh7m8VmhncLJ4iZVFysAjskEE0TW31h5XwMHX2koc96zkrj9VzHJZyydieFY9_CfzzO9MKa1rpzBZ4TtZ7lqaI3P35OuxwkdDvUHNZAazsoMtAiOXQpZG7zAO5W6YK-8huIUVuW5PY18JTcszPUTfERbR7lQe7o_xPV29iE5cNOIhdLhUBiSV9fmA7W_eh9Wxm4OyQcam-1cjJ6VaYu316_dPwi-vzN0Jwp9L6MOxNeONP23thHP5CDp16VbxZUu24pSPmFXfdbeGFmKWaGosEgRmJZh6m4bE8a_0e2lcuGORw3IbCC5bGjntDhfgC7vmdn6_Ln8c9SekyfvZlDY9fUgQFCBvhlaNWvNLxmRwDBx7YCEC5RmBMdGpey_ek11FnD5IcXQLp4Yw-8HQ6Fe5c4fOkyyOySKU3x-8cfRhRfiIuLfNN1iitIS20D9mIBaeRMnKvMnduCNDEU1PtWDuiEsy8Q0OZuxSIKhVifHYvlRsg9cLMG6XsOXDzYAlDFAumQBhpCblEFyTn74S8neibrWEF2Ee2sc6Eiz58KuwlcP_jlNhOucQjjf7DLbWxVisH8PaM2ysyfBQGtl5xN9sgcZ9ppe9gsOSz3IOEcqLOzwJNvtFpo_ZeQsBGXZrXtVSAZh0XNqWdrPEFlBN86KK-VMpso2sMLm9-Nq5IVUzriTdvAPMEQ_eqCaK1eXFLuGjJpyD1YrZ4RuFchLfdN2rxJ2DA35QKGc1kW0cZG5L1-czXkHkfSZTbWV5ZNRI8eAgua8xZR0g7PKufLocZdGQzjxEgZoZ_z-KGDwBN2MyvEqkyB4xPHJBY7r4mHCgjVMkmaOvN4A1vt07SL1e85ObF5qBk-KF4wz2FveRZTxr6hM7VZVQELs0Q7_QajZmTqhiR2zBPFKO7-1GWEFjFDIRpoXN4FS98G6-FJY7TSL_GUnMyrNdzpy0]--></g></svg>