<svg xmlns="http://www.w3.org/2000/svg" xmlns:xlink="http://www.w3.org/1999/xlink" contentStyleType="text/css" data-diagram-type="DESCRIPTION" height="1917.1875px" preserveAspectRatio="none" style="width:5282px;height:1917px;background:#F7FAFC;" version="1.1" viewBox="0 0 5282 1917" width="5282.8125px" zoomAndPan="magnify"><defs><filter height="300%" id="fb8zovkl1eyh" width="300%" x="-1" y="-1"><feGaussianBlur result="blurOut" stdDeviation="3.125"/><feColorMatrix in="blurOut" result="blurOut2" type="matrix" values="0 0 0 0 0 0 0 0 0 0 0 0 0 0 0 0 0 0 .4 0"/><feOffset dx="6.25" dy="6.25" in="blurOut2" result="blurOut3"/><feBlend in="SourceGraphic" in2="blurOut3" mode="normal"/></filter><filter height="1" id="bb8zovkl1eyh0" width="1" x="0" y="0"><feFlood flood-color="#FDE68A" result="flood"/><feComposite in="SourceGraphic" in2="flood" operator="over"/></filter><filter height="1" id="bb8zovkl1eyh1" width="1" x="0" y="0"><feFlood flood-color="#C6F6D5" result="flood"/><feComposite in="SourceGraphic" in2="flood" operator="over"/></filter><filter height="1" id="bb8zovkl1eyh2" width="1" x="0" y="0"><feFlood flood-color="#FED7E2" result="flood"/><feComposite in="SourceGraphic" in2="flood" operator="over"/></filter><filter height="1" id="bb8zovkl1eyh3" width="1" x="0" y="0"><feFlood flood-color="#E9D8FD" result="flood"/><feComposite in="SourceGraphic" in2="flood" operator="over"/></filter><filter height="1" id="bb8zovkl1eyh4" width="1" x="0" y="0"><feFlood flood-color="#FEEBC8" result="flood"/><feComposite in="SourceGraphic" in2="flood" operator="over"/></filter></defs><g><rect fill="#F7FAFC" height="1917.1875" style="stroke:none;stroke-width:1.5625;" width="5282.8125" x="0" y="0"/><!--cluster UI--><g class="cluster" data-entity="UI" data-source-line="45" data-uid="ent0007" id="cluster_UI"><path d="M4892.2969,1025.4219 L5135.7463,1025.4219 A9.375,9.375 0 0 1 5141.9963,1031.6719 L5152.9338,1060.2607 L5242.2813,1060.2607 A6.25,6.25 0 0 1 5248.5313,1066.5107 L5248.5313,1542.6094 A6.25,6.25 0 0 1 5242.2813,1548.8594 L4892.2969,1548.8594 A6.25,6.25 0 0 1 4886.0469,1542.6094 L4886.0469,1031.6719 A6.25,6.25 0 0 1 4892.2969,1025.4219" fill="#FFFFFF" filter="url(#fb8zovkl1eyh)" style="stroke:#2B6CB0;stroke-width:2.3438;"/><line style="stroke:#2B6CB0;stroke-width:2.3438;" x1="4886.0469" x2="5152.9338" y1="1060.2607" y2="1060.2607"/><text fill="#000000" font-family="sans-serif" font-size="21.875" font-weight="bold" lengthAdjust="spacing" textLength="246.5744" x="4892.2969" y="1048.8517">User UI &amp; Reporting</text></g><!--cluster Pipeline--><g class="cluster" data-entity="Pipeline" data-source-line="52" data-uid="ent0012" id="cluster_Pipeline"><path d="M1468.0938,906.6719 L1749.4826,906.6719 A9.375,9.375 0 0 1 1755.7326,912.9219 L1766.6701,941.5107 L3688.1875,941.5107 A6.25,6.25 0 0 1 3694.4375,947.7607 L3694.4375,1175.4219 A6.25,6.25 0 0 1 3688.1875,1181.6719 L1468.0938,1181.6719 A6.25,6.25 0 0 1 1461.8438,1175.4219 L1461.8438,912.9219 A6.25,6.25 0 0 1 1468.0938,906.6719" fill="#FFFFFF" filter="url(#fb8zovkl1eyh)" style="stroke:#2B6CB0;stroke-width:2.3438;"/><line style="stroke:#2B6CB0;stroke-width:2.3438;" x1="1461.8438" x2="1766.6701" y1="941.5107" y2="941.5107"/><text fill="#000000" font-family="sans-serif" font-size="21.875" font-weight="bold" lengthAdjust="spacing" textLength="284.5139" x="1468.0938" y="930.1017">Ingestion &amp; Processing</text></g><!--cluster Indexing--><g class="cluster" data-entity="Indexing" data-source-line="61" data-uid="ent0019" id="cluster_Indexing"><path d="M3852.25,706.6719 L4075.1595,706.6719 A9.375,9.375 0 0 1 4081.4095,712.9219 L4092.347,741.5107 L5259.75,741.5107 A6.25,6.25 0 0 1 5266,747.7607 L5266,981.6719 A6.25,6.25 0 0 1 5259.75,987.9219 L3852.25,987.9219 A6.25,6.25 0 0 1 3846,981.6719 L3846,712.9219 A6.25,6.25 0 0 1 3852.25,706.6719" fill="#FFFFFF" filter="url(#fb8zovkl1eyh)" style="stroke:#2B6CB0;stroke-width:2.3438;"/><line style="stroke:#2B6CB0;stroke-width:2.3438;" x1="3846" x2="4092.347" y1="741.5107" y2="741.5107"/><text fill="#000000" font-family="sans-serif" font-size="21.875" font-weight="bold" lengthAdjust="spacing" textLength="226.0345" x="3852.25" y="730.1017">Indexing &amp; Search</text></g><!--cluster AdminArea--><g class="cluster" data-entity="AdminArea" data-source-line="68" data-uid="ent0024" id="cluster_AdminArea"><path d="M584.1875,144.1719 L864.4014,144.1719 A9.375,9.375 0 0 1 870.6514,150.4219 L881.5889,179.0107 L953,179.0107 A6.25,6.25 0 0 1 959.25,185.2607 L959.25,656.6719 A6.25,6.25 0 0 1 953,662.9219 L584.1875,662.9219 A6.25,6.25 0 0 1 577.9375,656.6719 L577.9375,150.4219 A6.25,6.25 0 0 1 584.1875,144.1719" fill="#FFFFFF" filter="url(#fb8zovkl1eyh)" style="stroke:#2B6CB0;stroke-width:2.3438;"/><line style="stroke:#2B6CB0;stroke-width:2.3438;" x1="577.9375" x2="881.5889" y1="179.0107" y2="179.0107"/><text fill="#000000" font-family="sans-serif" font-size="21.875" font-weight="bold" lengthAdjust="spacing" textLength="283.3389" x="584.1875" y="167.6017">Administration &amp; Tools</text></g><!--entity UC_Dashboard--><g class="entity" data-entity="UC_Dashboard" data-source-line="46" data-uid="ent0008" id="entity_UC_Dashboard"><ellipse cx="5067.2925" cy="1364.4835" fill="#FFFFFF" rx="156.2456" ry="34.9991" style="stroke:#2B6CB0;stroke-width:1.5625;"/><text fill="#1A202C" font-family="sans-serif" font-size="18.75" lengthAdjust="spacing" textLength="152.9205" x="4990.8323" y="1354.6694">View Dashboard</text><text fill="#1A202C" font-family="sans-serif" font-size="18.75" lengthAdjust="spacing" textLength="247.6318" x="4943.4766" y="1376.4956">(app/pages/dashboard.py)</text></g><!--entity UC_QA--><g class="entity" data-entity="UC_QA" data-source-line="47" data-uid="ent0009" id="entity_UC_QA"><ellipse cx="5067.2901" cy="1489.4778" fill="#FFFFFF" rx="95.3214" ry="34.884" style="stroke:#2B6CB0;stroke-width:1.5625;"/><text fill="#1A202C" font-family="sans-serif" font-size="18.75" lengthAdjust="spacing" textLength="118.9545" x="5007.8129" y="1483.0502">Search &amp; QA</text><text fill="#1A202C" font-family="sans-serif" font-size="18.75" lengthAdjust="spacing" textLength="131.0211" x="5001.7796" y="1504.8764">(qa_interface)</text></g><!--entity UC_Analyze--><g class="entity" data-entity="UC_Analyze" data-source-line="48" data-uid="ent0010" id="entity_UC_Analyze"><ellipse cx="5067.2933" cy="1114.4844" fill="#FFFFFF" rx="139.3089" ry="34.3751" style="stroke:#2B6CB0;stroke-width:1.5625;"/><text fill="#1A202C" font-family="sans-serif" font-size="18.75" lengthAdjust="spacing" textLength="164.1907" x="4985.1979" y="1107.3134">Filter / Aggregate</text><text fill="#1A202C" font-family="sans-serif" font-size="18.75" lengthAdjust="spacing" textLength="197.9462" x="4968.3202" y="1129.1395">(filters/aggregations)</text></g><!--entity UC_Export--><g class="entity" data-entity="UC_Export" data-source-line="49" data-uid="ent0011" id="entity_UC_Export"><ellipse cx="5067.293" cy="1239.4808" fill="#FFFFFF" rx="105.7618" ry="35.3558" style="stroke:#2B6CB0;stroke-width:1.5625;"/><text fill="#1A202C" font-family="sans-serif" font-size="18.75" lengthAdjust="spacing" textLength="140.1031" x="4997.2414" y="1233.7304">Export Reports</text><text fill="#1A202C" font-family="sans-serif" font-size="18.75" lengthAdjust="spacing" textLength="143.866" x="4995.36" y="1255.5565">(CSV / Parquet)</text></g><!--entity UC_Upload--><g class="entity" data-entity="UC_Upload" data-source-line="53" data-uid="ent0013" id="entity_UC_Upload"><ellipse cx="1649.4781" cy="995.7313" fill="#FFFFFF" rx="101.4" ry="34.1844" style="stroke:#2B6CB0;stroke-width:1.5625;"/><text fill="#1A202C" font-family="sans-serif" font-size="18.75" lengthAdjust="spacing" textLength="114.1663" x="1592.395" y="988.2779">Upload Files</text><text fill="#1A202C" font-family="sans-serif" font-size="18.75" lengthAdjust="spacing" textLength="143.1244" x="1577.9159" y="1010.1041">(data/uploads/)</text></g><!--entity UC_Validate--><g class="entity" data-entity="UC_Validate" data-source-line="54" data-uid="ent0014" id="entity_UC_Validate"><ellipse cx="2157.5487" cy="995.741" fill="#FFFFFF" rx="150.1112" ry="33.7722" style="stroke:#2B6CB0;stroke-width:1.5625;"/><text fill="#1A202C" font-family="sans-serif" font-size="18.75" lengthAdjust="spacing" textLength="125.4822" x="2094.8077" y="985.8598">Validate Files</text><text fill="#1A202C" font-family="sans-serif" font-size="18.75" lengthAdjust="spacing" textLength="232.9559" x="2041.0708" y="1007.686">(file_handlers/validators)</text></g><!--entity UC_ProcessAudio--><g class="entity" data-entity="UC_ProcessAudio" data-source-line="55" data-uid="ent0015" id="entity_UC_ProcessAudio"><ellipse cx="2654.7305" cy="995.7372" fill="#FFFFFF" rx="112.6992" ry="34.3466" style="stroke:#2B6CB0;stroke-width:1.5625;"/><text fill="#1A202C" font-family="sans-serif" font-size="18.75" lengthAdjust="spacing" textLength="131.1218" x="2589.1695" y="988.524">Process Audio</text><text fill="#1A202C" font-family="sans-serif" font-size="18.75" lengthAdjust="spacing" textLength="158.9722" x="2575.2444" y="1010.3502">(AudioProcessor)</text></g><!--entity UC_Transcribe--><g class="entity" data-entity="UC_Transcribe" data-source-line="56" data-uid="ent0016" id="entity_UC_Transcribe"><ellipse cx="3086.8059" cy="995.7387" fill="#FFFFFF" rx="111.5715" ry="34.1762" style="stroke:#2B6CB0;stroke-width:1.5625;"/><text fill="#1A202C" font-family="sans-serif" font-size="18.75" lengthAdjust="spacing" textLength="158.2214" x="3007.6952" y="992.2668">Transcribe Audio</text><text fill="#1A202C" font-family="sans-serif" font-size="18.75" lengthAdjust="spacing" textLength="125.9857" x="3023.8131" y="1014.093">(WhisperSTT)</text></g><!--entity UC_LabelCalls--><g class="entity" data-entity="UC_LabelCalls" data-source-line="57" data-uid="ent0017" id="entity_UC_LabelCalls"><ellipse cx="3531.5694" cy="995.7293" fill="#FFFFFF" rx="137.8663" ry="34.3699" style="stroke:#2B6CB0;stroke-width:1.5625;"/><text fill="#1A202C" font-family="sans-serif" font-size="18.75" lengthAdjust="spacing" textLength="195.8588" x="3433.64" y="991.9704">Apply Labeling Rules</text><text fill="#1A202C" font-family="sans-serif" font-size="18.75" lengthAdjust="spacing" textLength="162.2955" x="3450.4216" y="1013.7966">(labeling_engine)</text></g><!--entity UC_BatchProcess--><g class="entity" data-entity="UC_BatchProcess" data-source-line="58" data-uid="ent0018" id="entity_UC_BatchProcess"><ellipse cx="1649.4857" cy="1120.7315" fill="#FFFFFF" rx="162.642" ry="36.2784" style="stroke:#2B6CB0;stroke-width:1.5625;"/><text fill="#1A202C" font-family="sans-serif" font-size="18.75" lengthAdjust="spacing" textLength="98.5291" x="1600.2212" y="1107.0739">Batch Jobs</text><text fill="#1A202C" font-family="sans-serif" font-size="18.75" lengthAdjust="spacing" textLength="284.9579" x="1507.0068" y="1128.9">(batch processing / scheduler)</text></g><!--entity UC_Embed--><g class="entity" data-entity="UC_Embed" data-source-line="62" data-uid="ent0020" id="entity_UC_Embed"><ellipse cx="4053.9805" cy="930.1156" fill="#FFFFFF" rx="142.043" ry="33.2875" style="stroke:#2B6CB0;stroke-width:1.5625;"/><text fill="#1A202C" font-family="sans-serif" font-size="18.75" lengthAdjust="spacing" textLength="209.6466" x="3949.1572" y="927.9912">Generate Embeddings</text><text fill="#1A202C" font-family="sans-serif" font-size="18.75" lengthAdjust="spacing" textLength="130.4352" x="3988.7629" y="949.8174">(embeddings)</text></g><!--entity UC_Index--><g class="entity" data-entity="UC_Index" data-source-line="63" data-uid="ent0021" id="entity_UC_Index"><ellipse cx="4571.5279" cy="797.2896" fill="#FFFFFF" rx="126.7467" ry="35.1177" style="stroke:#2B6CB0;stroke-width:1.5625;"/><text fill="#1A202C" font-family="sans-serif" font-size="18.75" lengthAdjust="spacing" textLength="164.8132" x="4489.1213" y="791.1989">Index Documents</text><text fill="#1A202C" font-family="sans-serif" font-size="18.75" lengthAdjust="spacing" textLength="175.0946" x="4483.9806" y="813.025">(vectordb/indexer)</text></g><!--entity UC_Search--><g class="entity" data-entity="UC_Search" data-source-line="64" data-uid="ent0022" id="entity_UC_Search"><ellipse cx="5067.2951" cy="923.8653" fill="#FFFFFF" rx="173.7013" ry="38.4903" style="stroke:#2B6CB0;stroke-width:1.5625;"/><text fill="#1A202C" font-family="sans-serif" font-size="18.75" lengthAdjust="spacing" textLength="255.9723" x="4939.3089" y="918.1453">Semantic Search / Retrieve</text><text fill="#1A202C" font-family="sans-serif" font-size="18.75" lengthAdjust="spacing" textLength="260.2203" x="4937.1849" y="939.9715">(retriever/semantic_search)</text></g><!--entity UC_ManageVector--><g class="entity" data-entity="UC_ManageVector" data-source-line="65" data-uid="ent0023" id="entity_UC_ManageVector"><ellipse cx="4053.9893" cy="801.9885" fill="#FFFFFF" rx="182.9893" ry="40.3479" style="stroke:#2B6CB0;stroke-width:1.5625;"/><text fill="#1A202C" font-family="sans-serif" font-size="18.75" lengthAdjust="spacing" textLength="191.6107" x="3958.1839" y="788.2708">Manage VectorStore</text><text fill="#1A202C" font-family="sans-serif" font-size="18.75" lengthAdjust="spacing" textLength="329.7455" x="3889.1165" y="810.0969">(chroma_client / storage_manager)</text></g><!--entity UC_Configure--><g class="entity" data-entity="UC_Configure" data-source-line="69" data-uid="ent0025" id="entity_UC_Configure"><ellipse cx="768.5959" cy="356.6786" fill="#FFFFFF" rx="165.6584" ry="36.8817" style="stroke:#2B6CB0;stroke-width:1.5625;"/><text fill="#1A202C" font-family="sans-serif" font-size="18.75" lengthAdjust="spacing" textLength="241.2781" x="647.9569" y="351.7213">Configure Models &amp; Rules</text><text fill="#1A202C" font-family="sans-serif" font-size="18.75" lengthAdjust="spacing" textLength="231.839" x="652.6764" y="373.5475">(config/*.toml, admin UI)</text></g><!--entity UC_AdminScripts--><g class="entity" data-entity="UC_AdminScripts" data-source-line="70" data-uid="ent0026" id="entity_UC_AdminScripts"><ellipse cx="768.5909" cy="231.6776" fill="#FFFFFF" rx="147.8409" ry="33.3182" style="stroke:#2B6CB0;stroke-width:1.5625;"/><text fill="#1A202C" font-family="sans-serif" font-size="18.75" lengthAdjust="spacing" textLength="233.6151" x="651.7834" y="231.4834">Run Maintenance Scripts</text><text fill="#1A202C" font-family="sans-serif" font-size="18.75" lengthAdjust="spacing" textLength="92.3401" x="722.4209" y="253.3095">(scripts/*)</text></g><!--entity UC_Tests--><g class="entity" data-entity="UC_Tests" data-source-line="71" data-uid="ent0027" id="entity_UC_Tests"><ellipse cx="768.5975" cy="481.6758" fill="#FFFFFF" rx="88.2694" ry="32.8633" style="stroke:#2B6CB0;stroke-width:1.5625;"/><text fill="#1A202C" font-family="sans-serif" font-size="18.75" lengthAdjust="spacing" textLength="129.4922" x="703.8514" y="480.2149">Run Tests / CI</text><text fill="#1A202C" font-family="sans-serif" font-size="18.75" lengthAdjust="spacing" textLength="66.7236" x="735.2357" y="502.041">(tests/)</text></g><!--entity UC_Monitor--><g class="entity" data-entity="UC_Monitor" data-source-line="72" data-uid="ent0028" id="entity_UC_Monitor"><ellipse cx="768.5901" cy="603.5393" fill="#FFFFFF" rx="148.0432" ry="34.0862" style="stroke:#2B6CB0;stroke-width:1.5625;"/><text fill="#1A202C" font-family="sans-serif" font-size="18.75" lengthAdjust="spacing" textLength="212.8601" x="662.1601" y="600.2015">Monitor System Status</text><text fill="#1A202C" font-family="sans-serif" font-size="18.75" lengthAdjust="spacing" textLength="166.1774" x="685.5014" y="622.0277">(logging, metrics)</text></g><!--entity Agent--><g class="entity" data-entity="Agent" data-source-line="36" data-uid="ent0002" id="entity_Agent"><ellipse cx="768.6032" cy="1229.6406" fill="#FDE68A" filter="url(#fb8zovkl1eyh)" rx="12.5" ry="12.5" style="stroke:#2B6CB0;stroke-width:0.7813;"/><path d="M768.6032,1242.1406 L768.6032,1284.3281 M748.2907,1254.6406 L788.9157,1254.6406 M768.6032,1284.3281 L748.2907,1307.7656 M768.6032,1284.3281 L788.9157,1307.7656" fill="none" filter="url(#fb8zovkl1eyh)" style="stroke:#2B6CB0;stroke-width:0.7813;"/><text fill="#1A202C" font-family="sans-serif" font-size="21.875" lengthAdjust="spacing" textLength="64.7491" x="709.3281" y="1335.1017">Agent</text><text fill="#1A202C" font-family="sans-serif" font-size="21.875" lengthAdjust="spacing" textLength="118.5501" x="709.3281" y="1360.5656">(Reviewer)</text></g><!--entity Analyst--><g class="entity" data-entity="Analyst" data-source-line="37" data-uid="ent0003" id="entity_Analyst"><ellipse cx="4571.529" cy="1117.1406" fill="#C6F6D5" filter="url(#fb8zovkl1eyh)" rx="12.5" ry="12.5" style="stroke:#2B6CB0;stroke-width:0.7813;"/><path d="M4571.529,1129.6406 L4571.529,1171.8281 M4551.2165,1142.1406 L4591.8415,1142.1406 M4571.529,1171.8281 L4551.2165,1195.2656 M4571.529,1171.8281 L4591.8415,1195.2656" fill="none" filter="url(#fb8zovkl1eyh)" style="stroke:#2B6CB0;stroke-width:0.7813;"/><text fill="#1A202C" font-family="sans-serif" font-size="21.875" lengthAdjust="spacing" textLength="81.2302" x="4512.0938" y="1222.6017">Analyst</text><text fill="#1A202C" font-family="sans-serif" font-size="21.875" lengthAdjust="spacing" textLength="118.8705" x="4512.0938" y="1248.0656">(Research)</text></g><!--entity DataEngineer--><g class="entity" data-entity="DataEngineer" data-source-line="38" data-uid="ent0004" id="entity_DataEngineer"><ellipse cx="87.6785" cy="1059.3281" fill="#FED7E2" filter="url(#fb8zovkl1eyh)" rx="12.5" ry="12.5" style="stroke:#2B6CB0;stroke-width:0.7813;"/><path d="M87.6785,1071.8281 L87.6785,1114.0156 M67.366,1084.3281 L107.991,1084.3281 M87.6785,1114.0156 L67.366,1137.4531 M87.6785,1114.0156 L107.991,1137.4531" fill="none" filter="url(#fb8zovkl1eyh)" style="stroke:#2B6CB0;stroke-width:0.7813;"/><text fill="#1A202C" font-family="sans-serif" font-size="21.875" lengthAdjust="spacing" textLength="156.6071" x="9.375" y="1164.7892">Data Engineer</text><text fill="#1A202C" font-family="sans-serif" font-size="21.875" lengthAdjust="spacing" textLength="59.5688" x="9.375" y="1190.2531">(Ops)</text></g><!--entity Admin--><g class="entity" data-entity="Admin" data-source-line="39" data-uid="ent0005" id="entity_Admin"><ellipse cx="87.674" cy="357.7656" fill="#E9D8FD" filter="url(#fb8zovkl1eyh)" rx="12.5" ry="12.5" style="stroke:#2B6CB0;stroke-width:0.7813;"/><path d="M87.674,370.2656 L87.674,412.4531 M67.3615,382.7656 L107.9865,382.7656 M87.674,412.4531 L67.3615,435.8906 M87.674,412.4531 L107.9865,435.8906" fill="none" filter="url(#fb8zovkl1eyh)" style="stroke:#2B6CB0;stroke-width:0.7813;"/><text fill="#1A202C" font-family="sans-serif" font-size="21.875" lengthAdjust="spacing" textLength="70.1004" x="44.0469" y="463.2267">Admin</text><text fill="#1A202C" font-family="sans-serif" font-size="21.875" lengthAdjust="spacing" textLength="87.2543" x="44.0469" y="488.6906">(Config)</text></g><!--entity Scheduler--><g class="entity" data-entity="Scheduler" data-source-line="40" data-uid="ent0006" id="entity_Scheduler"><ellipse cx="768.6053" cy="817.1406" fill="#FEEBC8" filter="url(#fb8zovkl1eyh)" rx="12.5" ry="12.5" style="stroke:#2B6CB0;stroke-width:0.7813;"/><path d="M768.6053,829.6406 L768.6053,871.8281 M748.2928,842.1406 L788.9178,842.1406 M768.6053,871.8281 L748.2928,895.2656 M768.6053,871.8281 L788.9178,895.2656" fill="none" filter="url(#fb8zovkl1eyh)" style="stroke:#2B6CB0;stroke-width:0.7813;"/><text fill="#1A202C" font-family="sans-serif" font-size="21.875" lengthAdjust="spacing" textLength="109.5139" x="699.3594" y="922.6017">Scheduler</text><text fill="#1A202C" font-family="sans-serif" font-size="21.875" lengthAdjust="spacing" textLength="138.4918" x="699.3594" y="948.0656">(Automated)</text></g><g class="entity" data-entity="GMN63" data-source-line="138" data-uid="ent0064" id="entity_GMN63"><path d="M261.2969,9.375 L261.2969,119.5801 L1275.9034,119.5801 L1275.9034,25 L1260.2784,9.375 L261.2969,9.375" fill="#FEFFDD" filter="url(#fb8zovkl1eyh)" style="stroke:#181818;stroke-width:0.7813;"/><path d="M1260.2784,9.375 L1260.2784,25 L1275.9034,25 L1260.2784,9.375" fill="#FEFFDD" style="stroke:#181818;stroke-width:1.5625;"/><text fill="#000000" font-family="sans-serif" font-size="20.3125" lengthAdjust="spacing" textLength="48.3711" x="270.6719" y="36.042">Tips:</text><text fill="#000000" font-family="sans-serif" font-size="20.3125" lengthAdjust="spacing" textLength="981.794" x="270.6719" y="59.687">- Use a PipelineCoordinator to orchestrate the include flow (upload&#8594;process&#8594;transcribe&#8594;index).</text><text fill="#000000" font-family="sans-serif" font-size="20.3125" lengthAdjust="spacing" textLength="754.6272" x="270.6719" y="83.3321">- Persist provenance (model versions, timestamps) for each indexed item.</text><text fill="#000000" font-family="sans-serif" font-size="20.3125" lengthAdjust="spacing" textLength="859.8892" x="270.6719" y="106.9771">- For very large datasets, replace in-memory cache with Redis+managed vector DB.</text></g><!--link Agent to UC_Upload--><g class="link" data-entity-1="Agent" data-entity-2="UC_Upload" data-source-line="78" data-uid="lnk29" id="link_Agent_UC_Upload"><path d="M828.5313,1270.1406 C945.75,1228.3281 1218.375,1131.9375 1449.3438,1056.6719 C1489.625,1043.5469 1525.792,1032.3387 1562.8388,1021.1355" fill="none" id="Agent-to-UC_Upload" style="stroke:#181818;stroke-width:1.5625;"/><polygon fill="#181818" points="1571.8125,1018.4219,1556.5429,1016.5099,1564.3344,1020.6833,1560.1611,1028.4748,1571.8125,1018.4219" style="stroke:#181818;stroke-width:1.5625;"/></g><!--link Agent to UC_Dashboard--><g class="link" data-entity-1="Agent" data-entity-2="UC_Dashboard" data-source-line="79" data-uid="lnk30" id="link_Agent_UC_Dashboard"><path d="M828.625,1297.75 C969.4219,1313.2656 1338.625,1350.4219 1647.9219,1350.4219 C1647.9219,1350.4219 1647.9219,1350.4219 3297.6094,1350.4219 C3893.9063,1350.4219 4593.9226,1358.3965 4901.4383,1362.3028" fill="none" id="Agent-to-UC_Dashboard" style="stroke:#181818;stroke-width:1.5625;"/><polygon fill="#181818" points="4910.8125,1362.4219,4896.8305,1355.9938,4903.0006,1362.3226,4896.6717,1368.4928,4910.8125,1362.4219" style="stroke:#181818;stroke-width:1.5625;"/></g><!--link Agent to UC_QA--><g class="link" data-entity-1="Agent" data-entity-2="UC_QA" data-source-line="80" data-uid="lnk31" id="link_Agent_UC_QA"><path d="M828.3438,1337.9688 C963.5156,1442.0625 1312.8438,1683.2344 1647.9219,1683.2344 C1647.9219,1683.2344 1647.9219,1683.2344 4573.0938,1683.2344 C4748.625,1683.2344 4928.6137,1580.4925 5012.6762,1525.7268" fill="none" id="Agent-to-UC_QA" style="stroke:#181818;stroke-width:1.5625;"/><polygon fill="#181818" points="5020.5313,1520.6094,5005.337,1523.0489,5013.9854,1524.8739,5012.1603,1533.5223,5020.5313,1520.6094" style="stroke:#181818;stroke-width:1.5625;"/></g><!--link Agent to UC_LabelCalls--><g class="link" data-entity-1="Agent" data-entity-2="UC_LabelCalls" data-source-line="81" data-uid="lnk32" id="link_Agent_UC_LabelCalls"><path d="M828.6406,1285.2344 C969.5,1271.75 1338.7969,1239.4844 1647.9219,1239.4844 C1647.9219,1239.4844 1647.9219,1239.4844 3088.375,1239.4844 C3260.0156,1239.4844 3420.9676,1103.1304 3490.1551,1036.146" fill="none" id="Agent-to-UC_LabelCalls" style="stroke:#181818;stroke-width:1.5625;"/><polygon fill="#181818" points="3496.8906,1029.625,3482.44,1034.9162,3491.2777,1035.0592,3491.1347,1043.8969,3496.8906,1029.625" style="stroke:#181818;stroke-width:1.5625;"/><text fill="#000000" font-family="sans-serif" font-size="20.3125" lengthAdjust="spacing" textLength="138.0913" x="2356.0938" y="1233.3389">correct labels</text></g><!--link Analyst to UC_Dashboard--><g class="link" data-entity-1="Analyst" data-entity-2="UC_Dashboard" data-source-line="83" data-uid="lnk33" id="link_Analyst_UC_Dashboard"><path d="M4631.3125,1203.9844 C4691.4531,1229.9219 4788.3281,1270.6719 4873.5469,1301.9844 C4905.8281,1313.8438 4932.6211,1322.9141 4964.4336,1333.1329" fill="none" id="Analyst-to-UC_Dashboard" style="stroke:#181818;stroke-width:1.5625;"/><polygon fill="#181818" points="4973.3594,1336,4961.8821,1325.7488,4965.9212,1333.6107,4958.0592,1337.6498,4973.3594,1336" style="stroke:#181818;stroke-width:1.5625;"/></g><!--link Analyst to UC_Search--><g class="link" data-entity-1="Analyst" data-entity-2="UC_Search" data-source-line="84" data-uid="lnk34" id="link_Analyst_UC_Search"><path d="M4631.5469,1148.3281 C4722.9063,1101.0938 4890.8755,1014.2591 4988.3599,963.8528" fill="none" id="Analyst-to-UC_Search" style="stroke:#181818;stroke-width:1.5625;"/><polygon fill="#181818" points="4996.6875,959.5469,4981.3254,960.4541,4989.7478,963.1352,4987.0667,971.5576,4996.6875,959.5469" style="stroke:#181818;stroke-width:1.5625;"/></g><!--link Analyst to UC_QA--><g class="link" data-entity-1="Analyst" data-entity-2="UC_QA" data-source-line="85" data-uid="lnk35" id="link_Analyst_UC_QA"><path d="M4631.3594,1238.2969 C4688.5156,1293.9531 4780.4219,1375.7969 4873.5469,1426.9844 C4908.4375,1446.1719 4941.1558,1458.0558 4976.7964,1468.212" fill="none" id="Analyst-to-UC_QA" style="stroke:#181818;stroke-width:1.5625;"/><polygon fill="#181818" points="4985.8125,1470.7813,4974.0012,1460.9167,4978.2991,1468.6402,4970.5756,1472.9381,4985.8125,1470.7813" style="stroke:#181818;stroke-width:1.5625;"/></g><!--link Analyst to UC_Analyze--><g class="link" data-entity-1="Analyst" data-entity-2="UC_Analyze" data-source-line="86" data-uid="lnk36" id="link_Analyst_UC_Analyze"><path d="M4631.5469,1170.9531 C4707.875,1161.0156 4834.1721,1144.6004 4933.594,1131.6629" fill="none" id="Analyst-to-UC_Analyze" style="stroke:#181818;stroke-width:1.5625;"/><polygon fill="#181818" points="4942.8906,1130.4531,4928.1392,1126.07,4935.1434,1131.4612,4929.7522,1138.4655,4942.8906,1130.4531" style="stroke:#181818;stroke-width:1.5625;"/></g><!--link Analyst to UC_Export--><g class="link" data-entity-1="Analyst" data-entity-2="UC_Export" data-source-line="87" data-uid="lnk37" id="link_Analyst_UC_Export"><path d="M4631.5469,1185.7813 C4714.375,1196.0156 4857.6959,1213.7554 4958.1178,1226.1772" fill="none" id="Analyst-to-UC_Export" style="stroke:#181818;stroke-width:1.5625;"/><polygon fill="#181818" points="4967.4219,1227.3281,4954.233,1219.3991,4959.6685,1226.3691,4952.6985,1231.8045,4967.4219,1227.3281" style="stroke:#181818;stroke-width:1.5625;"/></g><!--link DataEngineer to UC_BatchProcess--><g class="link" data-entity-1="DataEngineer" data-entity-2="UC_BatchProcess" data-source-line="89" data-uid="lnk38" id="link_DataEngineer_UC_BatchProcess"><path d="M166.5313,1120.7344 C408.4063,1120.7344 1145.0156,1120.7344 1476.6875,1120.7344" fill="none" id="DataEngineer-to-UC_BatchProcess" style="stroke:#181818;stroke-width:1.5625;"/><polygon fill="#181818" points="1486.0625,1120.7344,1472,1114.4844,1478.25,1120.7344,1472,1126.9844,1486.0625,1120.7344" style="stroke:#181818;stroke-width:1.5625;"/></g><!--link DataEngineer to UC_Index--><g class="link" data-entity-1="DataEngineer" data-entity-2="UC_Index" data-source-line="90" data-uid="lnk39" id="link_DataEngineer_UC_Index"><path d="M104.5938,1045.9219 C125.3438,965.3437 170.7188,840.2031 261.2969,776.9844 C633.4063,517.2812 851.4219,823.3437 1275.9063,662.9219 C1299.6875,653.9375 1299.1563,639.5156 1322.7813,630.1094 C1375.6094,609.0781 1393.0625,619.5469 1449.3438,611.3594 C1653.2031,581.6875 1702.2031,545.7344 1908.2188,545.7344 C1908.2188,545.7344 1908.2188,545.7344 4055.5469,545.7344 C4251.3906,545.7344 4443.2895,688.6555 4524.6333,757.3274" fill="none" id="DataEngineer-to-UC_Index" style="stroke:#181818;stroke-width:1.5625;"/><polygon fill="#181818" points="4531.7969,763.375,4525.0833,749.5278,4525.8272,758.3353,4517.0198,759.0793,4531.7969,763.375" style="stroke:#181818;stroke-width:1.5625;"/></g><!--link DataEngineer to UC_Embed--><g class="link" data-entity-1="DataEngineer" data-entity-2="UC_Embed" data-source-line="91" data-uid="lnk40" id="link_DataEngineer_UC_Embed"><path d="M90.9375,1196.1406 C97.2813,1284.0156 122.0312,1426.75 212.8594,1501.9844 C404.0625,1660.3594 518.7656,1572.2969 767.0313,1572.2969 C767.0313,1572.2969 767.0313,1572.2969 3533.125,1572.2969 C3849.2813,1572.2969 4003.5087,1104.8798 4040.9149,972.7548" fill="none" id="DataEngineer-to-UC_Embed" style="stroke:#181818;stroke-width:1.5625;"/><polygon fill="#181818" points="4043.4688,963.7344,4033.6244,975.5625,4041.3406,971.2514,4045.6517,978.9676,4043.4688,963.7344" style="stroke:#181818;stroke-width:1.5625;"/></g><!--link DataEngineer to UC_ManageVector--><g class="link" data-entity-1="DataEngineer" data-entity-2="UC_ManageVector" data-source-line="92" data-uid="lnk41" id="link_DataEngineer_UC_ManageVector"><path d="M115.9844,1196.1719 C142.5938,1259.4844 189.8594,1346.7344 261.2969,1392.6094 C452.1719,1515.1875 540.1875,1461.3594 767.0313,1461.3594 C767.0313,1461.3594 767.0313,1461.3594 3297.6094,1461.3594 C3517.9375,1461.3594 3557.2969,1343.4063 3706.9375,1181.6719 C3776.0156,1107 3789.4375,1079.9375 3821,983.2344 C3828.9063,959 3817.2344,888.8125 3833.5,869.1719 C3850.5938,848.5 3865.207,837.5418 3890.2539,827.4793" fill="none" id="DataEngineer-to-UC_ManageVector" style="stroke:#181818;stroke-width:1.5625;"/><polygon fill="#181818" points="3898.9531,823.9844,3883.5744,823.4272,3891.7038,826.8968,3888.2342,835.0262,3898.9531,823.9844" style="stroke:#181818;stroke-width:1.5625;"/></g><!--link DataEngineer to UC_Monitor--><g class="link" data-entity-1="DataEngineer" data-entity-2="UC_Monitor" data-source-line="93" data-uid="lnk42" id="link_DataEngineer_UC_Monitor"><path d="M100.2969,1045.3438 C118.4375,932.5156 158.0781,727.8906 212.8594,680.1094 C330.7031,577.3125 510.1642,572.6754 634.0704,584.0347" fill="none" id="DataEngineer-to-UC_Monitor" style="stroke:#181818;stroke-width:1.5625;"/><polygon fill="#181818" points="643.4063,584.8906,629.9731,577.3829,635.6264,584.1774,628.8319,589.8307,643.4063,584.8906" style="stroke:#181818;stroke-width:1.5625;"/></g><!--link Admin to UC_Configure--><g class="link" data-entity-1="Admin" data-entity-2="UC_Configure" data-source-line="95" data-uid="lnk43" id="link_Admin_UC_Configure"><path d="M131.6406,415.2656 C226.2656,406.5312 449.2583,385.97 605.1802,371.595" fill="none" id="Admin-to-UC_Configure" style="stroke:#181818;stroke-width:1.5625;"/><polygon fill="#181818" points="614.5156,370.7344,599.9387,365.8018,606.7361,371.4516,601.0863,378.249,614.5156,370.7344" style="stroke:#181818;stroke-width:1.5625;"/></g><!--link Admin to UC_AdminScripts--><g class="link" data-entity-1="Admin" data-entity-2="UC_AdminScripts" data-source-line="96" data-uid="lnk44" id="link_Admin_UC_AdminScripts"><path d="M132.0781,377.7656 C164.75,348.8125 212.3438,312 261.2969,292.6094 C376.4063,247.0156 507.5047,233.3762 611.161,230.0793" fill="none" id="Admin-to-UC_AdminScripts" style="stroke:#181818;stroke-width:1.5625;"/><polygon fill="#181818" points="620.5313,229.7812,606.2772,223.9815,612.7227,230.0296,606.6745,236.4751,620.5313,229.7812" style="stroke:#181818;stroke-width:1.5625;"/></g><!--link Admin to UC_Monitor--><g class="link" data-entity-1="Admin" data-entity-2="UC_Monitor" data-source-line="97" data-uid="lnk45" id="link_Admin_UC_Monitor"><path d="M131.5781,458.9531 C164.3594,487.2656 212.2969,523.5469 261.2969,542.6094 C376.4688,587.4375 507.2398,601.1506 610.771,604.6662" fill="none" id="Admin-to-UC_Monitor" style="stroke:#181818;stroke-width:1.5625;"/><polygon fill="#181818" points="620.1406,604.9844,606.2983,598.2607,612.3326,604.7192,605.8741,610.7535,620.1406,604.9844" style="stroke:#181818;stroke-width:1.5625;"/></g><!--link Admin to UC_Tests--><g class="link" data-entity-1="Admin" data-entity-2="UC_Tests" data-source-line="98" data-uid="lnk46" id="link_Admin_UC_Tests"><path d="M131.6406,423.0781 C241.3281,433.2031 526.7583,459.5143 673.0083,472.9986" fill="none" id="Admin-to-UC_Tests" style="stroke:#181818;stroke-width:1.5625;"/><polygon fill="#181818" points="682.3438,473.8594,668.9145,466.3447,674.5642,473.1421,667.7668,478.7919,682.3438,473.8594" style="stroke:#181818;stroke-width:1.5625;"/></g><!--link Scheduler to UC_BatchProcess--><g class="link" data-entity-1="Scheduler" data-entity-2="UC_BatchProcess" data-source-line="100" data-uid="lnk47" id="link_Scheduler_UC_BatchProcess"><path d="M838.3125,897.3437 C991.5781,939.6406 1355.1345,1039.9599 1536.4314,1089.9755" fill="none" id="Scheduler-to-UC_BatchProcess" style="stroke:#181818;stroke-width:1.5625;"/><polygon fill="#181818" points="1545.4688,1092.4688,1533.5748,1082.704,1537.9376,1090.3911,1530.2505,1094.7539,1545.4688,1092.4688" style="stroke:#181818;stroke-width:1.5625;"/></g><!--link Scheduler to UC_ProcessAudio--><g class="link" data-entity-1="Scheduler" data-entity-2="UC_ProcessAudio" data-source-line="101" data-uid="lnk48" id="link_Scheduler_UC_ProcessAudio"><path d="M838.4688,879.1094 C1054.3281,881.2969 1741.0469,891.4531 2307.6563,934.7969 C2391.3125,941.2031 2412.6094,941.7188 2495.1563,956.6719 C2519.3438,961.0625 2536.2452,964.709 2560.0264,970.6153" fill="none" id="Scheduler-to-UC_ProcessAudio" style="stroke:#181818;stroke-width:1.5625;"/><polygon fill="#181818" points="2569.125,972.875,2556.9836,963.4197,2561.5428,970.9919,2553.9706,975.5512,2569.125,972.875" style="stroke:#181818;stroke-width:1.5625;"/></g><!--link Scheduler to UC_Transcribe--><g class="link" data-entity-1="Scheduler" data-entity-2="UC_Transcribe" data-source-line="102" data-uid="lnk49" id="link_Scheduler_UC_Transcribe"><path d="M838.5625,867.2031 C1015.1094,838.9219 1500.7656,767.6094 1908.2188,767.6094 C1908.2188,767.6094 1908.2188,767.6094 2656.2969,767.6094 C2820.7656,767.6094 2976.6776,893.6056 3044.9276,956.6837" fill="none" id="Scheduler-to-UC_Transcribe" style="stroke:#181818;stroke-width:1.5625;"/><polygon fill="#181818" points="3051.8125,963.0469,3045.7273,948.9123,3046.0751,957.7443,3037.2431,958.0921,3051.8125,963.0469" style="stroke:#181818;stroke-width:1.5625;"/></g><!--link Scheduler to UC_Index--><g class="link" data-entity-1="Scheduler" data-entity-2="UC_Index" data-source-line="103" data-uid="lnk50" id="link_Scheduler_UC_Index"><path d="M838.2656,878.25 C941.75,874.5938 1140.8281,854.8125 1275.9063,761.3594 C1306.7813,739.9844 1290.6406,710.4844 1322.7813,691.0469 C1447.1094,615.8281 1502.6094,656.6719 1647.9219,656.6719 C1647.9219,656.6719 1647.9219,656.6719 4055.5469,656.6719 C4221.5,656.6719 4398.6486,721.9164 4495.1174,763.2601" fill="none" id="Scheduler-to-UC_Index" style="stroke:#181818;stroke-width:1.5625;"/><polygon fill="#181818" points="4503.7344,766.9531,4493.2709,755.669,4496.5536,763.8756,4488.3469,767.1583,4503.7344,766.9531" style="stroke:#181818;stroke-width:1.5625;"/></g><!--link UC_Upload to UC_Validate--><g class="link" data-entity-1="UC_Upload" data-entity-2="UC_Validate" data-source-line="108" data-uid="lnk51" id="link_UC_Upload_UC_Validate"><path d="M1751.4063,995.7344 C1824.4531,995.7344 1915.2188,995.7344 1997.5938,995.7344" fill="none" id="UC_Upload-to-UC_Validate" style="stroke:#181818;stroke-width:1.5625;"/><polygon fill="#181818" points="2006.9688,995.7344,1992.9063,989.4844,1999.1563,995.7344,1992.9063,1001.9844,2006.9688,995.7344" style="stroke:#181818;stroke-width:1.5625;"/><text fill="#000000" font-family="sans-serif" font-size="20.3125" lengthAdjust="spacing" textLength="98.4482" x="1860.5625" y="989.5889">&#171;include&#187;</text></g><!--link UC_Validate to UC_ProcessAudio--><g class="link" data-entity-1="UC_Validate" data-entity-2="UC_ProcessAudio" data-source-line="109" data-uid="lnk52" id="link_UC_Validate_UC_ProcessAudio"><path d="M2308.0156,995.7344 C2383.0156,995.7344 2463.0625,995.7344 2532.0938,995.7344" fill="none" id="UC_Validate-to-UC_ProcessAudio" style="stroke:#181818;stroke-width:1.5625;"/><polygon fill="#181818" points="2541.4688,995.7344,2527.4063,989.4844,2533.6563,995.7344,2527.4063,1001.9844,2541.4688,995.7344" style="stroke:#181818;stroke-width:1.5625;"/><text fill="#000000" font-family="sans-serif" font-size="20.3125" lengthAdjust="spacing" textLength="98.4482" x="2375.625" y="989.5889">&#171;include&#187;</text></g><!--link UC_ProcessAudio to UC_Transcribe--><g class="link" data-entity-1="UC_ProcessAudio" data-entity-2="UC_Transcribe" data-source-line="110" data-uid="lnk53" id="link_UC_ProcessAudio_UC_Transcribe"><path d="M2767.875,995.7344 C2831.6719,995.7344 2902.0156,995.7344 2965.5938,995.7344" fill="none" id="UC_ProcessAudio-to-UC_Transcribe" style="stroke:#181818;stroke-width:1.5625;"/><polygon fill="#181818" points="2974.9688,995.7344,2960.9063,989.4844,2967.1563,995.7344,2960.9063,1001.9844,2974.9688,995.7344" style="stroke:#181818;stroke-width:1.5625;"/><text fill="#000000" font-family="sans-serif" font-size="20.3125" lengthAdjust="spacing" textLength="98.4482" x="2822.125" y="989.5889">&#171;include&#187;</text></g><!--link UC_Transcribe to UC_LabelCalls--><g class="link" data-entity-1="UC_Transcribe" data-entity-2="UC_LabelCalls" data-source-line="111" data-uid="lnk54" id="link_UC_Transcribe_UC_LabelCalls"><path d="M3198.6719,995.7344 C3257.5625,995.7344 3321.2031,995.7344 3383.7031,995.7344" fill="none" id="UC_Transcribe-to-UC_LabelCalls" style="stroke:#181818;stroke-width:1.5625;"/><polygon fill="#181818" points="3393.0781,995.7344,3379.0156,989.4844,3385.2656,995.7344,3379.0156,1001.9844,3393.0781,995.7344" style="stroke:#181818;stroke-width:1.5625;"/><text fill="#000000" font-family="sans-serif" font-size="20.3125" lengthAdjust="spacing" textLength="98.4482" x="3246.8281" y="989.5889">&#171;include&#187;</text></g><!--link UC_LabelCalls to UC_Embed--><g class="link" data-entity-1="UC_LabelCalls" data-entity-2="UC_Embed" data-source-line="112" data-uid="lnk55" id="link_UC_LabelCalls_UC_Embed"><path d="M3655.5313,980.2656 C3737.5469,969.9063 3835.8864,957.4718 3918.3864,947.05" fill="none" id="UC_LabelCalls-to-UC_Embed" style="stroke:#181818;stroke-width:1.5625;"/><polygon fill="#181818" points="3927.6875,945.875,3912.9526,941.4367,3919.9366,946.8541,3914.5192,953.8382,3927.6875,945.875" style="stroke:#181818;stroke-width:1.5625;"/><text fill="#000000" font-family="sans-serif" font-size="20.3125" lengthAdjust="spacing" textLength="98.4482" x="3721" y="955.2139">&#171;include&#187;</text></g><!--link UC_Embed to UC_Index--><g class="link" data-entity-1="UC_Embed" data-entity-2="UC_Index" data-source-line="113" data-uid="lnk56" id="link_UC_Embed_UC_Index"><path d="M4151.7031,905.2813 C4244.7656,881.2656 4375.7975,847.4211 4467.8131,823.6711" fill="none" id="UC_Embed-to-UC_Index" style="stroke:#181818;stroke-width:1.5625;"/><polygon fill="#181818" points="4476.8906,821.3281,4461.7124,818.7909,4469.326,823.2806,4464.8364,830.8943,4476.8906,821.3281" style="stroke:#181818;stroke-width:1.5625;"/><text fill="#000000" font-family="sans-serif" font-size="20.3125" lengthAdjust="spacing" textLength="98.4482" x="4291.6563" y="838.0264">&#171;include&#187;</text></g><!--link UC_Index to UC_Search--><g class="link" data-entity-1="UC_Index" data-entity-2="UC_Search" data-source-line="114" data-uid="lnk57" id="link_UC_Index_UC_Search"><path d="M4666.3281,821.25 C4747.375,842.0625 4855.9353,869.965 4942.5759,892.215" fill="none" id="UC_Index-to-UC_Search" style="stroke:#181818;stroke-width:1.5625;"/><polygon fill="#181818" points="4951.6563,894.5469,4939.5903,884.9954,4944.0893,892.6036,4936.4811,897.1026,4951.6563,894.5469" style="stroke:#181818;stroke-width:1.5625;"/><text fill="#000000" font-family="sans-serif" font-size="20.3125" lengthAdjust="spacing" textLength="98.4482" x="4746.7188" y="836.4639">&#171;include&#187;</text></g><!--link UC_Search to UC_QA--><g class="link" data-entity-1="UC_Search" data-entity-2="UC_QA" data-source-line="115" data-uid="lnk58" id="link_UC_Search_UC_QA"><path d="M4996.5469,959.2656 C4904.7188,1010.7969 4759.2969,1114.375 4787.4688,1241.8281 C4807.0625,1330.4375 4805.5469,1366.8906 4873.5469,1426.9844 C4902.5469,1452.6094 4933.0908,1465.4828 4968.9502,1474.4203" fill="none" id="UC_Search-to-UC_QA" style="stroke:#181818;stroke-width:1.5625;"/><polygon fill="#181818" points="4978.0469,1476.6875,4965.9133,1467.2222,4970.4663,1474.7981,4962.8903,1479.3511,4978.0469,1476.6875" style="stroke:#181818;stroke-width:1.5625;"/><text fill="#000000" font-family="sans-serif" font-size="20.3125" lengthAdjust="spacing" textLength="98.4482" x="4746.7188" y="1235.6826">&#171;include&#187;</text></g><!--link UC_Configure to UC_Transcribe--><g class="link" data-entity-1="UC_Configure" data-entity-2="UC_Transcribe" data-source-line="120" data-uid="lnk59" id="link_UC_Configure_UC_Transcribe"><path d="M931.0938,364.4688 C1107.0938,372.2969 1397.5,383.2344 1647.9219,383.2344 C1647.9219,383.2344 1647.9219,383.2344 2656.2969,383.2344 C2940.6094,383.2344 3050.5361,822.2978 3076.9111,951.8603" fill="none" id="UC_Configure-to-UC_Transcribe" style="stroke:#181818;stroke-width:1.5625;stroke-dasharray:10.9375,10.9375;"/><polygon fill="#181818" points="3078.7813,961.0469,3082.1005,946.0203,3077.2228,953.3914,3069.8517,948.5137,3078.7813,961.0469" style="stroke:#181818;stroke-width:1.5625;"/><text fill="#000000" font-family="sans-serif" font-size="20.3125" lengthAdjust="spacing" textLength="108.902" x="2103.6406" y="377.0889">&#171;extend&#187; :</text><text fill="#000000" font-family="sans-serif" font-size="20.3125" lengthAdjust="spacing" textLength="151.8578" x="2904.7356" y="944.019">update models</text></g><!--link UC_ManageVector to UC_Index--><g class="link" data-entity-1="UC_ManageVector" data-entity-2="UC_Index" data-source-line="121" data-uid="lnk60" id="link_UC_ManageVector_UC_Index"><path d="M4236.9063,800.3281 C4305.4688,799.7031 4372.5473,799.1026 4434.891,798.5244" fill="none" id="UC_ManageVector-to-UC_Index" style="stroke:#181818;stroke-width:1.5625;stroke-dasharray:10.9375,10.9375;"/><polygon fill="#181818" points="4444.2656,798.4375,4430.1458,792.3182,4436.4535,798.5099,4430.2617,804.8176,4444.2656,798.4375" style="stroke:#181818;stroke-width:1.5625;"/><text fill="#000000" font-family="sans-serif" font-size="20.3125" lengthAdjust="spacing" textLength="111.7485" x="4285.4063" y="794.2764">&#171;include&#187; :</text><text fill="#000000" font-family="sans-serif" font-size="20.3125" lengthAdjust="spacing" textLength="158.0368" x="4274.5405" y="818.0419">rebuild/cleanup</text></g><!--link UC_AdminScripts to UC_Index--><g class="link" data-entity-1="UC_AdminScripts" data-entity-2="UC_Index" data-source-line="122" data-uid="lnk61" id="link_UC_AdminScripts_UC_Index"><path d="M914.5781,237.0625 C1088.5156,243.0781 1389.5469,251.9844 1647.9219,251.9844 C1647.9219,251.9844 1647.9219,251.9844 4055.5469,251.9844 C4337,251.9844 4506.6203,632.3552 4553.5734,753.1989" fill="none" id="UC_AdminScripts-to-UC_Index" style="stroke:#181818;stroke-width:1.5625;stroke-dasharray:10.9375,10.9375;"/><polygon fill="#181818" points="4556.9688,761.9375,4557.7015,746.5661,4554.1393,754.6554,4546.0501,751.0932,4556.9688,761.9375" style="stroke:#181818;stroke-width:1.5625;"/><text fill="#000000" font-family="sans-serif" font-size="20.3125" lengthAdjust="spacing" textLength="111.7485" x="2815.875" y="245.8389">&#171;include&#187; :</text><text fill="#000000" font-family="sans-serif" font-size="20.3125" lengthAdjust="spacing" textLength="168.2526" x="4363.5458" y="744.7321">rebuild_index.py</text></g><!--link UC_Tests to UC_Upload--><g class="link" data-entity-1="UC_Tests" data-entity-2="UC_Upload" data-source-line="123" data-uid="lnk62" id="link_UC_Tests_UC_Upload"><path d="M854.7031,473.4219 C960.0781,467.0937 1142.5313,469.4688 1275.9063,542.6094 C1459.2969,643.1875 1583.7917,865.896 1627.4167,953.146" fill="none" id="UC_Tests-to-UC_Upload" style="stroke:#181818;stroke-width:1.5625;stroke-dasharray:10.9375,10.9375;"/><polygon fill="#181818" points="1631.6094,961.5313,1630.9106,946.1583,1628.1155,954.5435,1619.7303,951.7485,1631.6094,961.5313" style="stroke:#181818;stroke-width:1.5625;"/><text fill="#000000" font-family="sans-serif" font-size="20.3125" lengthAdjust="spacing" textLength="111.7485" x="1324.3438" y="570.8389">&#171;include&#187; :</text><text fill="#000000" font-family="sans-serif" font-size="20.3125" lengthAdjust="spacing" textLength="213.8268" x="1384.3876" y="944.0628">integration/unit tests</text></g><!--link UC_Monitor to GMN63--><g class="link" data-entity-1="UC_Monitor" data-entity-2="GMN63" data-source-line="138" data-uid="lnk65" id="link_UC_Monitor_GMN63"><path d="M660.4375,627.3906 C524.5156,650.1563 298.7188,662.1563 213.6406,515.2656 C178.6563,454.875 178.6563,261.5937 213.6406,201.2031 C233.1563,167.5 259.7344,140.9219 290.75,120.0625" fill="none" id="UC_Monitor-GMN63" style="stroke:#181818;stroke-width:1.5625;stroke-dasharray:10.9375,10.9375;"/></g><g class="legend" data-source-line="128"><rect fill="none" height="174.6582" rx="11.7188" ry="11.7188" style="stroke:#000000;stroke-width:1.5625;" width="275.3159" x="4960.9966" y="1711.3594"/><text fill="#000000" font-family="sans-serif" font-size="21.875" lengthAdjust="spacing" textLength="125.5783" x="4968.8091" y="1742.6017">COLOR KEY</text><line style="stroke:#000000;stroke-width:1.5625;" x1="4968.8091" x2="5094.3875" y1="1722.2969" y2="1722.2969"/><line style="stroke:#000000;stroke-width:1.5625;" x1="4968.8091" x2="5094.3875" y1="1747.7607" y2="1747.7607"/><line style="stroke:#000000;stroke-width:1.5625;" x1="4968.8091" x2="4968.8091" y1="1722.2969" y2="1747.7607"/><line style="stroke:#000000;stroke-width:1.5625;" x1="5094.3875" x2="5094.3875" y1="1722.2969" y2="1747.7607"/><text fill="#000000" filter="url(#bb8zovkl1eyh0)" font-family="sans-serif" font-size="21.875" lengthAdjust="spacing" textLength="64.7491" x="4975.7626" y="1771.1906">Agent</text><text fill="#000000" font-family="sans-serif" font-size="21.875" lengthAdjust="spacing" textLength="127.7252" x="5047.4651" y="1771.1906">- Reviewers</text><text fill="#000000" filter="url(#bb8zovkl1eyh1)" font-family="sans-serif" font-size="21.875" lengthAdjust="spacing" textLength="81.2302" x="4975.7626" y="1796.6545">Analyst</text><text fill="#000000" font-family="sans-serif" font-size="21.875" lengthAdjust="spacing" textLength="137.7869" x="5063.9462" y="1796.6545">- Consumers</text><text fill="#000000" filter="url(#bb8zovkl1eyh2)" font-family="sans-serif" font-size="21.875" lengthAdjust="spacing" textLength="156.6071" x="4975.7626" y="1822.1183">Data Engineer</text><text fill="#000000" font-family="sans-serif" font-size="21.875" lengthAdjust="spacing" textLength="57.3471" x="5139.3231" y="1822.1183">- Ops</text><text fill="#000000" filter="url(#bb8zovkl1eyh3)" font-family="sans-serif" font-size="21.875" lengthAdjust="spacing" textLength="70.1004" x="4975.7626" y="1847.5822">Admin</text><text fill="#000000" font-family="sans-serif" font-size="21.875" lengthAdjust="spacing" textLength="85.0327" x="5052.8164" y="1847.5822">- Config</text><text fill="#000000" filter="url(#bb8zovkl1eyh4)" font-family="sans-serif" font-size="21.875" lengthAdjust="spacing" textLength="109.5139" x="4975.7626" y="1873.0461">Scheduler</text><text fill="#000000" font-family="sans-serif" font-size="21.875" lengthAdjust="spacing" textLength="136.2701" x="5092.2299" y="1873.0461">- Automated</text></g><!--SRC=[hLTjJnj74FxkNp4oKW9fZ04fX29aoTYceaqKWe6gKYLhVJS-hpZlNdRlJ9nIgP_w0wh-mloIphxStPvDWZyK2S7DFC_ixkoyxKleVEUdzHBkk2vO2ZfVfGZv0x9xJTBlalGz5nbJR05J5jqdIXOY7iXKAjYPlPsnMHGWz9p5ye6B179LOA28Cmw7Rmu2IQ4nOXhXZnR0-OPX-sCqKiMelFHeUXnD3qXw8KNkPOViwE0egf0tSnxT2zGQ3absxKmgWGgEIkAOVq4uF6hz6Mn6OPGpaQJVs0uU8yvElhcTS9armncPOictJxcLpPE6IHRbXFo_tDRO-m4jz5mul8I-sO26NHj4yTvpX1HdEUGI54_cESJS-9fBqNBdQFSJ5FdlOlSQbnmVKEsrWMcmKjYv68wEJ_eLLB1qfHrO8rFHt8ET77O6nnV7mpSbVCXo1YEHS86eYFGXqmvl5AMSrXWDtuwEgZNY1HS47aWnuuctRsImC_fnU78nB87ZQ8vnaLhB_IAN2vQJCoo-KXdZe_F1oHPE7J_mHSeeSg4BOpeCKhgPgs5g1RkKArKaSK5A5eESaKZbtFZosJieoUrRJRkwlOGNS8sP9Bf8x9P9P2AgJChs7Tq5-KdFfvAfc8x8igoRaGdTZKlfVhPovxqTJ2feQ6HixuZM-jWd2v_OX8iSrOn5MF4-zaF21Ky9G1xe9ud2X3nAl9aLwYxpCZglhlZswhzWQ6JqsHpCdq-RgnpVaSahfZuLc5TC1pC1NpddKj3vZ7tQyfMI4PMHqZzNFCEK0gRffTiibNGLj6qq2yKKLzt2odItMiY16ivbAISiLaGw8axcJCIfEUZIgId7AXib8xJYTmZz8kRI1Y7zzKAfAggNM6r8lr5Cw4ZnALOMVfrpdQ4QtznKx1eLSljPbgxW7PiQdoHmNRXZf5umGPjSbH4B7B0qrQ6HSvPJSFmifuOwjHzPvNIwC5rcKMN7ClnvrYukni-6zG9Sp5b69MtSsKz8fSuuVxIOOXoJtgoFrKST84OKCgqz6CgeM51nCgmbcbeGJxlSg8ATMcWp5HPCv3po-wFZNMEkE2vDX2l_h-fg3vk4vOtiELPey3qJvkXtTWTZ-ZM6ehcYEZI9Kcwg9xcGv8IQB2outfuZEsx3aRRISPqhvjFWHifKrqMmhv0rtUdgPA4GtiiOKsqgYm-7oAgwh_QfEAQlWTagUdjPxQAYXlQk2m7lcIaKWea8gPOgdbbdQ_TVzrMT_CQY1wpRkA5CDhLqS4dKt7pK6Mbr3MTAmKrHzuLtdBEyi04j4mhav3Kip0r5TMnumbRjyahnXQdYhc-GKuHhWDH1enIPW9IjP94_MyDTI-nqUa5HQSZg6jmGKubjVDVP2AVGZgGo3HbixkfsgrKsqqsZJOKFoJMfMQmfAIlqcjYNtrQZ5tjT8y-V0hZqUahZalOfJIFcdmJuEssvTk-bTP0sn8tGQsXACmsXYxXMFHWyTT8DRQDqRsY3qhoXSmxQ8ZRBjZPBvGFiSX6bHOmGpIa3z-3hN_-Q706cb7pGCAFmfVoFsPIdF5yzPxsAKkZGcq2uZLMjxnJEplnolLuhr0Jeq06RZ8OsO0MTROCJw0968oNM684kODWusmGxSO1pFMC3vyG1phU53Q2NT-pmNARO6coBYJqewqkaIqpT6BN55TRrVN__AU_YPwhKSQzdQacHsGjSs4RGRgqbNMdW2PSOii9fmTEuQsjYaLbwc6NRqIUs4zDaQlck2NYY3yODfkarYMjutO9o5sotQ6_XrdT8TJK6cjj0I68z_nAoU7kNr7uU7mSVtdsuXbz6lpq-qlUPUL-V-ZTFpps1phf6s8CEbEyZNIFTSwTNldzgB5sQfY4bnBfNJWyQZwAQGM-Z6kiUEZqNDWsh50gXIVEswTNFdHfQFOXQQ8PQS-nMo_Y87ZKvgSZ83S_qAVtjmAqfCLKf6aYQgBWmywzvDKeAVxIHYv3FpVF7bIXNiDom_VNlV_paIF_bLNpIXus6lNsxp1NvWtB039bBFrpisb25fT6Gorv3pXUq65lGIz6MEsIKV6wuYu7JRE1CNP2AI2lgceh69ZFtQyo9hp1BwNb3bCu25v8G4Lb0UE3vd6umvle7Dul5u6P769xl6n_P0FeF]--></g></svg>