<svg xmlns="http://www.w3.org/2000/svg" xmlns:xlink="http://www.w3.org/1999/xlink" contentStyleType="text/css" data-diagram-type="CLASS" height="635px" preserveAspectRatio="none" style="width:745px;height:635px;background:#FFFFFF;" version="1.1" viewBox="0 0 745 635" width="745px" zoomAndPan="magnify"><defs/><g><!--class TranscriptionResult--><g class="entity" data-entity="TranscriptionResult" data-source-line="2" data-uid="ent0002" id="entity_TranscriptionResult"><rect fill="#F1F1F1" height="186.6406" rx="2.5" ry="2.5" style="stroke:#181818;stroke-width:0.5;" width="295.2949" x="94.13" y="441.64"/><ellipse cx="169.5338" cy="461.7728" fill="#ADD1B2" rx="11" ry="11" style="stroke:#181818;stroke-width:1;"/><path d="M172.5026,467.4134 Q171.9244,467.7103 171.2838,467.8509 Q170.6432,468.0072 169.9401,468.0072 Q167.4401,468.0072 166.1119,466.3666 Q164.7994,464.7103 164.7994,461.5853 Q164.7994,458.4603 166.1119,456.8041 Q167.4401,455.1478 169.9401,455.1478 Q170.6432,455.1478 171.2838,455.3041 Q171.9401,455.4603 172.5026,455.7572 L172.5026,458.4759 Q171.8776,457.8978 171.2838,457.6322 Q170.6901,457.3509 170.0651,457.3509 Q168.7213,457.3509 168.0338,458.4291 Q167.3463,459.4916 167.3463,461.5853 Q167.3463,463.6791 168.0338,464.7572 Q168.7213,465.8197 170.0651,465.8197 Q170.6901,465.8197 171.2838,465.5541 Q171.8776,465.2728 172.5026,464.6947 L172.5026,467.4134 Z " fill="#000000"/><text fill="#000000" font-family="sans-serif" font-size="12" font-style="italic" lengthAdjust="spacing" textLength="71.502" x="222.2765" y="457.7787">&#171;dataclass&#187;</text><text fill="#000000" font-family="sans-serif" font-size="14" lengthAdjust="spacing" textLength="135.9873" x="190.0338" y="473.6039">TranscriptionResult</text><line style="stroke:#181818;stroke-width:0.5;" x1="95.13" x2="388.4249" y1="481.9056" y2="481.9056"/><rect fill="none" height="6" style="stroke:#C82930;stroke-width:1;" width="6" x="102.13" y="492.5541"/><text fill="#000000" font-family="sans-serif" font-size="14" lengthAdjust="spacing" textLength="95.416" x="114.13" y="498.9007">transcript: str</text><rect fill="none" height="6" style="stroke:#C82930;stroke-width:1;" width="6" x="102.13" y="508.8509"/><text fill="#000000" font-family="sans-serif" font-size="14" lengthAdjust="spacing" textLength="135.3174" x="114.13" y="515.1976">segments: list[dict]</text><rect fill="none" height="6" style="stroke:#C82930;stroke-width:1;" width="6" x="102.13" y="525.1478"/><text fill="#000000" font-family="sans-serif" font-size="14" lengthAdjust="spacing" textLength="163.7549" x="114.13" y="531.4945">duration_seconds: float</text><rect fill="none" height="6" style="stroke:#C82930;stroke-width:1;" width="6" x="102.13" y="541.4447"/><text fill="#000000" font-family="sans-serif" font-size="14" lengthAdjust="spacing" textLength="92.8867" x="114.13" y="547.7914">language: str</text><rect fill="none" height="6" style="stroke:#C82930;stroke-width:1;" width="6" x="102.13" y="557.7416"/><text fill="#000000" font-family="sans-serif" font-size="14" lengthAdjust="spacing" textLength="117.2568" x="114.13" y="564.0882">confidence: float</text><rect fill="none" height="6" style="stroke:#C82930;stroke-width:1;" width="6" x="102.13" y="574.0384"/><text fill="#000000" font-family="sans-serif" font-size="14" lengthAdjust="spacing" textLength="111.9658" x="114.13" y="580.3851">model_used: str</text><line style="stroke:#181818;stroke-width:0.5;" x1="95.13" x2="388.4249" y1="587.6869" y2="587.6869"/><ellipse cx="105.13" cy="601.3353" fill="#84BE84" rx="3" ry="3" style="stroke:#038048;stroke-width:1;"/><text fill="#000000" font-family="sans-serif" font-size="14" lengthAdjust="spacing" textLength="97.5215" x="114.13" y="604.682">to_dict() : dict</text><ellipse cx="105.13" cy="617.6322" fill="#84BE84" rx="3" ry="3" style="stroke:#038048;stroke-width:1;"/><text fill="#000000" font-family="sans-serif" font-size="14" lengthAdjust="spacing" textLength="269.2949" x="114.13" y="620.9789">get(key: str, default: Any=None) : Any</text></g><!--class WhisperSTT--><g class="entity" data-entity="WhisperSTT" data-source-line="13" data-uid="ent0003" id="entity_WhisperSTT"><rect fill="#F1F1F1" height="357.6406" rx="2.5" ry="2.5" style="stroke:#181818;stroke-width:0.5;" width="731.5576" x="7" y="7"/><ellipse cx="326.9561" cy="23" fill="#ADD1B2" rx="11" ry="11" style="stroke:#181818;stroke-width:1;"/><path d="M329.9248,28.6406 Q329.3467,28.9375 328.7061,29.0781 Q328.0654,29.2344 327.3623,29.2344 Q324.8623,29.2344 323.5342,27.5938 Q322.2217,25.9375 322.2217,22.8125 Q322.2217,19.6875 323.5342,18.0313 Q324.8623,16.375 327.3623,16.375 Q328.0654,16.375 328.7061,16.5313 Q329.3623,16.6875 329.9248,16.9844 L329.9248,19.7031 Q329.2998,19.125 328.7061,18.8594 Q328.1123,18.5781 327.4873,18.5781 Q326.1436,18.5781 325.4561,19.6563 Q324.7686,20.7188 324.7686,22.8125 Q324.7686,24.9063 325.4561,25.9844 Q326.1436,27.0469 327.4873,27.0469 Q328.1123,27.0469 328.7061,26.7813 Q329.2998,26.5 329.9248,25.9219 L329.9248,28.6406 Z " fill="#000000"/><text fill="#000000" font-family="sans-serif" font-size="14" lengthAdjust="spacing" textLength="83.1455" x="347.4561" y="27.8467">WhisperSTT</text><line style="stroke:#181818;stroke-width:0.5;" x1="8" x2="737.5576" y1="39" y2="39"/><rect fill="none" height="6" style="stroke:#C82930;stroke-width:1;" width="6" x="15" y="49.6484"/><text fill="#000000" font-family="sans-serif" font-size="14" lengthAdjust="spacing" textLength="105.4443" x="27" y="55.9951">model_size: str</text><rect fill="none" height="6" style="stroke:#C82930;stroke-width:1;" width="6" x="15" y="65.9453"/><text fill="#000000" font-family="sans-serif" font-size="14" lengthAdjust="spacing" textLength="127.7432" x="27" y="72.292">compute_type: str</text><rect fill="none" height="6" style="stroke:#C82930;stroke-width:1;" width="6" x="15" y="82.2422"/><text fill="#000000" font-family="sans-serif" font-size="14" lengthAdjust="spacing" textLength="73.6914" x="27" y="88.5889">device: str</text><rect fill="none" height="6" style="stroke:#C82930;stroke-width:1;" width="6" x="15" y="98.5391"/><text fill="#000000" font-family="sans-serif" font-size="14" lengthAdjust="spacing" textLength="121.3447" x="27" y="104.8857">num_workers: int</text><rect fill="none" height="6" style="stroke:#C82930;stroke-width:1;" width="6" x="15" y="114.8359"/><text fill="#000000" font-family="sans-serif" font-size="14" lengthAdjust="spacing" textLength="101.2813" x="27" y="121.1826">beam_size: int</text><rect fill="none" height="6" style="stroke:#C82930;stroke-width:1;" width="6" x="15" y="131.1328"/><text fill="#000000" font-family="sans-serif" font-size="14" lengthAdjust="spacing" textLength="128.9258" x="27" y="137.4795">temperature: float</text><rect fill="none" height="6" style="stroke:#C82930;stroke-width:1;" width="6" x="15" y="147.4297"/><text fill="#000000" font-family="sans-serif" font-size="14" lengthAdjust="spacing" textLength="104.3916" x="27" y="153.7764">vad_filter: bool</text><rect fill="none" height="6" style="stroke:#C82930;stroke-width:1;" width="6" x="15" y="163.7266"/><text fill="#000000" font-family="sans-serif" font-size="14" lengthAdjust="spacing" textLength="190.3877" x="27" y="170.0732">default_language: str|None</text><rect fill="none" height="6" style="stroke:#C82930;stroke-width:1;" width="6" x="15" y="180.0234"/><text fill="#000000" font-family="sans-serif" font-size="14" lengthAdjust="spacing" textLength="107.543" x="27" y="186.3701">cache_dir: Path</text><rect fill="none" height="6" style="stroke:#C82930;stroke-width:1;" width="6" x="15" y="196.3203"/><text fill="#000000" font-family="sans-serif" font-size="14" lengthAdjust="spacing" textLength="43.5928" x="27" y="202.667">model</text><line style="stroke:#181818;stroke-width:0.5;" x1="8" x2="737.5576" y1="209.9688" y2="209.9688"/><ellipse cx="18" cy="223.6172" fill="#84BE84" rx="3" ry="3" style="stroke:#038048;stroke-width:1;"/><text fill="#000000" font-family="sans-serif" font-size="14" lengthAdjust="spacing" textLength="139.0361" x="27" y="226.9639">__init__(config: dict)</text><rect fill="#F24D5C" height="6" style="stroke:#C82930;stroke-width:1;" width="6" x="15" y="236.9141"/><text fill="#000000" font-family="sans-serif" font-size="14" lengthAdjust="spacing" textLength="98.4375" x="27" y="243.2607">_load_model()</text><ellipse cx="18" cy="256.2109" fill="#84BE84" rx="3" ry="3" style="stroke:#038048;stroke-width:1;"/><text fill="#000000" font-family="sans-serif" font-size="14" lengthAdjust="spacing" textLength="705.5576" x="27" y="259.5576">transcribe(audio_path: Path, language: str|None=None, use_cache: bool=True) : TranscriptionResult</text><ellipse cx="18" cy="272.5078" fill="#84BE84" rx="3" ry="3" style="stroke:#038048;stroke-width:1;"/><text fill="#000000" font-family="sans-serif" font-size="14" lengthAdjust="spacing" textLength="466.3271" x="27" y="275.8545">batch_transcribe(audio_paths: list[Path]) : list[TranscriptionResult]</text><rect fill="#F24D5C" height="6" style="stroke:#C82930;stroke-width:1;" width="6" x="15" y="285.8047"/><text fill="#000000" font-family="sans-serif" font-size="14" lengthAdjust="spacing" textLength="312.1426" x="27" y="292.1514">_generate_cache_key(audio_path: Path) : str</text><rect fill="#F24D5C" height="6" style="stroke:#C82930;stroke-width:1;" width="6" x="15" y="302.1016"/><text fill="#000000" font-family="sans-serif" font-size="14" lengthAdjust="spacing" textLength="432.3525" x="27" y="308.4482">_save_to_cache(audio_path: Path, result: TranscriptionResult)</text><rect fill="#F24D5C" height="6" style="stroke:#C82930;stroke-width:1;" width="6" x="15" y="318.3984"/><text fill="#000000" font-family="sans-serif" font-size="14" lengthAdjust="spacing" textLength="445.2109" x="27" y="324.7451">_load_from_cache(audio_path: Path) : TranscriptionResult|None</text><ellipse cx="18" cy="337.6953" fill="#84BE84" rx="3" ry="3" style="stroke:#038048;stroke-width:1;"/><text fill="#000000" font-family="sans-serif" font-size="14" lengthAdjust="spacing" textLength="125.7881" x="27" y="341.042">clear_cache() : int</text><ellipse cx="18" cy="353.9922" fill="#84BE84" rx="3" ry="3" style="stroke:#038048;stroke-width:1;"/><text fill="#000000" font-family="sans-serif" font-size="14" lengthAdjust="spacing" textLength="426.9932" x="27" y="357.3389">validate_transcript(transcript: str, min_tokens: int=20) : bool</text></g><!--class TranscriptionError--><g class="entity" data-entity="TranscriptionError" data-source-line="35" data-uid="ent0004" id="entity_TranscriptionError"><rect fill="#F1F1F1" height="56.2656" rx="2.5" ry="2.5" style="stroke:#181818;stroke-width:0.5;" width="158.7793" x="424.39" y="506.83"/><ellipse cx="439.39" cy="526.9628" fill="#ADD1B2" rx="11" ry="11" style="stroke:#181818;stroke-width:1;"/><path d="M442.3588,532.6034 Q441.7806,532.9003 441.14,533.0409 Q440.4994,533.1972 439.7963,533.1972 Q437.2963,533.1972 435.9681,531.5566 Q434.6556,529.9003 434.6556,526.7753 Q434.6556,523.6503 435.9681,521.9941 Q437.2963,520.3378 439.7963,520.3378 Q440.4994,520.3378 441.14,520.4941 Q441.7963,520.6503 442.3588,520.9472 L442.3588,523.6659 Q441.7338,523.0878 441.14,522.8222 Q440.5463,522.5409 439.9213,522.5409 Q438.5775,522.5409 437.89,523.6191 Q437.2025,524.6816 437.2025,526.7753 Q437.2025,528.8691 437.89,529.9472 Q438.5775,531.0097 439.9213,531.0097 Q440.5463,531.0097 441.14,530.7441 Q441.7338,530.4628 442.3588,529.8847 L442.3588,532.6034 Z " fill="#000000"/><text fill="#000000" font-family="sans-serif" font-size="12" font-style="italic" lengthAdjust="spacing" textLength="73.752" x="479.9037" y="522.9687">&#171;exception&#187;</text><text fill="#000000" font-family="sans-serif" font-size="14" lengthAdjust="spacing" textLength="126.7793" x="453.39" y="538.7939">TranscriptionError</text><line style="stroke:#181818;stroke-width:0.5;" x1="425.39" x2="582.1693" y1="547.0956" y2="547.0956"/><line style="stroke:#181818;stroke-width:0.5;" x1="425.39" x2="582.1693" y1="555.0956" y2="555.0956"/></g><!--link WhisperSTT to TranscriptionResult--><g class="link" data-entity-1="WhisperSTT" data-entity-2="TranscriptionResult" data-source-line="39" data-uid="lnk5" id="link_WhisperSTT_TranscriptionResult"><path codeLine="39" d="M305.55,364.97 C295.56,391.43 287.7481,412.1463 278.7981,435.8663" fill="none" id="WhisperSTT-to-TranscriptionResult" style="stroke:#181818;stroke-width:1;stroke-dasharray:7,7;"/><polygon fill="#181818" points="276.68,441.48,283.5997,434.4716,278.4451,436.8019,276.1148,431.6474,276.68,441.48" style="stroke:#181818;stroke-width:1;"/><text fill="#000000" font-family="sans-serif" font-size="13" lengthAdjust="spacing" textLength="99.7407" x="292.78" y="407.7069">returns/creates</text></g><!--link WhisperSTT to TranscriptionError--><g class="link" data-entity-1="WhisperSTT" data-entity-2="TranscriptionError" data-source-line="40" data-uid="lnk6" id="link_WhisperSTT_TranscriptionError"><path codeLine="40" d="M440.01,364.97 C460.86,420.23 479.3724,469.2661 491.2924,500.8661" fill="none" id="WhisperSTT-to-TranscriptionError" style="stroke:#181818;stroke-width:1;stroke-dasharray:7,7;"/><polygon fill="#181818" points="493.41,506.48,493.9761,496.6474,491.6453,501.8018,486.491,499.4709,493.41,506.48" style="stroke:#181818;stroke-width:1;"/><text fill="#000000" font-family="sans-serif" font-size="13" lengthAdjust="spacing" textLength="38.4668" x="454.78" y="407.7069">raises</text></g><!--SRC=[VLJBRjim4BphA_OM6NRJeaV1Dj13hqMH6EYX20XQN4c4AL8WARVkuz-xNCgndIWzMQA6Cpkpkxw3nuWUNJmD6A1n7ceZlOwdWdv3W9sNDjHU3r4x-u1XD17MQoMZvE_RBVmk0Dv1VCPL4ABdiu1jZpQ62emEyRlITNpY3shqCl69WBMpYW2DSJBoDoDjEyeMBpG4QRH2M-CrhdSAZHW3gZDo2T69958ke8Bqm8SjnlA09qQjG64ZoKC5d-nfyyLPJ5XwBluMa-DldGu3-iVTRhAMbOB-TLDJFumHHOhjSghmgEkhTplsueVp1_HaKTjS-1vbFx6TZoBsf2ZZw6yi7gKIZJRKdmhspfb9Wms8cvp-92UvC5btI2dGbQyoTXS3d8KGskeeHCcPjZcb1OC4oIh1q7AHqvnQkiTIZaexCH1Xfbt1QtbESmNK4S55v9etEpzonZE3n2fx6UjEp6gT1oSfFYKEVfiXobCbMhGfnKbVKDDV5PvOpjqHGHwfWox3Ppnw9fyj_Jgpnhl-3OutZ9_RjQHbG-cdomcS9s99hJTQ9IkNlIfVhDWAUcsf_0FQF5sRZnyI1K_AypJVg7_sdXPylSQVDV81hozXx-013QzawFGGYgiTkB_Vplu9L1GF3QmDxskFLEd_BsLbkYDrmF0F]--></g></svg>